<?xml version="1.0" encoding="utf-8" standalone="no"?>
<!DOCTYPE svg PUBLIC "-//W3C//DTD SVG 1.1//EN"
  "http://www.w3.org/Graphics/SVG/1.1/DTD/svg11.dtd">
<svg xmlns:xlink="http://www.w3.org/1999/xlink" width="1104.831496pt" height="614.994094pt" viewBox="0 0 1104.831496 614.994094" xmlns="http://www.w3.org/2000/svg" version="1.1">
 <metadata>
  <rdf:RDF xmlns:dc="http://purl.org/dc/elements/1.1/" xmlns:cc="http://creativecommons.org/ns#" xmlns:rdf="http://www.w3.org/1999/02/22-rdf-syntax-ns#">
   <cc:Work>
    <dc:type rdf:resource="http://purl.org/dc/dcmitype/StillImage"/>
    <dc:date>2025-03-11T12:28:54.204764</dc:date>
    <dc:format>image/svg+xml</dc:format>
    <dc:creator>
     <cc:Agent>
      <dc:title>Matplotlib v3.10.0, https://matplotlib.org/</dc:title>
     </cc:Agent>
    </dc:creator>
   </cc:Work>
  </rdf:RDF>
 </metadata>
 <defs>
  <style type="text/css">*{stroke-linejoin: round; stroke-linecap: butt}</style>
 </defs>
 <g id="figure_1">
  <g id="patch_1">
   <path d="M 0 614.994094 
L 1104.831496 614.994094 
L 1104.831496 0 
L 0 0 
z
" style="fill: #ffffff"/>
  </g>
  <g id="axes_1">
   <g id="patch_2">
    <path d="M 138.103937 547.344744 
L 994.348346 547.344744 
L 994.348346 73.799291 
L 138.103937 73.799291 
z
" style="fill: #ffffff"/>
   </g>
   <g id="FillBetweenPolyCollection_1">
    <defs>
     <path id="me97d594024" d="M 177.024137 -489.030457 
L 177.024137 -400.159805 
L 180.137753 -346.981382 
L 183.25137 -298.345691 
L 186.364986 -341.780686 
L 189.478602 -323.777366 
L 192.592218 -325.152084 
L 195.705834 -274.552749 
L 198.81945 -299.553313 
L 201.933066 -332.937226 
L 205.046682 -344.702918 
L 208.160298 -361.470555 
L 211.273914 -334.715964 
L 214.38753 -359.666763 
L 217.501146 -319.494827 
L 220.614762 -350.332992 
L 223.728378 -354.835092 
L 226.841994 -369.520252 
L 229.95561 -369.519953 
L 233.069226 -304.142291 
L 236.182842 -350.123949 
L 239.296458 -320.684885 
L 242.410074 -279.225064 
L 245.52369 -338.358508 
L 248.637306 -287.683092 
L 251.750922 -316.827895 
L 254.864538 -285.307461 
L 257.978154 -268.888495 
L 261.09177 -289.9081 
L 264.205386 -306.215167 
L 267.319002 -311.545879 
L 270.432618 -304.914335 
L 273.546235 -254.962503 
L 276.659851 -314.511336 
L 279.773467 -260.153775 
L 282.887083 -268.675073 
L 286.000699 -264.756478 
L 289.114315 -249.838471 
L 292.227931 -224.849149 
L 295.341547 -226.22889 
L 298.455163 -206.664732 
L 301.568779 -250.63877 
L 304.682395 -229.753914 
L 307.796011 -245.29869 
L 310.909627 -226.570242 
L 314.023243 -193.688118 
L 317.136859 -192.265224 
L 320.250475 -217.3236 
L 323.364091 -182.987879 
L 326.477707 -211.209096 
L 329.591323 -182.482342 
L 332.704939 -160.99911 
L 335.818555 -170.297007 
L 338.932171 -185.502534 
L 342.045787 -171.874085 
L 345.159403 -178.116819 
L 348.273019 -146.948655 
L 351.386635 -182.254841 
L 354.500251 -173.962688 
L 357.613867 -152.369515 
L 360.727483 -166.247967 
L 363.841099 -159.110372 
L 366.954716 -171.604773 
L 370.068332 -155.649412 
L 373.181948 -161.367317 
L 376.295564 -174.213592 
L 379.40918 -154.907303 
L 382.522796 -182.254841 
L 385.636412 -183.297165 
L 388.750028 -156.174385 
L 391.863644 -162.718351 
L 394.97726 -170.67004 
L 398.090876 -126.873307 
L 401.204492 -146.192255 
L 404.318108 -164.223544 
L 407.431724 -145.659332 
L 410.54534 -143.943083 
L 413.658956 -141.943285 
L 416.772572 -147.385023 
L 419.886188 -139.36875 
L 422.999804 -139.923341 
L 426.11342 -129.452808 
L 429.227036 -152.549874 
L 432.340652 -142.753392 
L 435.454268 -181.622873 
L 438.567884 -158.188415 
L 441.6815 -141.805283 
L 444.795116 -152.369515 
L 447.908732 -121.868821 
L 451.022348 -159.701551 
L 454.135964 -164.787885 
L 457.249581 -179.558526 
L 460.363197 -155.526687 
L 463.476813 -138.238794 
L 466.590429 -148.470325 
L 469.704045 -155.551657 
L 472.817661 -135.388934 
L 475.931277 -163.888734 
L 479.044893 -148.572262 
L 482.158509 -146.348899 
L 485.272125 -147.702514 
L 488.385741 -174.58466 
L 491.499357 -154.45671 
L 494.612973 -142.884901 
L 497.726589 -126.051539 
L 500.840205 -157.371703 
L 503.953821 -138.840844 
L 507.067437 -146.208013 
L 510.181053 -129.169616 
L 513.294669 -124.248828 
L 516.408285 -138.899681 
L 519.521901 -140.434375 
L 522.635517 -119.950359 
L 525.749133 -128.572603 
L 528.862749 -137.320852 
L 531.976365 -154.042398 
L 535.089981 -107.931268 
L 538.203597 -121.611153 
L 541.317213 -141.972793 
L 544.430829 -150.86592 
L 547.544446 -144.058941 
L 550.658062 -128.572603 
L 553.771678 -115.119405 
L 556.885294 -146.207212 
L 559.99891 -153.993097 
L 563.112526 -132.514574 
L 566.226142 -134.045495 
L 569.339758 -149.25289 
L 572.453374 -128.572603 
L 575.56699 -143.728328 
L 578.680606 -140.628358 
L 581.794222 -122.483864 
L 584.907838 -121.611153 
L 588.021454 -137.728441 
L 591.13507 -138.151718 
L 594.248686 -142.307603 
L 597.362302 -126.130503 
L 600.475918 -137.812543 
L 603.589534 -136.720602 
L 606.70315 -127.111637 
L 609.816766 -119.498613 
L 612.930382 -133.350795 
L 616.043998 -127.797045 
L 619.157614 -152.729706 
L 622.27123 -126.854639 
L 625.384846 -135.068867 
L 628.498462 -112.882505 
L 631.612078 -119.828358 
L 634.725694 -141.09139 
L 637.839311 -136.873435 
L 640.952927 -139.923341 
L 644.066543 -119.772326 
L 647.180159 -128.767145 
L 650.293775 -110.314341 
L 653.407391 -119.317856 
L 656.521007 -134.107641 
L 659.634623 -130.596391 
L 662.748239 -136.933438 
L 665.861855 -104.247357 
L 668.975471 -89.174144 
L 672.089087 -119.950359 
L 675.202703 -107.527517 
L 678.316319 -117.458913 
L 681.429935 -123.439519 
L 684.543551 -138.222055 
L 687.657167 -130.472227 
L 690.770783 -122.615373 
L 693.884399 -130.384113 
L 696.998015 -126.330207 
L 700.111631 -109.476663 
L 703.225247 -139.263588 
L 706.338863 -111.664515 
L 709.452479 -128.58089 
L 712.566095 -125.075474 
L 715.679711 -124.454272 
L 718.793327 -136.874957 
L 721.906943 -120.763885 
L 725.020559 -126.353402 
L 728.134176 -116.272759 
L 731.247792 -134.107641 
L 734.361408 -120.356143 
L 737.475024 -103.414959 
L 740.58864 -130.130983 
L 743.702256 -121.611153 
L 746.815872 -149.263539 
L 749.929488 -128.767145 
L 753.043104 -117.218417 
L 756.15672 -129.7132 
L 759.270336 -123.190505 
L 762.383952 -120.763885 
L 765.497568 -110.569942 
L 768.611184 -115.681601 
L 771.7248 -101.215937 
L 774.838416 -153.838227 
L 777.952032 -107.163458 
L 781.065648 -133.152033 
L 784.179264 -135.904856 
L 787.29288 -130.130983 
L 790.406496 -152.904324 
L 793.520112 -133.350795 
L 796.633728 -131.428915 
L 799.747344 -127.89598 
L 802.86096 -112.74325 
L 805.974576 -118.022692 
L 809.088192 -121.063419 
L 812.201808 -136.026795 
L 815.315424 -125.539371 
L 818.429041 -112.882505 
L 821.542657 -127.01181 
L 824.656273 -117.47245 
L 827.769889 -110.314341 
L 830.883505 -118.561467 
L 833.997121 -127.216319 
L 837.110737 -130.256713 
L 840.224353 -124.04022 
L 843.337969 -132.592213 
L 846.451585 -129.189894 
L 849.565201 -125.920619 
L 852.678817 -140.804857 
L 855.792433 -127.751873 
L 858.906049 -124.172534 
L 862.019665 -125.075474 
L 865.133281 -134.107641 
L 868.246897 -112.365267 
L 871.360513 -126.537769 
L 874.474129 -114.304012 
L 877.587745 -121.10563 
L 880.701361 -113.503341 
L 883.814977 -110.08592 
L 886.928593 -115.009213 
L 890.042209 -113.820716 
L 893.155825 -113.503341 
L 896.269441 -121.457085 
L 899.383057 -121.979884 
L 902.496673 -131.279818 
L 905.610289 -135.068867 
L 908.723906 -121.703264 
L 911.837522 -128.983362 
L 914.951138 -147.498359 
L 918.064754 -136.979508 
L 921.17837 -127.216319 
L 924.291986 -147.124168 
L 927.405602 -120.771687 
L 930.519218 -129.549562 
L 933.632834 -134.045495 
L 936.74645 -143.943083 
L 939.860066 -115.681601 
L 942.973682 -121.9801 
L 946.087298 -134.962451 
L 949.200914 -123.552519 
L 952.31453 -124.248828 
L 955.428146 -119.710123 
L 955.428146 -177.609911 
L 955.428146 -177.609911 
L 952.31453 -201.448545 
L 949.200914 -189.983138 
L 946.087298 -202.89664 
L 942.973682 -187.501651 
L 939.860066 -205.961867 
L 936.74645 -230.401158 
L 933.632834 -203.813596 
L 930.519218 -204.255623 
L 927.405602 -196.817875 
L 924.291986 -215.058357 
L 921.17837 -182.265432 
L 918.064754 -188.717866 
L 914.951138 -190.360732 
L 911.837522 -208.875729 
L 908.723906 -191.832392 
L 905.610289 -206.84413 
L 902.496673 -202.525367 
L 899.383057 -175.34015 
L 896.269441 -183.970761 
L 893.155825 -187.870598 
L 890.042209 -171.337601 
L 886.928593 -174.20301 
L 883.814977 -179.126302 
L 880.701361 -187.870598 
L 877.587745 -204.591744 
L 874.474129 -207.339456 
L 871.360513 -186.997888 
L 868.246897 -180.900861 
L 865.133281 -215.913167 
L 862.019665 -200.6219 
L 858.906049 -197.470934 
L 855.792433 -226.322841 
L 852.678817 -201.108139 
L 849.565201 -199.776755 
L 846.451585 -228.938725 
L 843.337969 -217.428595 
L 840.224353 -209.764965 
L 837.110737 -187.332849 
L 833.997121 -182.265432 
L 830.883505 -186.866378 
L 827.769889 -195.113505 
L 824.656273 -192.009302 
L 821.542657 -218.955092 
L 818.429041 -184.43753 
L 815.315424 -208.265814 
L 812.201808 -197.77839 
L 809.088192 -180.31052 
L 805.974576 -183.351248 
L 802.86096 -172.415067 
L 799.747344 -205.909205 
L 796.633728 -206.430176 
L 793.520112 -208.562202 
L 790.406496 -221.439918 
L 787.29288 -211.782013 
L 784.179264 -201.954235 
L 781.065648 -204.707058 
L 777.952032 -190.156576 
L 774.838416 -220.506014 
L 771.7248 -183.94238 
L 768.611184 -205.961867 
L 765.497568 -182.696186 
L 762.383952 -172.502243 
L 759.270336 -174.129529 
L 756.15672 -220.307607 
L 753.043104 -216.586768 
L 749.929488 -192.876323 
L 746.815872 -200.757269 
L 743.702256 -195.97841 
L 740.58864 -211.782013 
L 737.475024 -185.797264 
L 734.361408 -205.34123 
L 731.247792 -215.913167 
L 728.134176 -176.99337 
L 725.020559 -223.667406 
L 721.906943 -172.502243 
L 718.793327 -200.984134 
L 715.679711 -176.919668 
L 712.566095 -200.6219 
L 709.452479 -197.116484 
L 706.338863 -209.978954 
L 703.225247 -194.541597 
L 700.111631 -191.897277 
L 696.998015 -219.636695 
L 693.884399 -223.690601 
L 690.770783 -190.920284 
L 687.657167 -227.656392 
L 684.543551 -232.068281 
L 681.429935 -202.257855 
L 678.316319 -196.076744 
L 675.202703 -173.576895 
L 672.089087 -197.639203 
L 668.975471 -179.768551 
L 665.861855 -168.749243 
L 662.748239 -217.141275 
L 659.634623 -207.2627 
L 656.521007 -215.913167 
L 653.407391 -210.433424 
L 650.293775 -195.113505 
L 647.180159 -192.876323 
L 644.066543 -218.086765 
L 640.952927 -210.097467 
L 637.839311 -205.039562 
L 634.725694 -196.767701 
L 631.612078 -213.976827 
L 628.498462 -184.43753 
L 625.384846 -206.84413 
L 622.27123 -194.788829 
L 619.157614 -241.884064 
L 616.043998 -193.846423 
L 612.930382 -208.562202 
L 609.816766 -185.929232 
L 606.70315 -190.477925 
L 603.589534 -221.408017 
L 600.475918 -204.100454 
L 597.362302 -191.459059 
L 594.248686 -215.821017 
L 591.13507 -240.24643 
L 588.021454 -216.346272 
L 584.907838 -195.97841 
L 581.794222 -182.943982 
L 578.680606 -217.500261 
L 575.56699 -206.292479 
L 572.453374 -201.178676 
L 569.339758 -229.145257 
L 566.226142 -203.813596 
L 563.112526 -237.775763 
L 559.99891 -236.566767 
L 556.885294 -215.975313 
L 553.771678 -198.416251 
L 550.658062 -201.178676 
L 547.544446 -234.339207 
L 544.430829 -227.532228 
L 541.317213 -212.101921 
L 538.203597 -195.97841 
L 535.089981 -189.388766 
L 531.976365 -228.409655 
L 528.862749 -212.699955 
L 525.749133 -201.178676 
L 522.635517 -197.639203 
L 519.521901 -233.909866 
L 516.408285 -231.390656 
L 513.294669 -201.448545 
L 510.181053 -237.066815 
L 507.067437 -232.190135 
L 503.953821 -223.341681 
L 500.840205 -265.619407 
L 497.726589 -203.69974 
L 494.612973 -211.189812 
L 491.499357 -244.210966 
L 488.385741 -240.298639 
L 485.272125 -230.695633 
L 482.158509 -236.103154 
L 479.044893 -225.771979 
L 475.931277 -234.778941 
L 472.817661 -218.68578 
L 469.704045 -235.008208 
L 466.590429 -229.927823 
L 463.476813 -219.889825 
L 460.363197 -247.194894 
L 457.249581 -259.648207 
L 454.135964 -241.987602 
L 451.022348 -255.181748 
L 447.908732 -203.828552 
L 444.795116 -234.136444 
L 441.6815 -232.538959 
L 438.567884 -228.317543 
L 435.454268 -253.529954 
L 432.340652 -203.21351 
L 429.227036 -225.848273 
L 426.11342 -200.298472 
L 422.999804 -210.097467 
L 419.886188 -214.705964 
L 416.772572 -247.228748 
L 413.658956 -220.23924 
L 410.54534 -230.401158 
L 407.431724 -244.900533 
L 404.318108 -246.605849 
L 401.204492 -228.151986 
L 398.090876 -202.877973 
L 394.97726 -252.32107 
L 391.863644 -248.111042 
L 388.750028 -222.223763 
L 385.636412 -259.963473 
L 382.522796 -269.113609 
L 379.40918 -239.706467 
L 376.295564 -252.831423 
L 373.181948 -269.731605 
L 370.068332 -267.341698 
L 366.954716 -263.548054 
L 363.841099 -243.611209 
L 360.727483 -264.850954 
L 357.613867 -234.136444 
L 354.500251 -285.513573 
L 351.386635 -269.113609 
L 348.273019 -231.449492 
L 345.159403 -309.736782 
L 342.045787 -255.170931 
L 338.932171 -278.027632 
L 335.818555 -277.017537 
L 332.704939 -278.207623 
L 329.591323 -260.778297 
L 326.477707 -292.860127 
L 323.364091 -268.380571 
L 320.250475 -315.122963 
L 317.136859 -287.480565 
L 314.023243 -273.895954 
L 310.909627 -346.415378 
L 307.796011 -339.848647 
L 304.682395 -318.908272 
L 301.568779 -342.616378 
L 298.455163 -350.105265 
L 295.341547 -367.026258 
L 292.227931 -335.974753 
L 289.114315 -355.578394 
L 286.000699 -373.091632 
L 282.887083 -357.01132 
L 279.773467 -373.64043 
L 276.659851 -432.792227 
L 273.546235 -390.993418 
L 270.432618 -381.580643 
L 267.319002 -399.272533 
L 264.205386 -396.495434 
L 261.09177 -388.479067 
L 257.978154 -393.283049 
L 254.864538 -409.295329 
L 251.750922 -458.853008 
L 248.637306 -394.757981 
L 245.52369 -449.484112 
L 242.410074 -411.32382 
L 239.296458 -434.72649 
L 236.182842 -462.042105 
L 233.069226 -414.783933 
L 229.95561 -487.239064 
L 226.841994 -519.67001 
L 223.728378 -457.330963 
L 220.614762 -465.886968 
L 217.501146 -439.970454 
L 214.38753 -513.307876 
L 211.273914 -485.557901 
L 208.160298 -470.965027 
L 205.046682 -439.085796 
L 201.933066 -463.013206 
L 198.81945 -443.696345 
L 195.705834 -407.888324 
L 192.592218 -470.798348 
L 189.478602 -423.526198 
L 186.364986 -450.11584 
L 183.25137 -428.688345 
L 180.137753 -440.861239 
L 177.024137 -489.030457 
z
" style="stroke: #1f77b4; stroke-opacity: 0.2"/>
    </defs>
    <g clip-path="url(#p2272369bc7)">
     <use xlink:href="#me97d594024" x="0" y="614.994094" style="fill: #1f77b4; fill-opacity: 0.2; stroke: #1f77b4; stroke-opacity: 0.2"/>
    </g>
   </g>
   <g id="FillBetweenPolyCollection_2">
    <defs>
     <path id="mda108fcfdf" d="M 177.024137 -498.470991 
L 177.024137 -370.449743 
L 180.137753 -379.278321 
L 183.25137 -325.155808 
L 186.364986 -367.058442 
L 189.478602 -325.351038 
L 192.592218 -317.241132 
L 195.705834 -319.282364 
L 198.81945 -269.533288 
L 201.933066 -278.438141 
L 205.046682 -253.368003 
L 208.160298 -267.031461 
L 211.273914 -275.004508 
L 214.38753 -257.970547 
L 217.501146 -233.472023 
L 220.614762 -243.259203 
L 223.728378 -224.688333 
L 226.841994 -293.936246 
L 229.95561 -233.217921 
L 233.069226 -244.835337 
L 236.182842 -224.803351 
L 239.296458 -229.264784 
L 242.410074 -238.242987 
L 245.52369 -250.160651 
L 248.637306 -235.534824 
L 251.750922 -264.180418 
L 254.864538 -247.346207 
L 257.978154 -272.684832 
L 261.09177 -252.646097 
L 264.205386 -271.599024 
L 267.319002 -206.393933 
L 270.432618 -233.265816 
L 273.546235 -252.766952 
L 276.659851 -256.377264 
L 279.773467 -285.222338 
L 282.887083 -267.460772 
L 286.000699 -267.460772 
L 289.114315 -268.305421 
L 292.227931 -242.120947 
L 295.341547 -255.865367 
L 298.455163 -282.609351 
L 301.568779 -275.004508 
L 304.682395 -270.873888 
L 307.796011 -273.644277 
L 310.909627 -263.709194 
L 314.023243 -273.349756 
L 317.136859 -227.232323 
L 320.250475 -228.026512 
L 323.364091 -230.776868 
L 326.477707 -285.251669 
L 329.591323 -287.228963 
L 332.704939 -221.031509 
L 335.818555 -290.717162 
L 338.932171 -224.443084 
L 342.045787 -225.905881 
L 345.159403 -248.657533 
L 348.273019 -221.515518 
L 351.386635 -235.95598 
L 354.500251 -250.087474 
L 357.613867 -225.395759 
L 360.727483 -273.392672 
L 363.841099 -243.460735 
L 366.954716 -256.995287 
L 370.068332 -220.261615 
L 373.181948 -233.281685 
L 376.295564 -224.443786 
L 379.40918 -222.747197 
L 382.522796 -218.442572 
L 385.636412 -222.531258 
L 388.750028 -237.298771 
L 391.863644 -230.822073 
L 394.97726 -259.171247 
L 398.090876 -277.266582 
L 401.204492 -211.527738 
L 404.318108 -224.162575 
L 407.431724 -272.054478 
L 410.54534 -227.820003 
L 413.658956 -252.571691 
L 416.772572 -236.195705 
L 419.886188 -261.211873 
L 422.999804 -250.576591 
L 426.11342 -268.383024 
L 429.227036 -263.151165 
L 432.340652 -248.171236 
L 435.454268 -316.325578 
L 438.567884 -252.57145 
L 441.6815 -266.020086 
L 444.795116 -265.676111 
L 447.908732 -258.944345 
L 451.022348 -262.480016 
L 454.135964 -247.27559 
L 457.249581 -246.83977 
L 460.363197 -223.056971 
L 463.476813 -273.315614 
L 466.590429 -217.753756 
L 469.704045 -253.331861 
L 472.817661 -229.006859 
L 475.931277 -272.242147 
L 479.044893 -275.375905 
L 482.158509 -224.688333 
L 485.272125 -260.157028 
L 488.385741 -244.222379 
L 491.499357 -228.136016 
L 494.612973 -172.319076 
L 497.726589 -246.827558 
L 500.840205 -212.641333 
L 503.953821 -231.391548 
L 507.067437 -193.430355 
L 510.181053 -196.412737 
L 513.294669 -223.16021 
L 516.408285 -211.844022 
L 519.521901 -182.34434 
L 522.635517 -180.755353 
L 525.749133 -211.493639 
L 528.862749 -186.018973 
L 531.976365 -200.906471 
L 535.089981 -187.094198 
L 538.203597 -172.328388 
L 541.317213 -178.706973 
L 544.430829 -200.284939 
L 547.544446 -200.403288 
L 550.658062 -183.498907 
L 553.771678 -174.272209 
L 556.885294 -179.0448 
L 559.99891 -224.900161 
L 563.112526 -174.267179 
L 566.226142 -177.258456 
L 569.339758 -213.670327 
L 572.453374 -167.686236 
L 575.56699 -170.084633 
L 578.680606 -227.885411 
L 581.794222 -216.759531 
L 584.907838 -201.849801 
L 588.021454 -193.389036 
L 591.13507 -177.194993 
L 594.248686 -170.320625 
L 597.362302 -168.210829 
L 600.475918 -177.259659 
L 603.589534 -165.575442 
L 606.70315 -202.524369 
L 609.816766 -183.757985 
L 612.930382 -196.197519 
L 616.043998 -205.326942 
L 619.157614 -174.213592 
L 622.27123 -203.669874 
L 625.384846 -165.61453 
L 628.498462 -172.4731 
L 631.612078 -170.320625 
L 634.725694 -163.144266 
L 637.839311 -199.649429 
L 640.952927 -171.604773 
L 644.066543 -153.997651 
L 647.180159 -196.962477 
L 650.293775 -159.673365 
L 653.407391 -181.060648 
L 656.521007 -151.759787 
L 659.634623 -177.08295 
L 662.748239 -165.033276 
L 665.861855 -156.004911 
L 668.975471 -176.692949 
L 672.089087 -169.904016 
L 675.202703 -177.031468 
L 678.316319 -198.3034 
L 681.429935 -180.307198 
L 684.543551 -173.13127 
L 687.657167 -172.891915 
L 690.770783 -199.649429 
L 693.884399 -179.641606 
L 696.998015 -160.462921 
L 700.111631 -158.722135 
L 703.225247 -180.7949 
L 706.338863 -175.245782 
L 709.452479 -186.675059 
L 712.566095 -174.055939 
L 715.679711 -188.241571 
L 718.793327 -190.315951 
L 721.906943 -147.093913 
L 725.020559 -205.572333 
L 728.134176 -178.011827 
L 731.247792 -184.493072 
L 734.361408 -209.27891 
L 737.475024 -207.129653 
L 740.58864 -180.199403 
L 743.702256 -156.42342 
L 746.815872 -162.212813 
L 749.929488 -185.968121 
L 753.043104 -172.842024 
L 756.15672 -208.974094 
L 759.270336 -197.712966 
L 762.383952 -190.315951 
L 765.497568 -174.267179 
L 768.611184 -211.8231 
L 771.7248 -185.151256 
L 774.838416 -180.824686 
L 777.952032 -203.566693 
L 781.065648 -219.885497 
L 784.179264 -205.536212 
L 787.29288 -175.917173 
L 790.406496 -203.669874 
L 793.520112 -190.261393 
L 796.633728 -185.455808 
L 799.747344 -213.670327 
L 802.86096 -177.259659 
L 805.974576 -232.013721 
L 809.088192 -213.257304 
L 812.201808 -219.061112 
L 815.315424 -212.949954 
L 818.429041 -224.388676 
L 821.542657 -202.277468 
L 824.656273 -213.1781 
L 827.769889 -213.880817 
L 830.883505 -176.868169 
L 833.997121 -194.811483 
L 837.110737 -224.696469 
L 840.224353 -215.618386 
L 843.337969 -200.296254 
L 846.451585 -205.861239 
L 849.565201 -196.425343 
L 852.678817 -187.280946 
L 855.792433 -250.63877 
L 858.906049 -199.689687 
L 862.019665 -183.757985 
L 865.133281 -212.406497 
L 868.246897 -211.203499 
L 871.360513 -217.002299 
L 874.474129 -241.389496 
L 877.587745 -237.057521 
L 880.701361 -216.45623 
L 883.814977 -203.489936 
L 886.928593 -220.749445 
L 890.042209 -281.263992 
L 893.155825 -192.298844 
L 896.269441 -255.477653 
L 899.383057 -225.395759 
L 902.496673 -267.382354 
L 905.610289 -210.037534 
L 908.723906 -231.473027 
L 911.837522 -235.693409 
L 914.951138 -229.099515 
L 918.064754 -223.836222 
L 921.17837 -253.83042 
L 924.291986 -215.186582 
L 927.405602 -213.670327 
L 930.519218 -172.328388 
L 933.632834 -254.110561 
L 936.74645 -223.584626 
L 939.860066 -216.467047 
L 942.973682 -216.898207 
L 946.087298 -228.841067 
L 949.200914 -264.441073 
L 952.31453 -224.990664 
L 955.428146 -229.568943 
L 955.428146 -335.308866 
L 955.428146 -335.308866 
L 952.31453 -339.887145 
L 949.200914 -381.514848 
L 946.087298 -307.659402 
L 942.973682 -335.817884 
L 939.860066 -299.763893 
L 936.74645 -312.915843 
L 933.632834 -375.629738 
L 930.519218 -266.878345 
L 927.405602 -298.506708 
L 924.291986 -321.313887 
L 921.17837 -379.963785 
L 918.064754 -300.50253 
L 914.951138 -327.670482 
L 911.837522 -337.292211 
L 908.723906 -349.620404 
L 905.610289 -338.624651 
L 902.496673 -342.088416 
L 899.383057 -331.374238 
L 896.269441 -386.424363 
L 893.155825 -279.339134 
L 890.042209 -393.06927 
L 886.928593 -327.912741 
L 883.814977 -296.525381 
L 880.701361 -311.936427 
L 877.587745 -331.874193 
L 874.474129 -339.703935 
L 871.360513 -319.49817 
L 868.246897 -329.350875 
L 865.133281 -320.040066 
L 862.019665 -271.66437 
L 858.906049 -304.379536 
L 855.792433 -342.616378 
L 852.678817 -328.949994 
L 849.565201 -283.320446 
L 846.451585 -290.100173 
L 843.337969 -303.772969 
L 840.224353 -304.66646 
L 837.110737 -319.911811 
L 833.997121 -321.419457 
L 830.883505 -282.608092 
L 827.769889 -314.511841 
L 824.656273 -294.945029 
L 821.542657 -305.845661 
L 818.429041 -304.003981 
L 815.315424 -270.849741 
L 812.201808 -333.65498 
L 809.088192 -315.135353 
L 805.974576 -332.864087 
L 802.86096 -261.947074 
L 799.747344 -298.506708 
L 796.633728 -290.236075 
L 793.520112 -261.107057 
L 790.406496 -292.291538 
L 787.29288 -271.397371 
L 784.179264 -286.371294 
L 781.065648 -308.507161 
L 777.952032 -280.233002 
L 774.838416 -270.543764 
L 771.7248 -282.432816 
L 768.611184 -320.623463 
L 765.497568 -277.101271 
L 762.383952 -289.429838 
L 759.270336 -273.925012 
L 756.15672 -286.987318 
L 753.043104 -286.634237 
L 749.929488 -269.454235 
L 746.815872 -240.508768 
L 743.702256 -238.19035 
L 740.58864 -291.438575 
L 737.475024 -284.777853 
L 734.361408 -290.736408 
L 731.247792 -266.875378 
L 728.134176 -261.194905 
L 725.020559 -294.442985 
L 721.906943 -263.73548 
L 718.793327 -289.429838 
L 715.679711 -271.23469 
L 712.566095 -281.366416 
L 709.452479 -289.016824 
L 706.338863 -280.176574 
L 703.225247 -266.519644 
L 700.111631 -248.053352 
L 696.998015 -278.743812 
L 693.884399 -275.780749 
L 690.770783 -284.150266 
L 687.657167 -282.53044 
L 684.543551 -257.967651 
L 681.429935 -246.737817 
L 678.316319 -253.065049 
L 675.202703 -254.067453 
L 672.089087 -253.087094 
L 668.975471 -258.459878 
L 665.861855 -262.932293 
L 662.748239 -253.903928 
L 659.634623 -278.339406 
L 656.521007 -238.800078 
L 653.407391 -306.792952 
L 650.293775 -259.26384 
L 647.180159 -278.729407 
L 644.066543 -256.831742 
L 640.952927 -263.548054 
L 637.839311 -284.150266 
L 634.725694 -267.954655 
L 631.612078 -248.61658 
L 628.498462 -270.787539 
L 625.384846 -241.160957 
L 622.27123 -292.291538 
L 619.157614 -252.831423 
L 616.043998 -282.526659 
L 612.930382 -279.494365 
L 609.816766 -271.66437 
L 606.70315 -289.383137 
L 603.589534 -257.415667 
L 600.475918 -261.947074 
L 597.362302 -238.564658 
L 594.248686 -248.61658 
L 591.13507 -266.065645 
L 588.021454 -290.410659 
L 584.907838 -277.895988 
L 581.794222 -295.417504 
L 578.680606 -288.345529 
L 575.56699 -285.337723 
L 572.453374 -255.304874 
L 569.339758 -298.506708 
L 566.226142 -270.056088 
L 563.112526 -277.101271 
L 559.99891 -291.33078 
L 556.885294 -288.539272 
L 553.771678 -297.365769 
L 550.658062 -280.031259 
L 547.544446 -283.396407 
L 544.430829 -271.353039 
L 541.317213 -252.391948 
L 538.203597 -266.878345 
L 535.089981 -304.813309 
L 531.976365 -295.054941 
L 528.862749 -273.457288 
L 525.749133 -300.683396 
L 522.635517 -254.397474 
L 519.521901 -273.078016 
L 516.408285 -332.764258 
L 513.294669 -325.501975 
L 510.181053 -295.494769 
L 507.067437 -310.638868 
L 503.953821 -333.48626 
L 500.840205 -315.751325 
L 497.726589 -334.265873 
L 494.612973 -283.10328 
L 491.499357 -316.472264 
L 488.385741 -349.032769 
L 485.272125 -337.152025 
L 482.158509 -344.243382 
L 479.044893 -366.526111 
L 475.931277 -341.282529 
L 472.817661 -348.032666 
L 469.704045 -380.462343 
L 466.590429 -347.124053 
L 463.476813 -348.316874 
L 460.363197 -329.659121 
L 457.249581 -366.684906 
L 454.135964 -341.925653 
L 451.022348 -367.260283 
L 447.908732 -382.957671 
L 444.795116 -355.956377 
L 441.6815 -367.774119 
L 438.567884 -377.168849 
L 435.454268 -410.708457 
L 432.340652 -393.73078 
L 429.227036 -386.858662 
L 426.11342 -393.788521 
L 422.999804 -379.163708 
L 419.886188 -344.204992 
L 416.772572 -377.328971 
L 413.658956 -356.89908 
L 410.54534 -369.489051 
L 407.431724 -382.009255 
L 404.318108 -344.769139 
L 401.204492 -337.134448 
L 398.090876 -388.958868 
L 394.97726 -354.35343 
L 391.863644 -354.325263 
L 388.750028 -327.579037 
L 385.636412 -358.562173 
L 382.522796 -330.219613 
L 379.40918 -321.861083 
L 376.295564 -340.434023 
L 373.181948 -331.596124 
L 370.068332 -324.346665 
L 366.954716 -352.475484 
L 363.841099 -374.117847 
L 360.727483 -429.317929 
L 357.613867 -331.374238 
L 354.500251 -379.652826 
L 351.386635 -353.245262 
L 348.273019 -351.470102 
L 345.159403 -356.759332 
L 342.045787 -359.241455 
L 338.932171 -316.111291 
L 335.818555 -391.72391 
L 332.704939 -351.954111 
L 329.591323 -387.104299 
L 326.477707 -376.919876 
L 323.364091 -334.10094 
L 320.250475 -324.689579 
L 317.136859 -337.645485 
L 314.023243 -396.9296 
L 310.909627 -378.192822 
L 307.796011 -364.203833 
L 304.682395 -354.812505 
L 301.568779 -379.059225 
L 298.455163 -383.616099 
L 295.341547 -377.928837 
L 292.227931 -334.918579 
L 289.114315 -373.596595 
L 286.000699 -390.656867 
L 282.887083 -390.656867 
L 279.773467 -417.488263 
L 276.659851 -393.632563 
L 273.546235 -417.512404 
L 270.432618 -339.719804 
L 267.319002 -317.944819 
L 264.205386 -366.249087 
L 261.09177 -389.255919 
L 257.978154 -369.217184 
L 254.864538 -337.80113 
L 251.750922 -385.82941 
L 248.637306 -325.289079 
L 245.52369 -371.471837 
L 242.410074 -334.742633 
L 239.296458 -343.720836 
L 236.182842 -331.966646 
L 233.069226 -356.527623 
L 229.95561 -335.713793 
L 226.841994 -404.72045 
L 223.728378 -344.243382 
L 220.614762 -370.265473 
L 217.501146 -327.35188 
L 214.38753 -375.823658 
L 211.273914 -379.059225 
L 208.160298 -403.247894 
L 205.046682 -368.264484 
L 201.933066 -420.218555 
L 198.81945 -412.907785 
L 195.705834 -419.913388 
L 192.592218 -466.547582 
L 189.478602 -438.168149 
L 186.364986 -469.431047 
L 183.25137 -462.686812 
L 180.137753 -473.42679 
L 177.024137 -498.470991 
z
" style="stroke: #ff7f0e; stroke-opacity: 0.2"/>
    </defs>
    <g clip-path="url(#p2272369bc7)">
     <use xlink:href="#mda108fcfdf" x="0" y="614.994094" style="fill: #ff7f0e; fill-opacity: 0.2; stroke: #ff7f0e; stroke-opacity: 0.2"/>
    </g>
   </g>
   <g id="FillBetweenPolyCollection_3">
    <defs>
     <path id="m5ac5f286f0" d="M 177.024137 -482.77969 
L 177.024137 -373.979327 
L 180.137753 -354.168767 
L 183.25137 -381.402257 
L 186.364986 -353.470227 
L 189.478602 -352.677137 
L 192.592218 -357.780189 
L 195.705834 -349.204362 
L 198.81945 -341.239471 
L 201.933066 -282.057056 
L 205.046682 -292.461219 
L 208.160298 -327.911983 
L 211.273914 -301.4905 
L 214.38753 -329.419424 
L 217.501146 -329.519668 
L 220.614762 -323.416362 
L 223.728378 -341.357528 
L 226.841994 -332.937226 
L 229.95561 -336.654283 
L 233.069226 -326.547027 
L 236.182842 -332.147571 
L 239.296458 -297.274237 
L 242.410074 -331.035531 
L 245.52369 -325.906354 
L 248.637306 -340.821705 
L 251.750922 -335.627031 
L 254.864538 -327.917884 
L 257.978154 -295.967265 
L 261.09177 -291.752798 
L 264.205386 -301.554329 
L 267.319002 -283.676395 
L 270.432618 -254.479629 
L 273.546235 -239.960869 
L 276.659851 -276.14731 
L 279.773467 -227.249969 
L 282.887083 -265.914445 
L 286.000699 -256.844998 
L 289.114315 -284.906149 
L 292.227931 -226.845055 
L 295.341547 -265.733864 
L 298.455163 -224.718357 
L 301.568779 -251.152994 
L 304.682395 -222.612109 
L 307.796011 -214.560223 
L 310.909627 -232.449766 
L 314.023243 -238.929885 
L 317.136859 -217.753756 
L 320.250475 -206.777014 
L 323.364091 -205.608071 
L 326.477707 -193.454354 
L 329.591323 -206.664732 
L 332.704939 -205.776217 
L 335.818555 -202.598281 
L 338.932171 -192.362795 
L 342.045787 -198.3446 
L 345.159403 -195.069196 
L 348.273019 -222.747197 
L 351.386635 -181.957421 
L 354.500251 -222.747197 
L 357.613867 -181.529663 
L 360.727483 -180.726043 
L 363.841099 -168.550846 
L 366.954716 -197.137697 
L 370.068332 -181.529663 
L 373.181948 -183.678365 
L 376.295564 -186.018973 
L 379.40918 -172.002114 
L 382.522796 -170.252257 
L 385.636412 -194.536707 
L 388.750028 -198.550563 
L 391.863644 -190.871576 
L 394.97726 -165.535092 
L 398.090876 -167.57942 
L 401.204492 -184.267385 
L 404.318108 -135.924185 
L 407.431724 -144.963477 
L 410.54534 -167.026183 
L 413.658956 -167.654551 
L 416.772572 -160.4776 
L 419.886188 -101.857797 
L 422.999804 -143.420762 
L 426.11342 -127.703673 
L 429.227036 -139.36875 
L 432.340652 -154.530139 
L 435.454268 -159.110372 
L 438.567884 -156.174385 
L 441.6815 -167.933653 
L 444.795116 -157.432004 
L 447.908732 -151.52992 
L 451.022348 -144.317645 
L 454.135964 -163.860161 
L 457.249581 -122.164339 
L 460.363197 -140.255843 
L 463.476813 -128.396577 
L 466.590429 -152.49127 
L 469.704045 -123.455709 
L 472.817661 -156.59864 
L 475.931277 -143.36497 
L 479.044893 -131.556889 
L 482.158509 -154.907303 
L 485.272125 -136.317228 
L 488.385741 -131.87184 
L 491.499357 -154.799061 
L 494.612973 -134.199791 
L 497.726589 -121.812568 
L 500.840205 -137.404796 
L 503.953821 -129.169616 
L 507.067437 -137.171281 
L 510.181053 -157.126137 
L 513.294669 -146.067728 
L 516.408285 -153.253107 
L 519.521901 -139.923341 
L 522.635517 -154.755481 
L 525.749133 -153.944064 
L 528.862749 -146.299625 
L 531.976365 -137.812543 
L 535.089981 -127.006546 
L 538.203597 -126.719385 
L 541.317213 -134.045495 
L 544.430829 -160.485824 
L 547.544446 -135.951129 
L 550.658062 -119.317856 
L 553.771678 -158.396936 
L 556.885294 -137.812543 
L 559.99891 -151.236429 
L 563.112526 -121.446256 
L 566.226142 -139.36875 
L 569.339758 -122.470013 
L 572.453374 -137.02991 
L 575.56699 -148.572262 
L 578.680606 -166.225606 
L 581.794222 -130.404435 
L 584.907838 -136.933438 
L 588.021454 -126.309703 
L 591.13507 -158.011506 
L 594.248686 -137.372105 
L 597.362302 -138.539858 
L 600.475918 -182.26567 
L 603.589534 -131.428915 
L 606.70315 -135.314844 
L 609.816766 -144.679577 
L 612.930382 -115.045316 
L 616.043998 -105.226128 
L 619.157614 -147.124168 
L 622.27123 -148.572262 
L 625.384846 -125.70891 
L 628.498462 -139.019469 
L 631.612078 -136.026795 
L 634.725694 -148.470325 
L 637.839311 -137.728441 
L 640.952927 -140.732508 
L 644.066543 -148.511202 
L 647.180159 -127.09494 
L 650.293775 -133.343037 
L 653.407391 -142.506513 
L 656.521007 -139.775496 
L 659.634623 -134.485953 
L 662.748239 -123.190505 
L 665.861855 -149.25289 
L 668.975471 -118.183079 
L 672.089087 -125.539371 
L 675.202703 -146.948399 
L 678.316319 -140.834849 
L 681.429935 -121.885004 
L 684.543551 -121.738106 
L 687.657167 -141.986064 
L 690.770783 -118.428786 
L 693.884399 -118.561467 
L 696.998015 -133.17403 
L 700.111631 -130.596391 
L 703.225247 -112.882505 
L 706.338863 -111.854853 
L 709.452479 -133.217414 
L 712.566095 -138.673042 
L 715.679711 -118.639528 
L 718.793327 -128.983362 
L 721.906943 -129.0216 
L 725.020559 -135.020806 
L 728.134176 -110.988448 
L 731.247792 -141.145079 
L 734.361408 -115.34723 
L 737.475024 -112.966062 
L 740.58864 -124.649896 
L 743.702256 -119.206826 
L 746.815872 -136.026795 
L 749.929488 -123.546766 
L 753.043104 -132.280346 
L 756.15672 -117.267509 
L 759.270336 -119.003826 
L 762.383952 -134.50353 
L 765.497568 -132.983578 
L 768.611184 -135.735383 
L 771.7248 -130.475627 
L 774.838416 -136.719399 
L 777.952032 -131.934043 
L 781.065648 -139.594703 
L 784.179264 -123.21107 
L 787.29288 -113.299171 
L 790.406496 -126.982802 
L 793.520112 -131.065716 
L 796.633728 -120.875551 
L 799.747344 -130.355449 
L 802.86096 -130.404435 
L 805.974576 -128.256014 
L 809.088192 -137.372105 
L 812.201808 -132.235531 
L 815.315424 -119.950359 
L 818.429041 -118.27033 
L 821.542657 -108.775088 
L 824.656273 -149.722336 
L 827.769889 -131.465864 
L 830.883505 -133.217414 
L 833.997121 -137.02991 
L 837.110737 -125.246809 
L 840.224353 -128.124141 
L 843.337969 -121.189173 
L 846.451585 -127.89598 
L 849.565201 -155.979408 
L 852.678817 -118.561467 
L 855.792433 -137.554077 
L 858.906049 -129.781568 
L 862.019665 -123.552519 
L 865.133281 -125.937684 
L 868.246897 -109.476663 
L 871.360513 -116.143925 
L 874.474129 -150.037064 
L 877.587745 -123.697967 
L 880.701361 -105.596946 
L 883.814977 -150.52025 
L 886.928593 -127.6687 
L 890.042209 -127.797045 
L 893.155825 -103.277237 
L 896.269441 -102.219052 
L 899.383057 -137.320852 
L 902.496673 -106.603778 
L 905.610289 -120.725387 
L 908.723906 -137.728441 
L 911.837522 -143.310562 
L 914.951138 -123.321104 
L 918.064754 -118.357719 
L 921.17837 -130.256713 
L 924.291986 -123.439519 
L 927.405602 -119.710123 
L 930.519218 -124.251737 
L 933.632834 -118.571315 
L 936.74645 -124.251737 
L 939.860066 -110.50134 
L 942.973682 -136.720602 
L 946.087298 -143.590632 
L 949.200914 -104.890007 
L 952.31453 -132.488381 
L 955.428146 -144.058941 
L 955.428146 -234.339207 
L 955.428146 -234.339207 
L 952.31453 -193.208992 
L 949.200914 -188.376121 
L 946.087298 -218.591893 
L 942.973682 -221.408017 
L 939.860066 -198.980411 
L 936.74645 -193.337826 
L 933.632834 -203.072153 
L 930.519218 -193.337826 
L 927.405602 -177.609911 
L 924.291986 -202.257855 
L 921.17837 -187.332849 
L 918.064754 -199.231843 
L 914.951138 -198.322364 
L 911.837522 -222.925868 
L 908.723906 -216.346272 
L 905.610289 -209.025892 
L 902.496673 -182.608445 
L 899.383057 -212.699955 
L 896.269441 -178.88536 
L 893.155825 -161.611551 
L 890.042209 -193.846423 
L 886.928593 -222.352108 
L 883.814977 -199.500558 
L 880.701361 -207.938711 
L 877.587745 -222.268935 
L 874.474129 -212.145461 
L 871.360513 -185.230014 
L 868.246897 -191.897277 
L 865.133281 -195.705784 
L 862.019665 -189.983138 
L 858.906049 -208.077523 
L 855.792433 -232.73626 
L 852.678817 -186.866378 
L 849.565201 -250.796079 
L 846.451585 -205.909205 
L 843.337969 -212.616012 
L 840.224353 -189.465422 
L 837.110737 -204.50447 
L 833.997121 -208.936992 
L 830.883505 -196.533866 
L 827.769889 -194.23151 
L 824.656273 -220.568 
L 821.542657 -176.383229 
L 818.429041 -195.265327 
L 815.315424 -197.639203 
L 812.201808 -197.515749 
L 809.088192 -224.81042 
L 805.974576 -177.171831 
L 802.86096 -203.40075 
L 799.747344 -199.395831 
L 796.633728 -200.767918 
L 793.520112 -223.008997 
L 790.406496 -174.391138 
L 787.29288 -179.966958 
L 784.179264 -226.809738 
L 781.065648 -222.587822 
L 777.952032 -230.248482 
L 774.838416 -229.517031 
L 771.7248 -195.221747 
L 768.611184 -242.662765 
L 765.497568 -188.65989 
L 762.383952 -260.11024 
L 759.270336 -182.370114 
L 756.15672 -220.591581 
L 753.043104 -205.578745 
L 749.929488 -181.88108 
L 746.815872 -197.77839 
L 743.702256 -190.274925 
L 740.58864 -180.77795 
L 737.475024 -208.677406 
L 734.361408 -202.242333 
L 731.247792 -221.037446 
L 728.134176 -214.708925 
L 725.020559 -198.784379 
L 721.906943 -220.999208 
L 718.793327 -208.875729 
L 715.679711 -178.680507 
L 712.566095 -191.078237 
L 709.452479 -196.533866 
L 706.338863 -205.73471 
L 703.225247 -184.43753 
L 700.111631 -207.2627 
L 696.998015 -220.900684 
L 693.884399 -186.866378 
L 690.770783 -174.837342 
L 687.657167 -252.627706 
L 684.543551 -216.120985 
L 681.429935 -211.920181 
L 678.316319 -209.185959 
L 675.202703 -243.611465 
L 672.089087 -208.265814 
L 668.975471 -207.514295 
L 665.861855 -229.145257 
L 662.748239 -174.129529 
L 659.634623 -211.48095 
L 656.521007 -202.1375 
L 653.407391 -231.837729 
L 650.293775 -216.677771 
L 647.180159 -206.710245 
L 644.066543 -233.940852 
L 640.952927 -205.234394 
L 637.839311 -216.346272 
L 634.725694 -229.927823 
L 631.612078 -197.77839 
L 628.498462 -219.10915 
L 625.384846 -224.311897 
L 622.27123 -225.771979 
L 619.157614 -215.058357 
L 616.043998 -179.932189 
L 612.930382 -190.38253 
L 609.816766 -229.664664 
L 606.70315 -210.652058 
L 603.589534 -206.430176 
L 600.475918 -244.779346 
L 597.362302 -215.534855 
L 594.248686 -224.81042 
L 591.13507 -232.548358 
L 588.021454 -207.495482 
L 584.907838 -217.141275 
L 581.794222 -203.40075 
L 578.680606 -216.226447 
L 575.56699 -225.771979 
L 572.453374 -208.936992 
L 569.339758 -195.11955 
L 566.226142 -214.705964 
L 563.112526 -208.305024 
L 559.99891 -215.000002 
L 556.885294 -204.100454 
L 553.771678 -256.486362 
L 550.658062 -210.433424 
L 547.544446 -226.231396 
L 544.430829 -234.127946 
L 541.317213 -203.813596 
L 538.203597 -231.409234 
L 535.089981 -223.014262 
L 531.976365 -204.100454 
L 528.862749 -244.26024 
L 525.749133 -232.561895 
L 522.635517 -231.750478 
L 519.521901 -210.097467 
L 516.408285 -208.929418 
L 513.294669 -199.899175 
L 510.181053 -257.757161 
L 507.067437 -237.172961 
L 503.953821 -237.066815 
L 500.840205 -228.831635 
L 497.726589 -224.154334 
L 494.612973 -207.713205 
L 491.499357 -219.545181 
L 488.385741 -189.771628 
L 485.272125 -262.350447 
L 482.158509 -239.706467 
L 479.044893 -263.056881 
L 475.931277 -235.033177 
L 472.817661 -262.338564 
L 469.704045 -230.619004 
L 466.590429 -238.068595 
L 463.476813 -225.678137 
L 460.363197 -225.980588 
L 457.249581 -300.826771 
L 454.135964 -238.861421 
L 451.022348 -250.296125 
L 447.908732 -287.676813 
L 444.795116 -273.666917 
L 441.6815 -287.488702 
L 438.567884 -222.223763 
L 435.454268 -243.611209 
L 432.340652 -268.460971 
L 429.227036 -214.705964 
L 426.11342 -218.263229 
L 422.999804 -267.408631 
L 419.886188 -268.432539 
L 416.772572 -294.944755 
L 413.658956 -267.498276 
L 410.54534 -268.126644 
L 407.431724 -237.488576 
L 404.318108 -238.420057 
L 401.204492 -246.831536 
L 398.090876 -275.681218 
L 394.97726 -261.509923 
L 391.863644 -280.766402 
L 388.750028 -273.087415 
L 385.636412 -297.370799 
L 382.522796 -260.846664 
L 379.40918 -295.581958 
L 376.295564 -273.457288 
L 373.181948 -292.013519 
L 370.068332 -318.485655 
L 366.954716 -302.87762 
L 363.841099 -278.763698 
L 360.727483 -303.073652 
L 357.613867 -318.485655 
L 354.500251 -321.861083 
L 351.386635 -293.734462 
L 348.273019 -321.861083 
L 345.159403 -309.000027 
L 342.045787 -358.425397 
L 338.932171 -311.706429 
L 335.818555 -325.794376 
L 332.704939 -326.670346 
L 329.591323 -350.105265 
L 326.477707 -338.992209 
L 323.364091 -375.48536 
L 320.250475 -362.154701 
L 317.136859 -347.124053 
L 314.023243 -362.433075 
L 310.909627 -389.182722 
L 307.796011 -374.641019 
L 304.682395 -346.319605 
L 301.568779 -415.072456 
L 298.455163 -376.644602 
L 295.341547 -412.653303 
L 292.227931 -354.248376 
L 289.114315 -438.07398 
L 286.000699 -389.110923 
L 282.887083 -396.257099 
L 279.773467 -382.220801 
L 276.659851 -390.078141 
L 273.546235 -361.402091 
L 270.432618 -403.63801 
L 267.319002 -406.87249 
L 264.205386 -421.425801 
L 261.09177 -402.849992 
L 257.978154 -431.06677 
L 254.864538 -447.763019 
L 251.750922 -444.107778 
L 248.637306 -459.182633 
L 245.52369 -429.505021 
L 242.410074 -424.375844 
L 239.296458 -450.029327 
L 236.182842 -459.748954 
L 233.069226 -461.295593 
L 229.95561 -479.565677 
L 226.841994 -463.013206 
L 223.728378 -458.646809 
L 220.614762 -460.372353 
L 217.501146 -446.161235 
L 214.38753 -458.423197 
L 211.273914 -466.082592 
L 208.160298 -488.307977 
L 205.046682 -438.626722 
L 201.933066 -432.815262 
L 198.81945 -470.926583 
L 195.705834 -487.285126 
L 192.592218 -507.086639 
L 189.478602 -447.3272 
L 186.364986 -474.91145 
L 183.25137 -455.087231 
L 180.137753 -470.159004 
L 177.024137 -482.77969 
z
" style="stroke: #2ca02c; stroke-opacity: 0.2"/>
    </defs>
    <g clip-path="url(#p2272369bc7)">
     <use xlink:href="#m5ac5f286f0" x="0" y="614.994094" style="fill: #2ca02c; fill-opacity: 0.2; stroke: #2ca02c; stroke-opacity: 0.2"/>
    </g>
   </g>
   <g id="matplotlib.axis_1">
    <g id="xtick_1">
     <g id="line2d_1">
      <path d="M 177.024137 547.344744 
L 177.024137 73.799291 
" clip-path="url(#p2272369bc7)" style="fill: none; stroke: #b0b0b0; stroke-opacity: 0.2; stroke-width: 0.8; stroke-linecap: square"/>
     </g>
     <g id="line2d_2">
      <defs>
       <path id="mdbd2c96502" d="M 0 0 
L 0 0.1 
" style="stroke: #000000; stroke-width: 0.1"/>
      </defs>
      <g>
       <use xlink:href="#mdbd2c96502" x="177.024137" y="557.344744" style="stroke: #000000; stroke-width: 0.1"/>
      </g>
     </g>
     <g id="text_1">
      <!-- 0 -->
      <g transform="translate(171.526937 574.074844) scale(0.1728 -0.1728)">
       <defs>
        <path id="DejaVuSans-30" d="M 2034 4250 
Q 1547 4250 1301 3770 
Q 1056 3291 1056 2328 
Q 1056 1369 1301 889 
Q 1547 409 2034 409 
Q 2525 409 2770 889 
Q 3016 1369 3016 2328 
Q 3016 3291 2770 3770 
Q 2525 4250 2034 4250 
z
M 2034 4750 
Q 2819 4750 3233 4129 
Q 3647 3509 3647 2328 
Q 3647 1150 3233 529 
Q 2819 -91 2034 -91 
Q 1250 -91 836 529 
Q 422 1150 422 2328 
Q 422 3509 836 4129 
Q 1250 4750 2034 4750 
z
" transform="scale(0.015625)"/>
       </defs>
       <use xlink:href="#DejaVuSans-30"/>
      </g>
     </g>
    </g>
    <g id="xtick_2">
     <g id="line2d_3">
      <path d="M 299.126727 547.344744 
L 299.126727 73.799291 
" clip-path="url(#p2272369bc7)" style="fill: none; stroke: #b0b0b0; stroke-opacity: 0.2; stroke-width: 0.8; stroke-linecap: square"/>
     </g>
     <g id="line2d_4">
      <g>
       <use xlink:href="#mdbd2c96502" x="299.126727" y="557.344744" style="stroke: #000000; stroke-width: 0.1"/>
      </g>
     </g>
     <g id="text_2">
      <!-- 50000 -->
      <g transform="translate(271.640727 574.074844) scale(0.1728 -0.1728)">
       <defs>
        <path id="DejaVuSans-35" d="M 691 4666 
L 3169 4666 
L 3169 4134 
L 1269 4134 
L 1269 2991 
Q 1406 3038 1543 3061 
Q 1681 3084 1819 3084 
Q 2600 3084 3056 2656 
Q 3513 2228 3513 1497 
Q 3513 744 3044 326 
Q 2575 -91 1722 -91 
Q 1428 -91 1123 -41 
Q 819 9 494 109 
L 494 744 
Q 775 591 1075 516 
Q 1375 441 1709 441 
Q 2250 441 2565 725 
Q 2881 1009 2881 1497 
Q 2881 1984 2565 2268 
Q 2250 2553 1709 2553 
Q 1456 2553 1204 2497 
Q 953 2441 691 2322 
L 691 4666 
z
" transform="scale(0.015625)"/>
       </defs>
       <use xlink:href="#DejaVuSans-35"/>
       <use xlink:href="#DejaVuSans-30" transform="translate(63.623047 0)"/>
       <use xlink:href="#DejaVuSans-30" transform="translate(127.246094 0)"/>
       <use xlink:href="#DejaVuSans-30" transform="translate(190.869141 0)"/>
       <use xlink:href="#DejaVuSans-30" transform="translate(254.492188 0)"/>
      </g>
     </g>
    </g>
    <g id="xtick_3">
     <g id="line2d_5">
      <path d="M 421.229317 547.344744 
L 421.229317 73.799291 
" clip-path="url(#p2272369bc7)" style="fill: none; stroke: #b0b0b0; stroke-opacity: 0.2; stroke-width: 0.8; stroke-linecap: square"/>
     </g>
     <g id="line2d_6">
      <g>
       <use xlink:href="#mdbd2c96502" x="421.229317" y="557.344744" style="stroke: #000000; stroke-width: 0.1"/>
      </g>
     </g>
     <g id="text_3">
      <!-- 100000 -->
      <g transform="translate(388.246117 574.074844) scale(0.1728 -0.1728)">
       <defs>
        <path id="DejaVuSans-31" d="M 794 531 
L 1825 531 
L 1825 4091 
L 703 3866 
L 703 4441 
L 1819 4666 
L 2450 4666 
L 2450 531 
L 3481 531 
L 3481 0 
L 794 0 
L 794 531 
z
" transform="scale(0.015625)"/>
       </defs>
       <use xlink:href="#DejaVuSans-31"/>
       <use xlink:href="#DejaVuSans-30" transform="translate(63.623047 0)"/>
       <use xlink:href="#DejaVuSans-30" transform="translate(127.246094 0)"/>
       <use xlink:href="#DejaVuSans-30" transform="translate(190.869141 0)"/>
       <use xlink:href="#DejaVuSans-30" transform="translate(254.492188 0)"/>
       <use xlink:href="#DejaVuSans-30" transform="translate(318.115234 0)"/>
      </g>
     </g>
    </g>
    <g id="xtick_4">
     <g id="line2d_7">
      <path d="M 543.331906 547.344744 
L 543.331906 73.799291 
" clip-path="url(#p2272369bc7)" style="fill: none; stroke: #b0b0b0; stroke-opacity: 0.2; stroke-width: 0.8; stroke-linecap: square"/>
     </g>
     <g id="line2d_8">
      <g>
       <use xlink:href="#mdbd2c96502" x="543.331906" y="557.344744" style="stroke: #000000; stroke-width: 0.1"/>
      </g>
     </g>
     <g id="text_4">
      <!-- 150000 -->
      <g transform="translate(510.348706 574.074844) scale(0.1728 -0.1728)">
       <use xlink:href="#DejaVuSans-31"/>
       <use xlink:href="#DejaVuSans-35" transform="translate(63.623047 0)"/>
       <use xlink:href="#DejaVuSans-30" transform="translate(127.246094 0)"/>
       <use xlink:href="#DejaVuSans-30" transform="translate(190.869141 0)"/>
       <use xlink:href="#DejaVuSans-30" transform="translate(254.492188 0)"/>
       <use xlink:href="#DejaVuSans-30" transform="translate(318.115234 0)"/>
      </g>
     </g>
    </g>
    <g id="xtick_5">
     <g id="line2d_9">
      <path d="M 665.434496 547.344744 
L 665.434496 73.799291 
" clip-path="url(#p2272369bc7)" style="fill: none; stroke: #b0b0b0; stroke-opacity: 0.2; stroke-width: 0.8; stroke-linecap: square"/>
     </g>
     <g id="line2d_10">
      <g>
       <use xlink:href="#mdbd2c96502" x="665.434496" y="557.344744" style="stroke: #000000; stroke-width: 0.1"/>
      </g>
     </g>
     <g id="text_5">
      <!-- 200000 -->
      <g transform="translate(632.451296 574.074844) scale(0.1728 -0.1728)">
       <defs>
        <path id="DejaVuSans-32" d="M 1228 531 
L 3431 531 
L 3431 0 
L 469 0 
L 469 531 
Q 828 903 1448 1529 
Q 2069 2156 2228 2338 
Q 2531 2678 2651 2914 
Q 2772 3150 2772 3378 
Q 2772 3750 2511 3984 
Q 2250 4219 1831 4219 
Q 1534 4219 1204 4116 
Q 875 4013 500 3803 
L 500 4441 
Q 881 4594 1212 4672 
Q 1544 4750 1819 4750 
Q 2544 4750 2975 4387 
Q 3406 4025 3406 3419 
Q 3406 3131 3298 2873 
Q 3191 2616 2906 2266 
Q 2828 2175 2409 1742 
Q 1991 1309 1228 531 
z
" transform="scale(0.015625)"/>
       </defs>
       <use xlink:href="#DejaVuSans-32"/>
       <use xlink:href="#DejaVuSans-30" transform="translate(63.623047 0)"/>
       <use xlink:href="#DejaVuSans-30" transform="translate(127.246094 0)"/>
       <use xlink:href="#DejaVuSans-30" transform="translate(190.869141 0)"/>
       <use xlink:href="#DejaVuSans-30" transform="translate(254.492188 0)"/>
       <use xlink:href="#DejaVuSans-30" transform="translate(318.115234 0)"/>
      </g>
     </g>
    </g>
    <g id="xtick_6">
     <g id="line2d_11">
      <path d="M 787.537085 547.344744 
L 787.537085 73.799291 
" clip-path="url(#p2272369bc7)" style="fill: none; stroke: #b0b0b0; stroke-opacity: 0.2; stroke-width: 0.8; stroke-linecap: square"/>
     </g>
     <g id="line2d_12">
      <g>
       <use xlink:href="#mdbd2c96502" x="787.537085" y="557.344744" style="stroke: #000000; stroke-width: 0.1"/>
      </g>
     </g>
     <g id="text_6">
      <!-- 250000 -->
      <g transform="translate(754.553885 574.074844) scale(0.1728 -0.1728)">
       <use xlink:href="#DejaVuSans-32"/>
       <use xlink:href="#DejaVuSans-35" transform="translate(63.623047 0)"/>
       <use xlink:href="#DejaVuSans-30" transform="translate(127.246094 0)"/>
       <use xlink:href="#DejaVuSans-30" transform="translate(190.869141 0)"/>
       <use xlink:href="#DejaVuSans-30" transform="translate(254.492188 0)"/>
       <use xlink:href="#DejaVuSans-30" transform="translate(318.115234 0)"/>
      </g>
     </g>
    </g>
    <g id="xtick_7">
     <g id="line2d_13">
      <path d="M 909.639675 547.344744 
L 909.639675 73.799291 
" clip-path="url(#p2272369bc7)" style="fill: none; stroke: #b0b0b0; stroke-opacity: 0.2; stroke-width: 0.8; stroke-linecap: square"/>
     </g>
     <g id="line2d_14">
      <g>
       <use xlink:href="#mdbd2c96502" x="909.639675" y="557.344744" style="stroke: #000000; stroke-width: 0.1"/>
      </g>
     </g>
     <g id="text_7">
      <!-- 300000 -->
      <g transform="translate(876.656475 574.074844) scale(0.1728 -0.1728)">
       <defs>
        <path id="DejaVuSans-33" d="M 2597 2516 
Q 3050 2419 3304 2112 
Q 3559 1806 3559 1356 
Q 3559 666 3084 287 
Q 2609 -91 1734 -91 
Q 1441 -91 1130 -33 
Q 819 25 488 141 
L 488 750 
Q 750 597 1062 519 
Q 1375 441 1716 441 
Q 2309 441 2620 675 
Q 2931 909 2931 1356 
Q 2931 1769 2642 2001 
Q 2353 2234 1838 2234 
L 1294 2234 
L 1294 2753 
L 1863 2753 
Q 2328 2753 2575 2939 
Q 2822 3125 2822 3475 
Q 2822 3834 2567 4026 
Q 2313 4219 1838 4219 
Q 1578 4219 1281 4162 
Q 984 4106 628 3988 
L 628 4550 
Q 988 4650 1302 4700 
Q 1616 4750 1894 4750 
Q 2613 4750 3031 4423 
Q 3450 4097 3450 3541 
Q 3450 3153 3228 2886 
Q 3006 2619 2597 2516 
z
" transform="scale(0.015625)"/>
       </defs>
       <use xlink:href="#DejaVuSans-33"/>
       <use xlink:href="#DejaVuSans-30" transform="translate(63.623047 0)"/>
       <use xlink:href="#DejaVuSans-30" transform="translate(127.246094 0)"/>
       <use xlink:href="#DejaVuSans-30" transform="translate(190.869141 0)"/>
       <use xlink:href="#DejaVuSans-30" transform="translate(254.492188 0)"/>
       <use xlink:href="#DejaVuSans-30" transform="translate(318.115234 0)"/>
      </g>
     </g>
    </g>
    <g id="text_8">
     <!-- Timesteps -->
     <g transform="translate(521.896192 594.798644) scale(0.1728 -0.1728)">
      <defs>
       <path id="DejaVuSans-54" d="M -19 4666 
L 3928 4666 
L 3928 4134 
L 2272 4134 
L 2272 0 
L 1638 0 
L 1638 4134 
L -19 4134 
L -19 4666 
z
" transform="scale(0.015625)"/>
       <path id="DejaVuSans-69" d="M 603 3500 
L 1178 3500 
L 1178 0 
L 603 0 
L 603 3500 
z
M 603 4863 
L 1178 4863 
L 1178 4134 
L 603 4134 
L 603 4863 
z
" transform="scale(0.015625)"/>
       <path id="DejaVuSans-6d" d="M 3328 2828 
Q 3544 3216 3844 3400 
Q 4144 3584 4550 3584 
Q 5097 3584 5394 3201 
Q 5691 2819 5691 2113 
L 5691 0 
L 5113 0 
L 5113 2094 
Q 5113 2597 4934 2840 
Q 4756 3084 4391 3084 
Q 3944 3084 3684 2787 
Q 3425 2491 3425 1978 
L 3425 0 
L 2847 0 
L 2847 2094 
Q 2847 2600 2669 2842 
Q 2491 3084 2119 3084 
Q 1678 3084 1418 2786 
Q 1159 2488 1159 1978 
L 1159 0 
L 581 0 
L 581 3500 
L 1159 3500 
L 1159 2956 
Q 1356 3278 1631 3431 
Q 1906 3584 2284 3584 
Q 2666 3584 2933 3390 
Q 3200 3197 3328 2828 
z
" transform="scale(0.015625)"/>
       <path id="DejaVuSans-65" d="M 3597 1894 
L 3597 1613 
L 953 1613 
Q 991 1019 1311 708 
Q 1631 397 2203 397 
Q 2534 397 2845 478 
Q 3156 559 3463 722 
L 3463 178 
Q 3153 47 2828 -22 
Q 2503 -91 2169 -91 
Q 1331 -91 842 396 
Q 353 884 353 1716 
Q 353 2575 817 3079 
Q 1281 3584 2069 3584 
Q 2775 3584 3186 3129 
Q 3597 2675 3597 1894 
z
M 3022 2063 
Q 3016 2534 2758 2815 
Q 2500 3097 2075 3097 
Q 1594 3097 1305 2825 
Q 1016 2553 972 2059 
L 3022 2063 
z
" transform="scale(0.015625)"/>
       <path id="DejaVuSans-73" d="M 2834 3397 
L 2834 2853 
Q 2591 2978 2328 3040 
Q 2066 3103 1784 3103 
Q 1356 3103 1142 2972 
Q 928 2841 928 2578 
Q 928 2378 1081 2264 
Q 1234 2150 1697 2047 
L 1894 2003 
Q 2506 1872 2764 1633 
Q 3022 1394 3022 966 
Q 3022 478 2636 193 
Q 2250 -91 1575 -91 
Q 1294 -91 989 -36 
Q 684 19 347 128 
L 347 722 
Q 666 556 975 473 
Q 1284 391 1588 391 
Q 1994 391 2212 530 
Q 2431 669 2431 922 
Q 2431 1156 2273 1281 
Q 2116 1406 1581 1522 
L 1381 1569 
Q 847 1681 609 1914 
Q 372 2147 372 2553 
Q 372 3047 722 3315 
Q 1072 3584 1716 3584 
Q 2034 3584 2315 3537 
Q 2597 3491 2834 3397 
z
" transform="scale(0.015625)"/>
       <path id="DejaVuSans-74" d="M 1172 4494 
L 1172 3500 
L 2356 3500 
L 2356 3053 
L 1172 3053 
L 1172 1153 
Q 1172 725 1289 603 
Q 1406 481 1766 481 
L 2356 481 
L 2356 0 
L 1766 0 
Q 1100 0 847 248 
Q 594 497 594 1153 
L 594 3053 
L 172 3053 
L 172 3500 
L 594 3500 
L 594 4494 
L 1172 4494 
z
" transform="scale(0.015625)"/>
       <path id="DejaVuSans-70" d="M 1159 525 
L 1159 -1331 
L 581 -1331 
L 581 3500 
L 1159 3500 
L 1159 2969 
Q 1341 3281 1617 3432 
Q 1894 3584 2278 3584 
Q 2916 3584 3314 3078 
Q 3713 2572 3713 1747 
Q 3713 922 3314 415 
Q 2916 -91 2278 -91 
Q 1894 -91 1617 61 
Q 1341 213 1159 525 
z
M 3116 1747 
Q 3116 2381 2855 2742 
Q 2594 3103 2138 3103 
Q 1681 3103 1420 2742 
Q 1159 2381 1159 1747 
Q 1159 1113 1420 752 
Q 1681 391 2138 391 
Q 2594 391 2855 752 
Q 3116 1113 3116 1747 
z
" transform="scale(0.015625)"/>
      </defs>
      <use xlink:href="#DejaVuSans-54"/>
      <use xlink:href="#DejaVuSans-69" transform="translate(57.958984 0)"/>
      <use xlink:href="#DejaVuSans-6d" transform="translate(85.742188 0)"/>
      <use xlink:href="#DejaVuSans-65" transform="translate(183.154297 0)"/>
      <use xlink:href="#DejaVuSans-73" transform="translate(244.677734 0)"/>
      <use xlink:href="#DejaVuSans-74" transform="translate(296.777344 0)"/>
      <use xlink:href="#DejaVuSans-65" transform="translate(335.986328 0)"/>
      <use xlink:href="#DejaVuSans-70" transform="translate(397.509766 0)"/>
      <use xlink:href="#DejaVuSans-73" transform="translate(460.986328 0)"/>
     </g>
    </g>
   </g>
   <g id="matplotlib.axis_2">
    <g id="ytick_1">
     <g id="line2d_15">
      <path d="M 138.103937 541.331332 
L 994.348346 541.331332 
" clip-path="url(#p2272369bc7)" style="fill: none; stroke: #b0b0b0; stroke-opacity: 0.2; stroke-width: 0.8; stroke-linecap: square"/>
     </g>
     <g id="line2d_16">
      <defs>
       <path id="md094c8ceb0" d="M 0 0 
L -0.1 0 
" style="stroke: #000000; stroke-width: 0.1"/>
      </defs>
      <g>
       <use xlink:href="#md094c8ceb0" x="128.103937" y="541.331332" style="stroke: #000000; stroke-width: 0.1"/>
      </g>
     </g>
     <g id="text_9">
      <!-- 1.0 -->
      <g transform="translate(82.543237 547.896382) scale(0.1728 -0.1728)">
       <defs>
        <path id="DejaVuSans-2212" d="M 678 2272 
L 4684 2272 
L 4684 1741 
L 678 1741 
L 678 2272 
z
" transform="scale(0.015625)"/>
        <path id="DejaVuSans-2e" d="M 684 794 
L 1344 794 
L 1344 0 
L 684 0 
L 684 794 
z
" transform="scale(0.015625)"/>
       </defs>
       <use xlink:href="#DejaVuSans-2212"/>
       <use xlink:href="#DejaVuSans-31" transform="translate(83.789062 0)"/>
       <use xlink:href="#DejaVuSans-2e" transform="translate(147.412109 0)"/>
       <use xlink:href="#DejaVuSans-30" transform="translate(179.199219 0)"/>
      </g>
     </g>
    </g>
    <g id="ytick_2">
     <g id="line2d_17">
      <path d="M 138.103937 460.253219 
L 994.348346 460.253219 
" clip-path="url(#p2272369bc7)" style="fill: none; stroke: #b0b0b0; stroke-opacity: 0.2; stroke-width: 0.8; stroke-linecap: square"/>
     </g>
     <g id="line2d_18">
      <g>
       <use xlink:href="#md094c8ceb0" x="128.103937" y="460.253219" style="stroke: #000000; stroke-width: 0.1"/>
      </g>
     </g>
     <g id="text_10">
      <!-- 0.8 -->
      <g transform="translate(82.543237 466.818269) scale(0.1728 -0.1728)">
       <defs>
        <path id="DejaVuSans-38" d="M 2034 2216 
Q 1584 2216 1326 1975 
Q 1069 1734 1069 1313 
Q 1069 891 1326 650 
Q 1584 409 2034 409 
Q 2484 409 2743 651 
Q 3003 894 3003 1313 
Q 3003 1734 2745 1975 
Q 2488 2216 2034 2216 
z
M 1403 2484 
Q 997 2584 770 2862 
Q 544 3141 544 3541 
Q 544 4100 942 4425 
Q 1341 4750 2034 4750 
Q 2731 4750 3128 4425 
Q 3525 4100 3525 3541 
Q 3525 3141 3298 2862 
Q 3072 2584 2669 2484 
Q 3125 2378 3379 2068 
Q 3634 1759 3634 1313 
Q 3634 634 3220 271 
Q 2806 -91 2034 -91 
Q 1263 -91 848 271 
Q 434 634 434 1313 
Q 434 1759 690 2068 
Q 947 2378 1403 2484 
z
M 1172 3481 
Q 1172 3119 1398 2916 
Q 1625 2713 2034 2713 
Q 2441 2713 2670 2916 
Q 2900 3119 2900 3481 
Q 2900 3844 2670 4047 
Q 2441 4250 2034 4250 
Q 1625 4250 1398 4047 
Q 1172 3844 1172 3481 
z
" transform="scale(0.015625)"/>
       </defs>
       <use xlink:href="#DejaVuSans-2212"/>
       <use xlink:href="#DejaVuSans-30" transform="translate(83.789062 0)"/>
       <use xlink:href="#DejaVuSans-2e" transform="translate(147.412109 0)"/>
       <use xlink:href="#DejaVuSans-38" transform="translate(179.199219 0)"/>
      </g>
     </g>
    </g>
    <g id="ytick_3">
     <g id="line2d_19">
      <path d="M 138.103937 379.175106 
L 994.348346 379.175106 
" clip-path="url(#p2272369bc7)" style="fill: none; stroke: #b0b0b0; stroke-opacity: 0.2; stroke-width: 0.8; stroke-linecap: square"/>
     </g>
     <g id="line2d_20">
      <g>
       <use xlink:href="#md094c8ceb0" x="128.103937" y="379.175106" style="stroke: #000000; stroke-width: 0.1"/>
      </g>
     </g>
     <g id="text_11">
      <!-- 0.6 -->
      <g transform="translate(82.543237 385.740156) scale(0.1728 -0.1728)">
       <defs>
        <path id="DejaVuSans-36" d="M 2113 2584 
Q 1688 2584 1439 2293 
Q 1191 2003 1191 1497 
Q 1191 994 1439 701 
Q 1688 409 2113 409 
Q 2538 409 2786 701 
Q 3034 994 3034 1497 
Q 3034 2003 2786 2293 
Q 2538 2584 2113 2584 
z
M 3366 4563 
L 3366 3988 
Q 3128 4100 2886 4159 
Q 2644 4219 2406 4219 
Q 1781 4219 1451 3797 
Q 1122 3375 1075 2522 
Q 1259 2794 1537 2939 
Q 1816 3084 2150 3084 
Q 2853 3084 3261 2657 
Q 3669 2231 3669 1497 
Q 3669 778 3244 343 
Q 2819 -91 2113 -91 
Q 1303 -91 875 529 
Q 447 1150 447 2328 
Q 447 3434 972 4092 
Q 1497 4750 2381 4750 
Q 2619 4750 2861 4703 
Q 3103 4656 3366 4563 
z
" transform="scale(0.015625)"/>
       </defs>
       <use xlink:href="#DejaVuSans-2212"/>
       <use xlink:href="#DejaVuSans-30" transform="translate(83.789062 0)"/>
       <use xlink:href="#DejaVuSans-2e" transform="translate(147.412109 0)"/>
       <use xlink:href="#DejaVuSans-36" transform="translate(179.199219 0)"/>
      </g>
     </g>
    </g>
    <g id="ytick_4">
     <g id="line2d_21">
      <path d="M 138.103937 298.096992 
L 994.348346 298.096992 
" clip-path="url(#p2272369bc7)" style="fill: none; stroke: #b0b0b0; stroke-opacity: 0.2; stroke-width: 0.8; stroke-linecap: square"/>
     </g>
     <g id="line2d_22">
      <g>
       <use xlink:href="#md094c8ceb0" x="128.103937" y="298.096992" style="stroke: #000000; stroke-width: 0.1"/>
      </g>
     </g>
     <g id="text_12">
      <!-- 0.4 -->
      <g transform="translate(82.543237 304.662042) scale(0.1728 -0.1728)">
       <defs>
        <path id="DejaVuSans-34" d="M 2419 4116 
L 825 1625 
L 2419 1625 
L 2419 4116 
z
M 2253 4666 
L 3047 4666 
L 3047 1625 
L 3713 1625 
L 3713 1100 
L 3047 1100 
L 3047 0 
L 2419 0 
L 2419 1100 
L 313 1100 
L 313 1709 
L 2253 4666 
z
" transform="scale(0.015625)"/>
       </defs>
       <use xlink:href="#DejaVuSans-2212"/>
       <use xlink:href="#DejaVuSans-30" transform="translate(83.789062 0)"/>
       <use xlink:href="#DejaVuSans-2e" transform="translate(147.412109 0)"/>
       <use xlink:href="#DejaVuSans-34" transform="translate(179.199219 0)"/>
      </g>
     </g>
    </g>
    <g id="ytick_5">
     <g id="line2d_23">
      <path d="M 138.103937 217.018879 
L 994.348346 217.018879 
" clip-path="url(#p2272369bc7)" style="fill: none; stroke: #b0b0b0; stroke-opacity: 0.2; stroke-width: 0.8; stroke-linecap: square"/>
     </g>
     <g id="line2d_24">
      <g>
       <use xlink:href="#md094c8ceb0" x="128.103937" y="217.018879" style="stroke: #000000; stroke-width: 0.1"/>
      </g>
     </g>
     <g id="text_13">
      <!-- 0.2 -->
      <g transform="translate(82.543237 223.583929) scale(0.1728 -0.1728)">
       <use xlink:href="#DejaVuSans-2212"/>
       <use xlink:href="#DejaVuSans-30" transform="translate(83.789062 0)"/>
       <use xlink:href="#DejaVuSans-2e" transform="translate(147.412109 0)"/>
       <use xlink:href="#DejaVuSans-32" transform="translate(179.199219 0)"/>
      </g>
     </g>
    </g>
    <g id="ytick_6">
     <g id="line2d_25">
      <path d="M 138.103937 135.940765 
L 994.348346 135.940765 
" clip-path="url(#p2272369bc7)" style="fill: none; stroke: #b0b0b0; stroke-opacity: 0.2; stroke-width: 0.8; stroke-linecap: square"/>
     </g>
     <g id="line2d_26">
      <g>
       <use xlink:href="#md094c8ceb0" x="128.103937" y="135.940765" style="stroke: #000000; stroke-width: 0.1"/>
      </g>
     </g>
     <g id="text_14">
      <!-- 0.0 -->
      <g transform="translate(97.023337 142.505815) scale(0.1728 -0.1728)">
       <use xlink:href="#DejaVuSans-30"/>
       <use xlink:href="#DejaVuSans-2e" transform="translate(63.623047 0)"/>
       <use xlink:href="#DejaVuSans-30" transform="translate(95.410156 0)"/>
      </g>
     </g>
    </g>
    <g id="text_15">
     <!-- Frog return -->
     <g transform="translate(74.949537 358.202718) rotate(-90) scale(0.1728 -0.1728)">
      <defs>
       <path id="DejaVuSans-46" d="M 628 4666 
L 3309 4666 
L 3309 4134 
L 1259 4134 
L 1259 2759 
L 3109 2759 
L 3109 2228 
L 1259 2228 
L 1259 0 
L 628 0 
L 628 4666 
z
" transform="scale(0.015625)"/>
       <path id="DejaVuSans-72" d="M 2631 2963 
Q 2534 3019 2420 3045 
Q 2306 3072 2169 3072 
Q 1681 3072 1420 2755 
Q 1159 2438 1159 1844 
L 1159 0 
L 581 0 
L 581 3500 
L 1159 3500 
L 1159 2956 
Q 1341 3275 1631 3429 
Q 1922 3584 2338 3584 
Q 2397 3584 2469 3576 
Q 2541 3569 2628 3553 
L 2631 2963 
z
" transform="scale(0.015625)"/>
       <path id="DejaVuSans-6f" d="M 1959 3097 
Q 1497 3097 1228 2736 
Q 959 2375 959 1747 
Q 959 1119 1226 758 
Q 1494 397 1959 397 
Q 2419 397 2687 759 
Q 2956 1122 2956 1747 
Q 2956 2369 2687 2733 
Q 2419 3097 1959 3097 
z
M 1959 3584 
Q 2709 3584 3137 3096 
Q 3566 2609 3566 1747 
Q 3566 888 3137 398 
Q 2709 -91 1959 -91 
Q 1206 -91 779 398 
Q 353 888 353 1747 
Q 353 2609 779 3096 
Q 1206 3584 1959 3584 
z
" transform="scale(0.015625)"/>
       <path id="DejaVuSans-67" d="M 2906 1791 
Q 2906 2416 2648 2759 
Q 2391 3103 1925 3103 
Q 1463 3103 1205 2759 
Q 947 2416 947 1791 
Q 947 1169 1205 825 
Q 1463 481 1925 481 
Q 2391 481 2648 825 
Q 2906 1169 2906 1791 
z
M 3481 434 
Q 3481 -459 3084 -895 
Q 2688 -1331 1869 -1331 
Q 1566 -1331 1297 -1286 
Q 1028 -1241 775 -1147 
L 775 -588 
Q 1028 -725 1275 -790 
Q 1522 -856 1778 -856 
Q 2344 -856 2625 -561 
Q 2906 -266 2906 331 
L 2906 616 
Q 2728 306 2450 153 
Q 2172 0 1784 0 
Q 1141 0 747 490 
Q 353 981 353 1791 
Q 353 2603 747 3093 
Q 1141 3584 1784 3584 
Q 2172 3584 2450 3431 
Q 2728 3278 2906 2969 
L 2906 3500 
L 3481 3500 
L 3481 434 
z
" transform="scale(0.015625)"/>
       <path id="DejaVuSans-20" transform="scale(0.015625)"/>
       <path id="DejaVuSans-75" d="M 544 1381 
L 544 3500 
L 1119 3500 
L 1119 1403 
Q 1119 906 1312 657 
Q 1506 409 1894 409 
Q 2359 409 2629 706 
Q 2900 1003 2900 1516 
L 2900 3500 
L 3475 3500 
L 3475 0 
L 2900 0 
L 2900 538 
Q 2691 219 2414 64 
Q 2138 -91 1772 -91 
Q 1169 -91 856 284 
Q 544 659 544 1381 
z
M 1991 3584 
L 1991 3584 
z
" transform="scale(0.015625)"/>
       <path id="DejaVuSans-6e" d="M 3513 2113 
L 3513 0 
L 2938 0 
L 2938 2094 
Q 2938 2591 2744 2837 
Q 2550 3084 2163 3084 
Q 1697 3084 1428 2787 
Q 1159 2491 1159 1978 
L 1159 0 
L 581 0 
L 581 3500 
L 1159 3500 
L 1159 2956 
Q 1366 3272 1645 3428 
Q 1925 3584 2291 3584 
Q 2894 3584 3203 3211 
Q 3513 2838 3513 2113 
z
" transform="scale(0.015625)"/>
      </defs>
      <use xlink:href="#DejaVuSans-46"/>
      <use xlink:href="#DejaVuSans-72" transform="translate(50.269531 0)"/>
      <use xlink:href="#DejaVuSans-6f" transform="translate(89.132812 0)"/>
      <use xlink:href="#DejaVuSans-67" transform="translate(150.314453 0)"/>
      <use xlink:href="#DejaVuSans-20" transform="translate(213.791016 0)"/>
      <use xlink:href="#DejaVuSans-72" transform="translate(245.578125 0)"/>
      <use xlink:href="#DejaVuSans-65" transform="translate(284.441406 0)"/>
      <use xlink:href="#DejaVuSans-74" transform="translate(345.964844 0)"/>
      <use xlink:href="#DejaVuSans-75" transform="translate(385.173828 0)"/>
      <use xlink:href="#DejaVuSans-72" transform="translate(448.552734 0)"/>
      <use xlink:href="#DejaVuSans-6e" transform="translate(487.916016 0)"/>
     </g>
    </g>
   </g>
   <g id="line2d_27">
    <path d="M 177.024137 170.398963 
L 180.137753 221.072784 
L 183.25137 251.477077 
L 186.364986 219.045832 
L 189.478602 241.342313 
L 192.592218 217.018879 
L 195.705834 273.773558 
L 198.81945 243.369266 
L 201.933066 217.018879 
L 205.046682 223.099737 
L 208.160298 198.776303 
L 211.273914 204.857162 
L 214.38753 178.506775 
L 217.501146 235.261454 
L 220.614762 206.884114 
L 223.728378 208.911067 
L 226.841994 170.398963 
L 229.95561 186.614586 
L 233.069226 255.530983 
L 236.182842 208.911067 
L 239.296458 237.288407 
L 242.410074 269.719652 
L 245.52369 221.072784 
L 248.637306 273.773558 
L 251.750922 227.153643 
L 254.864538 267.6927 
L 257.978154 283.908322 
L 261.09177 275.800511 
L 264.205386 263.638794 
L 267.319002 259.584888 
L 270.432618 271.746605 
L 273.546235 292.016134 
L 276.659851 241.342313 
L 279.773467 298.096992 
L 282.887083 302.150898 
L 286.000699 296.070039 
L 289.114315 312.285662 
L 292.227931 334.582143 
L 295.341547 318.36652 
L 298.455163 336.609096 
L 301.568779 318.36652 
L 304.682395 340.663002 
L 307.796011 322.420426 
L 310.909627 328.501285 
L 314.023243 381.202058 
L 317.136859 375.1212 
L 320.250475 348.770813 
L 323.364091 389.30987 
L 326.477707 362.959483 
L 329.591323 393.363775 
L 332.704939 395.390728 
L 335.818555 391.336823 
L 338.932171 383.229011 
L 342.045787 401.471587 
L 345.159403 371.067294 
L 348.273019 425.795021 
L 351.386635 389.30987 
L 354.500251 385.255964 
L 357.613867 421.741115 
L 360.727483 399.444634 
L 363.841099 413.633304 
L 366.954716 397.417681 
L 370.068332 403.49854 
L 373.181948 399.444634 
L 376.295564 401.471587 
L 379.40918 417.687209 
L 382.522796 389.30987 
L 385.636412 393.363775 
L 388.750028 425.795021 
L 391.863644 409.579398 
L 394.97726 403.49854 
L 398.090876 450.118455 
L 401.204492 427.821974 
L 404.318108 409.579398 
L 407.431724 419.714162 
L 410.54534 427.821974 
L 413.658956 433.902832 
L 416.772572 417.687209 
L 419.886188 437.956738 
L 422.999804 439.983691 
L 426.11342 450.118455 
L 429.227036 425.795021 
L 432.340652 442.010643 
L 435.454268 397.417681 
L 438.567884 421.741115 
L 441.6815 427.821974 
L 444.795116 421.741115 
L 447.908732 452.145408 
L 451.022348 407.552445 
L 454.135964 411.606351 
L 457.249581 395.390728 
L 460.363197 413.633304 
L 463.476813 435.929785 
L 466.590429 425.795021 
L 469.704045 419.714162 
L 472.817661 437.956738 
L 475.931277 415.660257 
L 479.044893 427.821974 
L 482.158509 423.768068 
L 485.272125 425.795021 
L 488.385741 407.552445 
L 491.499357 415.660257 
L 494.612973 437.956738 
L 497.726589 450.118455 
L 500.840205 403.49854 
L 503.953821 433.902832 
L 507.067437 425.795021 
L 510.181053 431.875879 
L 513.294669 452.145408 
L 516.408285 429.848926 
L 519.521901 427.821974 
L 522.635517 456.199313 
L 525.749133 450.118455 
L 528.862749 439.983691 
L 531.976365 423.768068 
L 535.089981 466.334077 
L 538.203597 456.199313 
L 541.317213 437.956738 
L 544.430829 425.795021 
L 547.544446 425.795021 
L 550.658062 450.118455 
L 553.771678 458.226266 
L 556.885294 433.902832 
L 559.99891 419.714162 
L 563.112526 429.848926 
L 566.226142 446.064549 
L 569.339758 425.795021 
L 572.453374 450.118455 
L 575.56699 439.983691 
L 578.680606 435.929785 
L 581.794222 462.280172 
L 584.907838 456.199313 
L 588.021454 437.956738 
L 591.13507 425.795021 
L 594.248686 435.929785 
L 597.362302 456.199313 
L 600.475918 444.037596 
L 603.589534 435.929785 
L 606.70315 456.199313 
L 609.816766 462.280172 
L 612.930382 444.037596 
L 616.043998 454.17236 
L 619.157614 417.687209 
L 622.27123 454.17236 
L 625.384846 444.037596 
L 628.498462 466.334077 
L 631.612078 448.091502 
L 637.839311 444.037596 
L 640.952927 439.983691 
L 644.066543 446.064549 
L 650.293775 462.280172 
L 653.407391 450.118455 
L 656.521007 439.983691 
L 659.634623 446.064549 
L 662.748239 437.956738 
L 665.861855 478.495794 
L 668.975471 480.522747 
L 672.089087 456.199313 
L 675.202703 474.441889 
L 678.316319 458.226266 
L 681.429935 452.145408 
L 684.543551 429.848926 
L 687.657167 435.929785 
L 690.770783 458.226266 
L 693.884399 437.956738 
L 696.998015 442.010643 
L 700.111631 464.307125 
L 703.225247 448.091502 
L 706.338863 454.17236 
L 709.452479 452.145408 
L 712.566095 452.145408 
L 715.679711 464.307125 
L 718.793327 446.064549 
L 721.906943 468.36103 
L 725.020559 439.983691 
L 728.134176 468.36103 
L 731.247792 439.983691 
L 734.361408 452.145408 
L 737.475024 470.387983 
L 740.58864 444.037596 
L 743.702256 456.199313 
L 746.815872 439.983691 
L 749.929488 454.17236 
L 753.043104 448.091502 
L 756.15672 439.983691 
L 759.270336 466.334077 
L 762.383952 468.36103 
L 765.497568 468.36103 
L 768.611184 454.17236 
L 771.7248 472.414936 
L 774.838416 427.821974 
L 777.952032 466.334077 
L 781.065648 446.064549 
L 784.179264 446.064549 
L 787.29288 444.037596 
L 790.406496 427.821974 
L 793.520112 444.037596 
L 799.747344 448.091502 
L 802.86096 472.414936 
L 805.974576 464.307125 
L 809.088192 464.307125 
L 812.201808 448.091502 
L 815.315424 448.091502 
L 818.429041 466.334077 
L 821.542657 442.010643 
L 824.656273 460.253219 
L 827.769889 462.280172 
L 830.883505 462.280172 
L 833.997121 460.253219 
L 837.110737 456.199313 
L 843.337969 439.983691 
L 846.451585 435.929785 
L 849.565201 452.145408 
L 852.678817 444.037596 
L 855.792433 437.956738 
L 858.906049 454.17236 
L 862.019665 452.145408 
L 865.133281 439.983691 
L 868.246897 468.36103 
L 871.360513 458.226266 
L 874.474129 454.17236 
L 877.587745 452.145408 
L 880.701361 464.307125 
L 883.814977 470.387983 
L 886.928593 470.387983 
L 890.042209 472.414936 
L 893.155825 464.307125 
L 896.269441 462.280172 
L 899.383057 466.334077 
L 902.496673 448.091502 
L 905.610289 444.037596 
L 908.723906 458.226266 
L 911.837522 446.064549 
L 914.951138 446.064549 
L 918.064754 452.145408 
L 921.17837 460.253219 
L 924.291986 433.902832 
L 927.405602 456.199313 
L 930.519218 448.091502 
L 933.632834 446.064549 
L 936.74645 427.821974 
L 939.860066 454.17236 
L 942.973682 460.253219 
L 946.087298 446.064549 
L 949.200914 458.226266 
L 952.31453 452.145408 
L 955.428146 466.334077 
L 955.428146 466.334077 
" clip-path="url(#p2272369bc7)" style="fill: none; stroke: #1f77b4; stroke-width: 2; stroke-linecap: square"/>
   </g>
   <g id="line2d_28">
    <path d="M 177.024137 180.533728 
L 180.137753 188.641539 
L 183.25137 221.072784 
L 186.364986 196.74935 
L 189.478602 233.234501 
L 192.592218 223.099737 
L 195.705834 245.396218 
L 198.81945 273.773558 
L 201.933066 265.665747 
L 205.046682 304.177851 
L 208.160298 279.854417 
L 211.273914 287.962228 
L 214.38753 298.096992 
L 217.501146 334.582143 
L 220.614762 308.231756 
L 223.728378 330.528237 
L 226.841994 265.665747 
L 229.95561 330.528237 
L 233.069226 314.312615 
L 236.182842 336.609096 
L 239.296458 328.501285 
L 242.410074 328.501285 
L 245.52369 304.177851 
L 248.637306 334.582143 
L 251.750922 289.989181 
L 254.864538 322.420426 
L 257.978154 294.043086 
L 261.09177 294.043086 
L 264.205386 296.070039 
L 267.319002 352.824719 
L 270.432618 328.501285 
L 273.546235 279.854417 
L 276.659851 289.989181 
L 279.773467 263.638794 
L 282.887083 285.935275 
L 286.000699 285.935275 
L 289.114315 294.043086 
L 292.227931 326.474332 
L 295.341547 298.096992 
L 298.455163 281.881369 
L 301.568779 287.962228 
L 304.682395 302.150898 
L 307.796011 296.070039 
L 310.909627 294.043086 
L 314.023243 279.854417 
L 317.136859 332.55519 
L 320.250475 338.636049 
L 323.364091 332.55519 
L 326.477707 283.908322 
L 329.591323 277.827464 
L 332.704939 328.501285 
L 335.818555 273.773558 
L 338.932171 344.716907 
L 342.045787 322.420426 
L 345.159403 312.285662 
L 348.273019 328.501285 
L 351.386635 320.393473 
L 354.500251 300.123945 
L 357.613867 336.609096 
L 360.727483 263.638794 
L 363.841099 306.204803 
L 366.954716 310.258709 
L 370.068332 342.689954 
L 373.181948 332.55519 
L 376.295564 332.55519 
L 379.40918 342.689954 
L 382.522796 340.663002 
L 385.636412 324.447379 
L 388.750028 332.55519 
L 391.863644 322.420426 
L 394.97726 308.231756 
L 398.090876 281.881369 
L 401.204492 340.663002 
L 404.318108 330.528237 
L 407.431724 287.962228 
L 410.54534 316.339568 
L 413.658956 310.258709 
L 416.772572 308.231756 
L 419.886188 312.285662 
L 422.999804 300.123945 
L 426.11342 283.908322 
L 429.227036 289.989181 
L 432.340652 294.043086 
L 435.454268 251.477077 
L 438.567884 300.123945 
L 441.6815 298.096992 
L 444.795116 304.177851 
L 447.908732 294.043086 
L 451.022348 300.123945 
L 454.135964 320.393473 
L 457.249581 308.231756 
L 460.363197 338.636049 
L 463.476813 304.177851 
L 466.590429 332.55519 
L 469.704045 298.096992 
L 472.817661 326.474332 
L 475.931277 308.231756 
L 479.044893 294.043086 
L 482.158509 330.528237 
L 485.272125 316.339568 
L 488.385741 318.36652 
L 491.499357 342.689954 
L 494.612973 387.282917 
L 497.726589 324.447379 
L 500.840205 350.797766 
L 503.953821 332.55519 
L 507.067437 362.959483 
L 510.181053 369.040341 
L 513.294669 340.663002 
L 516.408285 342.689954 
L 519.521901 387.282917 
L 522.635517 397.417681 
L 525.749133 358.905577 
L 528.862749 385.255964 
L 531.976365 367.013389 
L 535.089981 369.040341 
L 538.203597 395.390728 
L 541.317213 399.444634 
L 544.430829 379.175106 
L 547.544446 373.094247 
L 550.658062 383.229011 
L 553.771678 379.175106 
L 556.885294 381.202058 
L 559.99891 356.878624 
L 563.112526 389.30987 
L 566.226142 391.336823 
L 569.339758 358.905577 
L 572.453374 403.49854 
L 575.56699 387.282917 
L 578.680606 356.878624 
L 581.794222 358.905577 
L 584.907838 375.1212 
L 588.021454 373.094247 
L 591.13507 393.363775 
L 594.248686 405.525492 
L 597.362302 411.606351 
L 600.475918 395.390728 
L 603.589534 403.49854 
L 606.70315 369.040341 
L 609.816766 387.282917 
L 612.930382 377.148153 
L 616.043998 371.067294 
L 619.157614 401.471587 
L 622.27123 367.013389 
L 625.384846 411.606351 
L 628.498462 393.363775 
L 631.612078 405.525492 
L 634.725694 399.444634 
L 637.839311 373.094247 
L 640.952927 397.417681 
L 644.066543 409.579398 
L 647.180159 377.148153 
L 650.293775 405.525492 
L 653.407391 371.067294 
L 656.521007 419.714162 
L 659.634623 387.282917 
L 662.748239 405.525492 
L 665.861855 405.525492 
L 668.975471 397.417681 
L 672.089087 403.49854 
L 675.202703 399.444634 
L 678.316319 389.30987 
L 681.429935 401.471587 
L 684.543551 399.444634 
L 687.657167 387.282917 
L 690.770783 373.094247 
L 693.884399 387.282917 
L 696.998015 395.390728 
L 700.111631 411.606351 
L 703.225247 391.336823 
L 706.338863 387.282917 
L 709.452479 377.148153 
L 712.566095 387.282917 
L 715.679711 385.255964 
L 718.793327 375.1212 
L 721.906943 409.579398 
L 725.020559 364.986436 
L 728.134176 395.390728 
L 731.247792 389.30987 
L 734.361408 364.986436 
L 737.475024 369.040341 
L 740.58864 379.175106 
L 743.702256 417.687209 
L 746.815872 413.633304 
L 749.929488 387.282917 
L 753.043104 385.255964 
L 756.15672 367.013389 
L 759.270336 379.175106 
L 762.383952 375.1212 
L 765.497568 389.30987 
L 768.611184 348.770813 
L 771.7248 381.202058 
L 774.838416 389.30987 
L 777.952032 373.094247 
L 781.065648 350.797766 
L 784.179264 369.040341 
L 787.29288 391.336823 
L 790.406496 367.013389 
L 793.520112 389.30987 
L 796.633728 377.148153 
L 799.747344 358.905577 
L 802.86096 395.390728 
L 805.974576 332.55519 
L 809.088192 350.797766 
L 812.201808 338.636049 
L 815.315424 373.094247 
L 818.429041 350.797766 
L 821.542657 360.93253 
L 824.656273 360.93253 
L 827.769889 350.797766 
L 830.883505 385.255964 
L 833.997121 356.878624 
L 837.110737 342.689954 
L 840.224353 354.851671 
L 843.337969 362.959483 
L 846.451585 367.013389 
L 849.565201 375.1212 
L 852.678817 356.878624 
L 855.792433 318.36652 
L 858.906049 362.959483 
L 862.019665 387.282917 
L 865.133281 348.770813 
L 868.246897 344.716907 
L 871.360513 346.74386 
L 874.474129 324.447379 
L 877.587745 330.528237 
L 880.701361 350.797766 
L 883.814977 364.986436 
L 886.928593 340.663002 
L 890.042209 277.827464 
L 893.155825 379.175106 
L 896.269441 294.043086 
L 899.383057 336.609096 
L 902.496673 310.258709 
L 905.610289 340.663002 
L 908.723906 324.447379 
L 911.837522 328.501285 
L 914.951138 336.609096 
L 918.064754 352.824719 
L 921.17837 298.096992 
L 924.291986 346.74386 
L 927.405602 358.905577 
L 930.519218 395.390728 
L 933.632834 300.123945 
L 936.74645 346.74386 
L 939.860066 356.878624 
L 942.973682 338.636049 
L 946.087298 346.74386 
L 949.200914 292.016134 
L 952.31453 332.55519 
L 955.428146 332.55519 
L 955.428146 332.55519 
" clip-path="url(#p2272369bc7)" style="fill: none; stroke: #ff7f0e; stroke-width: 2; stroke-linecap: square"/>
   </g>
   <g id="line2d_29">
    <path d="M 177.024137 186.614586 
L 180.137753 202.830209 
L 183.25137 196.74935 
L 186.364986 200.803256 
L 189.478602 214.991926 
L 192.592218 182.56068 
L 195.705834 196.74935 
L 198.81945 208.911067 
L 201.933066 257.557935 
L 205.046682 249.450124 
L 208.160298 206.884114 
L 211.273914 231.207549 
L 214.38753 221.072784 
L 217.501146 227.153643 
L 220.614762 223.099737 
L 223.728378 214.991926 
L 226.841994 217.018879 
L 229.95561 206.884114 
L 233.069226 221.072784 
L 236.182842 219.045832 
L 239.296458 241.342313 
L 242.410074 237.288407 
L 245.52369 237.288407 
L 248.637306 214.991926 
L 251.750922 225.12669 
L 254.864538 227.153643 
L 257.978154 251.477077 
L 261.09177 267.6927 
L 264.205386 253.50403 
L 270.432618 285.935275 
L 273.546235 314.312615 
L 276.659851 281.881369 
L 279.773467 310.258709 
L 282.887083 283.908322 
L 286.000699 292.016134 
L 289.114315 253.50403 
L 292.227931 324.447379 
L 295.341547 275.800511 
L 298.455163 314.312615 
L 301.568779 281.881369 
L 304.682395 330.528237 
L 307.796011 320.393473 
L 310.909627 304.177851 
L 314.023243 314.312615 
L 317.136859 332.55519 
L 320.250475 330.528237 
L 323.364091 324.447379 
L 326.477707 348.770813 
L 329.591323 336.609096 
L 332.704939 348.770813 
L 335.818555 350.797766 
L 338.932171 362.959483 
L 342.045787 336.609096 
L 345.159403 362.959483 
L 348.273019 342.689954 
L 351.386635 377.148153 
L 354.500251 342.689954 
L 357.613867 364.986436 
L 360.727483 373.094247 
L 363.841099 391.336823 
L 366.954716 364.986436 
L 370.068332 364.986436 
L 373.181948 377.148153 
L 376.295564 385.255964 
L 379.40918 381.202058 
L 382.522796 399.444634 
L 385.636412 369.040341 
L 388.750028 379.175106 
L 391.863644 379.175106 
L 394.97726 401.471587 
L 398.090876 393.363775 
L 401.204492 399.444634 
L 404.318108 427.821974 
L 407.431724 423.768068 
L 410.54534 397.417681 
L 413.658956 397.417681 
L 416.772572 387.282917 
L 419.886188 429.848926 
L 422.999804 409.579398 
L 426.11342 442.010643 
L 429.227036 437.956738 
L 432.340652 403.49854 
L 435.454268 413.633304 
L 438.567884 425.795021 
L 441.6815 387.282917 
L 444.795116 399.444634 
L 447.908732 395.390728 
L 451.022348 417.687209 
L 454.135964 413.633304 
L 457.249581 403.49854 
L 460.363197 431.875879 
L 463.476813 437.956738 
L 466.590429 419.714162 
L 469.704045 437.956738 
L 472.817661 405.525492 
L 475.931277 425.795021 
L 479.044893 417.687209 
L 482.158509 417.687209 
L 485.272125 415.660257 
L 488.385741 454.17236 
L 491.499357 427.821974 
L 494.612973 444.037596 
L 497.726589 442.010643 
L 500.840205 431.875879 
L 503.953821 431.875879 
L 507.067437 427.821974 
L 510.181053 407.552445 
L 513.294669 442.010643 
L 516.408285 433.902832 
L 519.521901 439.983691 
L 522.635517 421.741115 
L 525.749133 421.741115 
L 528.862749 419.714162 
L 531.976365 444.037596 
L 538.203597 435.929785 
L 541.317213 446.064549 
L 544.430829 417.687209 
L 550.658062 450.118455 
L 553.771678 407.552445 
L 556.885294 444.037596 
L 559.99891 431.875879 
L 563.112526 450.118455 
L 566.226142 437.956738 
L 569.339758 456.199313 
L 575.56699 427.821974 
L 578.680606 423.768068 
L 581.794222 448.091502 
L 584.907838 437.956738 
L 588.021454 448.091502 
L 591.13507 419.714162 
L 594.248686 433.902832 
L 597.362302 437.956738 
L 600.475918 401.471587 
L 603.589534 446.064549 
L 606.70315 442.010643 
L 609.816766 427.821974 
L 612.930382 462.280172 
L 616.043998 472.414936 
L 619.157614 433.902832 
L 622.27123 427.821974 
L 625.384846 439.983691 
L 628.498462 435.929785 
L 631.612078 448.091502 
L 634.725694 425.795021 
L 637.839311 437.956738 
L 640.952927 442.010643 
L 644.066543 423.768068 
L 647.180159 448.091502 
L 650.293775 439.983691 
L 653.407391 427.821974 
L 656.521007 444.037596 
L 659.634623 442.010643 
L 662.748239 466.334077 
L 665.861855 425.795021 
L 668.975471 452.145408 
L 672.089087 448.091502 
L 675.202703 419.714162 
L 678.316319 439.983691 
L 681.429935 448.091502 
L 684.543551 446.064549 
L 687.657167 417.687209 
L 690.770783 468.36103 
L 693.884399 462.280172 
L 696.998015 437.956738 
L 700.111631 446.064549 
L 703.225247 466.334077 
L 706.338863 456.199313 
L 709.452479 450.118455 
L 712.566095 450.118455 
L 715.679711 466.334077 
L 718.793327 446.064549 
L 721.906943 439.983691 
L 725.020559 448.091502 
L 728.134176 452.145408 
L 731.247792 433.902832 
L 734.361408 456.199313 
L 737.475024 454.17236 
L 740.58864 462.280172 
L 743.702256 460.253219 
L 746.815872 448.091502 
L 749.929488 462.280172 
L 753.043104 446.064549 
L 756.15672 446.064549 
L 759.270336 464.307125 
L 762.383952 417.687209 
L 765.497568 454.17236 
L 768.611184 425.795021 
L 771.7248 452.145408 
L 774.838416 431.875879 
L 777.952032 433.902832 
L 781.065648 433.902832 
L 784.179264 439.983691 
L 787.29288 468.36103 
L 790.406496 464.307125 
L 793.520112 437.956738 
L 796.633728 454.17236 
L 799.747344 450.118455 
L 802.86096 448.091502 
L 805.974576 462.280172 
L 809.088192 433.902832 
L 812.201808 450.118455 
L 815.315424 456.199313 
L 818.429041 458.226266 
L 821.542657 472.414936 
L 824.656273 429.848926 
L 827.769889 452.145408 
L 830.883505 450.118455 
L 833.997121 442.010643 
L 837.110737 450.118455 
L 840.224353 456.199313 
L 843.337969 448.091502 
L 846.451585 448.091502 
L 849.565201 411.606351 
L 852.678817 462.280172 
L 855.792433 429.848926 
L 858.906049 446.064549 
L 862.019665 458.226266 
L 865.133281 454.17236 
L 868.246897 464.307125 
L 871.360513 464.307125 
L 874.474129 433.902832 
L 877.587745 442.010643 
L 880.701361 458.226266 
L 883.814977 439.983691 
L 886.928593 439.983691 
L 890.042209 454.17236 
L 893.155825 482.5497 
L 896.269441 474.441889 
L 899.383057 439.983691 
L 902.496673 470.387983 
L 905.610289 450.118455 
L 908.723906 437.956738 
L 911.837522 431.875879 
L 914.951138 454.17236 
L 918.064754 456.199313 
L 921.17837 456.199313 
L 924.291986 452.145408 
L 927.405602 466.334077 
L 930.519218 456.199313 
L 933.632834 454.17236 
L 936.74645 456.199313 
L 939.860066 460.253219 
L 942.973682 435.929785 
L 946.087298 433.902832 
L 949.200914 468.36103 
L 952.31453 452.145408 
L 955.428146 425.795021 
L 955.428146 425.795021 
" clip-path="url(#p2272369bc7)" style="fill: none; stroke: #2ca02c; stroke-width: 2; stroke-linecap: square"/>
   </g>
   <g id="patch_3">
    <path d="M 128.103937 547.344744 
L 128.103937 73.799291 
" style="fill: none; stroke: #000000; stroke-width: 2; stroke-linejoin: miter; stroke-linecap: square"/>
   </g>
   <g id="patch_4">
    <path d="M 138.103937 557.344744 
L 994.348346 557.344744 
" style="fill: none; stroke: #000000; stroke-width: 2; stroke-linejoin: miter; stroke-linecap: square"/>
   </g>
   <g id="legend_1">
    <g id="patch_5">
     <path d="M 887.212346 148.728791 
L 984.268346 148.728791 
Q 987.148346 148.728791 987.148346 145.848791 
L 987.148346 83.879291 
Q 987.148346 80.999291 984.268346 80.999291 
L 887.212346 80.999291 
Q 884.332346 80.999291 884.332346 83.879291 
L 884.332346 145.848791 
Q 884.332346 148.728791 887.212346 148.728791 
z
" style="fill: #ffffff; opacity: 0.8; stroke: #cccccc; stroke-linejoin: miter"/>
    </g>
    <g id="line2d_30">
     <path d="M 890.092346 92.661041 
L 904.492346 92.661041 
L 918.892346 92.661041 
" style="fill: none; stroke: #1f77b4; stroke-width: 2; stroke-linecap: square"/>
    </g>
    <g id="text_16">
     <!-- IPPO -->
     <g transform="translate(930.412346 97.701041) scale(0.144 -0.144)">
      <defs>
       <path id="DejaVuSans-49" d="M 628 4666 
L 1259 4666 
L 1259 0 
L 628 0 
L 628 4666 
z
" transform="scale(0.015625)"/>
       <path id="DejaVuSans-50" d="M 1259 4147 
L 1259 2394 
L 2053 2394 
Q 2494 2394 2734 2622 
Q 2975 2850 2975 3272 
Q 2975 3691 2734 3919 
Q 2494 4147 2053 4147 
L 1259 4147 
z
M 628 4666 
L 2053 4666 
Q 2838 4666 3239 4311 
Q 3641 3956 3641 3272 
Q 3641 2581 3239 2228 
Q 2838 1875 2053 1875 
L 1259 1875 
L 1259 0 
L 628 0 
L 628 4666 
z
" transform="scale(0.015625)"/>
       <path id="DejaVuSans-4f" d="M 2522 4238 
Q 1834 4238 1429 3725 
Q 1025 3213 1025 2328 
Q 1025 1447 1429 934 
Q 1834 422 2522 422 
Q 3209 422 3611 934 
Q 4013 1447 4013 2328 
Q 4013 3213 3611 3725 
Q 3209 4238 2522 4238 
z
M 2522 4750 
Q 3503 4750 4090 4092 
Q 4678 3434 4678 2328 
Q 4678 1225 4090 567 
Q 3503 -91 2522 -91 
Q 1538 -91 948 565 
Q 359 1222 359 2328 
Q 359 3434 948 4092 
Q 1538 4750 2522 4750 
z
" transform="scale(0.015625)"/>
      </defs>
      <use xlink:href="#DejaVuSans-49"/>
      <use xlink:href="#DejaVuSans-50" transform="translate(29.492188 0)"/>
      <use xlink:href="#DejaVuSans-50" transform="translate(89.794922 0)"/>
      <use xlink:href="#DejaVuSans-4f" transform="translate(150.097656 0)"/>
     </g>
    </g>
    <g id="line2d_31">
     <path d="M 890.092346 113.797541 
L 904.492346 113.797541 
L 918.892346 113.797541 
" style="fill: none; stroke: #ff7f0e; stroke-width: 2; stroke-linecap: square"/>
    </g>
    <g id="text_17">
     <!-- IQL -->
     <g transform="translate(930.412346 118.837541) scale(0.144 -0.144)">
      <defs>
       <path id="DejaVuSans-51" d="M 2522 4238 
Q 1834 4238 1429 3725 
Q 1025 3213 1025 2328 
Q 1025 1447 1429 934 
Q 1834 422 2522 422 
Q 3209 422 3611 934 
Q 4013 1447 4013 2328 
Q 4013 3213 3611 3725 
Q 3209 4238 2522 4238 
z
M 3406 84 
L 4238 -825 
L 3475 -825 
L 2784 -78 
Q 2681 -84 2626 -87 
Q 2572 -91 2522 -91 
Q 1538 -91 948 567 
Q 359 1225 359 2328 
Q 359 3434 948 4092 
Q 1538 4750 2522 4750 
Q 3503 4750 4090 4092 
Q 4678 3434 4678 2328 
Q 4678 1516 4351 937 
Q 4025 359 3406 84 
z
" transform="scale(0.015625)"/>
       <path id="DejaVuSans-4c" d="M 628 4666 
L 1259 4666 
L 1259 531 
L 3531 531 
L 3531 0 
L 628 0 
L 628 4666 
z
" transform="scale(0.015625)"/>
      </defs>
      <use xlink:href="#DejaVuSans-49"/>
      <use xlink:href="#DejaVuSans-51" transform="translate(29.492188 0)"/>
      <use xlink:href="#DejaVuSans-4c" transform="translate(108.203125 0)"/>
     </g>
    </g>
    <g id="line2d_32">
     <path d="M 890.092346 134.934041 
L 904.492346 134.934041 
L 918.892346 134.934041 
" style="fill: none; stroke: #2ca02c; stroke-width: 2; stroke-linecap: square"/>
    </g>
    <g id="text_18">
     <!-- MAPPO -->
     <g transform="translate(930.412346 139.974041) scale(0.144 -0.144)">
      <defs>
       <path id="DejaVuSans-4d" d="M 628 4666 
L 1569 4666 
L 2759 1491 
L 3956 4666 
L 4897 4666 
L 4897 0 
L 4281 0 
L 4281 4097 
L 3078 897 
L 2444 897 
L 1241 4097 
L 1241 0 
L 628 0 
L 628 4666 
z
" transform="scale(0.015625)"/>
       <path id="DejaVuSans-41" d="M 2188 4044 
L 1331 1722 
L 3047 1722 
L 2188 4044 
z
M 1831 4666 
L 2547 4666 
L 4325 0 
L 3669 0 
L 3244 1197 
L 1141 1197 
L 716 0 
L 50 0 
L 1831 4666 
z
" transform="scale(0.015625)"/>
      </defs>
      <use xlink:href="#DejaVuSans-4d"/>
      <use xlink:href="#DejaVuSans-41" transform="translate(86.279297 0)"/>
      <use xlink:href="#DejaVuSans-50" transform="translate(154.6875 0)"/>
      <use xlink:href="#DejaVuSans-50" transform="translate(214.990234 0)"/>
      <use xlink:href="#DejaVuSans-4f" transform="translate(275.292969 0)"/>
     </g>
    </g>
   </g>
  </g>
 </g>
 <defs>
  <clipPath id="p2272369bc7">
   <rect x="138.103937" y="73.799291" width="856.244409" height="473.545453"/>
  </clipPath>
 </defs>
</svg>
