<?xml version="1.0" encoding="utf-8" standalone="no"?>
<!DOCTYPE svg PUBLIC "-//W3C//DTD SVG 1.1//EN"
  "http://www.w3.org/Graphics/SVG/1.1/DTD/svg11.dtd">
<svg xmlns:xlink="http://www.w3.org/1999/xlink" width="1104.831496pt" height="614.994094pt" viewBox="0 0 1104.831496 614.994094" xmlns="http://www.w3.org/2000/svg" version="1.1">
 <metadata>
  <rdf:RDF xmlns:dc="http://purl.org/dc/elements/1.1/" xmlns:cc="http://creativecommons.org/ns#" xmlns:rdf="http://www.w3.org/1999/02/22-rdf-syntax-ns#">
   <cc:Work>
    <dc:type rdf:resource="http://purl.org/dc/dcmitype/StillImage"/>
    <dc:date>2025-03-11T12:28:44.761485</dc:date>
    <dc:format>image/svg+xml</dc:format>
    <dc:creator>
     <cc:Agent>
      <dc:title>Matplotlib v3.10.0, https://matplotlib.org/</dc:title>
     </cc:Agent>
    </dc:creator>
   </cc:Work>
  </rdf:RDF>
 </metadata>
 <defs>
  <style type="text/css">*{stroke-linejoin: round; stroke-linecap: butt}</style>
 </defs>
 <g id="figure_1">
  <g id="patch_1">
   <path d="M 0 614.994094 
L 1104.831496 614.994094 
L 1104.831496 0 
L 0 0 
z
" style="fill: #ffffff"/>
  </g>
  <g id="axes_1">
   <g id="patch_2">
    <path d="M 138.103937 547.344744 
L 994.348346 547.344744 
L 994.348346 73.799291 
L 138.103937 73.799291 
z
" style="fill: #ffffff"/>
   </g>
   <g id="FillBetweenPolyCollection_1">
    <defs>
     <path id="m448a88734f" d="M 177.024137 -167.624019 
L 177.024137 -89.174144 
L 180.137753 -134.461247 
L 183.25137 -151.800737 
L 186.364986 -140.553033 
L 189.478602 -160.747865 
L 192.592218 -129.176019 
L 195.705834 -167.408376 
L 198.81945 -130.193172 
L 201.933066 -140.460597 
L 205.046682 -150.129743 
L 208.160298 -146.611877 
L 211.273914 -126.219009 
L 214.38753 -129.284477 
L 217.501146 -174.39835 
L 220.614762 -160.112049 
L 223.728378 -149.140582 
L 226.841994 -114.299453 
L 229.95561 -148.948211 
L 233.069226 -176.077732 
L 236.182842 -166.116483 
L 239.296458 -173.715759 
L 242.410074 -203.782413 
L 245.52369 -152.429867 
L 248.637306 -189.323934 
L 251.750922 -166.468634 
L 254.864538 -181.309227 
L 257.978154 -204.3129 
L 261.09177 -205.471326 
L 264.205386 -174.977541 
L 267.319002 -188.617963 
L 270.432618 -187.076524 
L 273.546235 -214.377083 
L 276.659851 -186.795937 
L 279.773467 -202.145799 
L 282.887083 -212.092986 
L 286.000699 -213.475926 
L 289.114315 -238.896629 
L 292.227931 -233.496167 
L 295.341547 -229.224162 
L 298.455163 -246.829865 
L 301.568779 -240.51812 
L 304.682395 -260.169898 
L 307.796011 -224.367035 
L 310.909627 -257.46907 
L 314.023243 -295.277708 
L 317.136859 -267.909148 
L 320.250475 -246.855133 
L 323.364091 -293.207556 
L 326.477707 -255.528574 
L 329.591323 -302.066102 
L 332.704939 -295.972549 
L 335.818555 -295.139646 
L 338.932171 -305.331247 
L 342.045787 -303.223567 
L 345.159403 -287.044728 
L 348.273019 -325.601095 
L 351.386635 -323.028855 
L 354.500251 -315.000361 
L 357.613867 -322.572895 
L 360.727483 -335.623996 
L 363.841099 -340.582543 
L 366.954716 -309.596705 
L 370.068332 -324.830556 
L 373.181948 -342.144514 
L 376.295564 -331.117083 
L 379.40918 -365.904931 
L 382.522796 -339.755316 
L 385.636412 -320.328154 
L 388.750028 -351.422531 
L 391.863644 -340.186943 
L 394.97726 -344.591383 
L 398.090876 -374.095485 
L 401.204492 -373.482402 
L 404.318108 -354.732702 
L 407.431724 -363.607525 
L 410.54534 -371.34323 
L 413.658956 -361.994559 
L 416.772572 -353.144415 
L 419.886188 -366.413641 
L 422.999804 -363.24536 
L 426.11342 -390.158015 
L 429.227036 -370.367678 
L 432.340652 -380.747614 
L 435.454268 -334.614549 
L 438.567884 -369.719722 
L 441.6815 -353.593861 
L 444.795116 -341.651166 
L 447.908732 -402.731195 
L 451.022348 -361.356691 
L 454.135964 -373.401399 
L 457.249581 -339.857007 
L 460.363197 -343.669754 
L 463.476813 -359.594471 
L 466.590429 -376.136444 
L 469.704045 -366.456712 
L 472.817661 -351.258955 
L 475.931277 -358.617472 
L 479.044893 -363.99532 
L 482.158509 -357.5794 
L 485.272125 -370.877425 
L 488.385741 -385.456538 
L 491.499357 -384.804354 
L 494.612973 -392.177051 
L 497.726589 -374.688396 
L 500.840205 -374.211955 
L 503.953821 -399.706899 
L 507.067437 -362.975841 
L 510.181053 -380.948539 
L 513.294669 -396.752787 
L 516.408285 -391.186173 
L 519.521901 -385.454444 
L 522.635517 -400.077857 
L 525.749133 -381.467151 
L 528.862749 -405.116395 
L 531.976365 -390.872664 
L 535.089981 -393.862494 
L 538.203597 -425.804822 
L 541.317213 -395.20443 
L 544.430829 -389.277702 
L 547.544446 -406.848122 
L 550.658062 -406.969799 
L 553.771678 -399.149671 
L 556.885294 -378.799735 
L 559.99891 -404.40783 
L 563.112526 -382.085819 
L 566.226142 -405.559059 
L 569.339758 -387.448582 
L 572.453374 -429.343597 
L 575.56699 -384.862013 
L 578.680606 -406.966431 
L 581.794222 -405.356055 
L 584.907838 -421.557681 
L 588.021454 -402.493066 
L 591.13507 -392.124869 
L 594.248686 -417.076431 
L 597.362302 -408.068917 
L 600.475918 -386.831661 
L 603.589534 -401.395247 
L 606.70315 -386.485291 
L 609.816766 -408.906467 
L 612.930382 -403.809043 
L 616.043998 -404.624012 
L 619.157614 -372.622028 
L 622.27123 -428.213277 
L 625.384846 -404.065009 
L 628.498462 -423.909947 
L 631.612078 -418.155181 
L 634.725694 -417.16504 
L 637.839311 -418.437064 
L 640.952927 -400.1656 
L 644.066543 -397.51389 
L 647.180159 -414.169818 
L 650.293775 -412.738945 
L 653.407391 -397.290951 
L 656.521007 -420.000459 
L 659.634623 -440.51684 
L 662.748239 -406.871338 
L 665.861855 -441.444368 
L 668.975471 -437.061286 
L 672.089087 -406.552667 
L 675.202703 -431.54899 
L 678.316319 -412.886874 
L 681.429935 -404.957105 
L 684.543551 -423.863297 
L 687.657167 -395.505475 
L 690.770783 -424.500477 
L 693.884399 -416.567304 
L 696.998015 -402.092225 
L 700.111631 -419.569947 
L 703.225247 -413.893824 
L 706.338863 -426.130303 
L 709.452479 -418.940155 
L 712.566095 -419.409852 
L 715.679711 -414.639771 
L 718.793327 -396.689443 
L 721.906943 -426.169319 
L 725.020559 -420.429458 
L 728.134176 -413.557873 
L 731.247792 -403.904386 
L 734.361408 -399.766743 
L 737.475024 -431.972169 
L 740.58864 -416.105471 
L 743.702256 -421.540759 
L 746.815872 -405.982768 
L 749.929488 -419.785774 
L 753.043104 -393.062414 
L 756.15672 -375.322526 
L 759.270336 -432.317152 
L 762.383952 -417.313494 
L 765.497568 -414.794763 
L 768.611184 -411.348897 
L 771.7248 -403.094091 
L 774.838416 -404.472085 
L 777.952032 -409.375757 
L 781.065648 -412.378024 
L 784.179264 -402.291702 
L 787.29288 -442.253006 
L 790.406496 -387.048092 
L 793.520112 -408.419791 
L 796.633728 -399.446043 
L 799.747344 -427.651386 
L 802.86096 -435.869245 
L 805.974576 -444.887838 
L 809.088192 -399.350133 
L 812.201808 -390.997417 
L 815.315424 -425.302397 
L 818.429041 -404.874446 
L 821.542657 -419.35599 
L 824.656273 -410.689013 
L 827.769889 -406.945829 
L 830.883505 -422.483095 
L 833.997121 -427.23358 
L 837.110737 -416.790661 
L 840.224353 -387.067909 
L 843.337969 -401.249102 
L 846.451585 -422.522238 
L 849.565201 -425.264347 
L 852.678817 -421.788086 
L 855.792433 -412.549966 
L 858.906049 -432.487276 
L 862.019665 -382.970096 
L 865.133281 -389.782446 
L 868.246897 -440.771652 
L 871.360513 -411.206329 
L 874.474129 -423.997367 
L 877.587745 -398.940716 
L 880.701361 -418.581219 
L 883.814977 -425.347792 
L 886.928593 -440.059618 
L 890.042209 -413.456947 
L 893.155825 -393.876558 
L 896.269441 -419.662249 
L 899.383057 -413.618634 
L 902.496673 -399.703338 
L 905.610289 -427.843313 
L 908.723906 -403.542492 
L 911.837522 -387.972371 
L 914.951138 -412.194568 
L 918.064754 -423.494617 
L 921.17837 -439.839724 
L 924.291986 -384.355512 
L 927.405602 -413.820301 
L 930.519218 -440.301602 
L 933.632834 -397.892844 
L 936.74645 -379.946064 
L 939.860066 -419.469253 
L 942.973682 -427.878047 
L 946.087298 -391.828769 
L 949.200914 -417.512697 
L 952.31453 -420.613623 
L 955.428146 -437.063278 
L 955.428146 -502.071878 
L 955.428146 -502.071878 
L 952.31453 -497.077662 
L 949.200914 -506.506289 
L 946.087298 -466.45244 
L 942.973682 -497.547095 
L 939.860066 -491.54279 
L 936.74645 -453.024349 
L 933.632834 -482.183779 
L 930.519218 -503.755096 
L 927.405602 -500.707133 
L 924.291986 -480.604939 
L 921.17837 -485.585422 
L 918.064754 -495.251284 
L 914.951138 -496.708244 
L 911.837522 -484.370397 
L 908.723906 -480.752597 
L 905.610289 -514.455694 
L 902.496673 -469.827118 
L 899.383057 -499.854185 
L 896.269441 -494.513645 
L 893.155825 -495.691616 
L 890.042209 -496.148943 
L 886.928593 -499.427075 
L 883.814977 -492.695031 
L 880.701361 -497.000832 
L 877.587745 -489.2213 
L 874.474129 -498.263922 
L 871.360513 -488.204934 
L 868.246897 -515.940451 
L 865.133281 -514.198823 
L 862.019665 -476.365731 
L 858.906049 -494.695559 
L 855.792433 -488.970532 
L 852.678817 -476.56856 
L 849.565201 -486.450773 
L 846.451585 -496.92674 
L 843.337969 -494.646772 
L 840.224353 -478.595618 
L 837.110737 -491.057535 
L 833.997121 -486.942313 
L 830.883505 -505.051276 
L 827.769889 -509.339299 
L 824.656273 -501.02611 
L 821.542657 -476.188344 
L 818.429041 -487.857577 
L 815.315424 -491.685813 
L 812.201808 -484.157662 
L 809.088192 -481.07803 
L 805.974576 -496.708089 
L 802.86096 -503.617449 
L 799.747344 -501.289141 
L 796.633728 -491.879825 
L 793.520112 -485.718384 
L 790.406496 -475.451587 
L 787.29288 -504.264467 
L 784.179264 -489.034167 
L 781.065648 -475.783991 
L 777.952032 -480.192416 
L 774.838416 -476.659155 
L 771.7248 -513.191037 
L 768.611184 -495.093145 
L 765.497568 -491.295737 
L 762.383952 -484.207 
L 759.270336 -489.592599 
L 756.15672 -457.296348 
L 753.043104 -496.50576 
L 749.929488 -489.117038 
L 746.815872 -484.288485 
L 743.702256 -479.979735 
L 740.58864 -492.797343 
L 737.475024 -500.13221 
L 734.361408 -497.183745 
L 731.247792 -477.226852 
L 728.134176 -507.29726 
L 725.020559 -484.606428 
L 721.906943 -470.078092 
L 718.793327 -478.817172 
L 715.679711 -495.317658 
L 712.566095 -484.219879 
L 709.452479 -489.962657 
L 706.338863 -506.677155 
L 703.225247 -478.486661 
L 700.111631 -497.769798 
L 696.998015 -499.779809 
L 693.884399 -501.47552 
L 690.770783 -486.863107 
L 687.657167 -484.922689 
L 684.543551 -511.053393 
L 681.429935 -502.188012 
L 678.316319 -510.077491 
L 675.202703 -509.695399 
L 672.089087 -488.991666 
L 668.975471 -497.855403 
L 665.861855 -495.230018 
L 662.748239 -491.836846 
L 659.634623 -505.297558 
L 656.521007 -475.192337 
L 653.407391 -487.355679 
L 650.293775 -495.460789 
L 647.180159 -489.108372 
L 644.066543 -475.180416 
L 640.952927 -472.528707 
L 637.839311 -485.544202 
L 634.725694 -493.847006 
L 631.612078 -480.201464 
L 628.498462 -500.109038 
L 625.384846 -490.073171 
L 622.27123 -502.484946 
L 619.157614 -457.887613 
L 616.043998 -481.428773 
L 612.930382 -485.407592 
L 609.816766 -491.559414 
L 606.70315 -465.819758 
L 603.589534 -468.838287 
L 600.475918 -472.152628 
L 597.362302 -476.226171 
L 594.248686 -488.662532 
L 591.13507 -510.450242 
L 588.021454 -489.184343 
L 584.907838 -494.024371 
L 581.794222 -492.29751 
L 578.680606 -491.741754 
L 575.56699 -457.248407 
L 572.453374 -484.832297 
L 569.339758 -459.934924 
L 566.226142 -472.759868 
L 563.112526 -461.430757 
L 559.99891 -485.863421 
L 556.885294 -456.279909 
L 553.771678 -475.302331 
L 550.658062 -499.823779 
L 547.544446 -478.853123 
L 544.430829 -469.706587 
L 541.317213 -483.466039 
L 538.203597 -489.425686 
L 535.089981 -495.354139 
L 531.976365 -466.705466 
L 528.862749 -467.57791 
L 525.749133 -472.947128 
L 522.635517 -482.459538 
L 519.521901 -465.444451 
L 516.408285 -474.125814 
L 513.294669 -491.057693 
L 510.181053 -487.175759 
L 507.067437 -469.643031 
L 503.953821 -483.885113 
L 500.840205 -462.625383 
L 497.726589 -468.476644 
L 494.612973 -488.60265 
L 491.499357 -459.415301 
L 488.385741 -466.496974 
L 485.272125 -488.458402 
L 482.158509 -467.657157 
L 479.044893 -477.763563 
L 475.931277 -442.714436 
L 472.817661 -440.229867 
L 469.704045 -422.219795 
L 466.590429 -459.294738 
L 463.476813 -462.478231 
L 460.363197 -446.412911 
L 457.249581 -427.375629 
L 454.135964 -459.920551 
L 451.022348 -446.302921 
L 447.908732 -469.61157 
L 444.795116 -444.213031 
L 441.6815 -456.526523 
L 438.567884 -437.588346 
L 435.454268 -433.672705 
L 432.340652 -461.362808 
L 429.227036 -441.510398 
L 426.11342 -461.795494 
L 422.999804 -455.311956 
L 419.886188 -450.737518 
L 416.772572 -451.702883 
L 413.658956 -460.078145 
L 410.54534 -442.995619 
L 407.431724 -460.574412 
L 404.318108 -429.022266 
L 401.204492 -462.651858 
L 398.090876 -468.718013 
L 394.97726 -429.320493 
L 391.863644 -430.561081 
L 388.750028 -441.823982 
L 385.636412 -431.085235 
L 382.522796 -423.258853 
L 379.40918 -439.645444 
L 376.295564 -420.647843 
L 373.181948 -428.251975 
L 370.068332 -424.473596 
L 366.954716 -400.68663 
L 363.841099 -434.38395 
L 360.727483 -408.407074 
L 357.613867 -404.935845 
L 354.500251 -411.805303 
L 351.386635 -438.579157 
L 348.273019 -434.600762 
L 345.159403 -399.685501 
L 342.045787 -398.622836 
L 338.932171 -383.859754 
L 335.818555 -402.488286 
L 332.704939 -399.546152 
L 329.591323 -406.811074 
L 326.477707 -360.190797 
L 323.364091 -365.39956 
L 320.250475 -358.31807 
L 317.136859 -379.448725 
L 314.023243 -395.319447 
L 310.909627 -341.024895 
L 307.796011 -352.683058 
L 304.682395 -355.901012 
L 301.568779 -334.0712 
L 298.455163 -337.251006 
L 295.341547 -328.491292 
L 292.227931 -331.250065 
L 289.114315 -321.982674 
L 286.000699 -300.297166 
L 282.887083 -285.860855 
L 279.773467 -281.394947 
L 276.659851 -273.894782 
L 273.546235 -300.450626 
L 270.432618 -284.863439 
L 267.319002 -266.448133 
L 264.205386 -263.917767 
L 261.09177 -265.76556 
L 257.978154 -285.907085 
L 254.864538 -271.647636 
L 251.750922 -225.320462 
L 248.637306 -281.209872 
L 245.52369 -243.226155 
L 242.410074 -281.164487 
L 239.296458 -236.353359 
L 236.182842 -231.648772 
L 233.069226 -259.653724 
L 229.95561 -207.686995 
L 226.841994 -206.127248 
L 223.728378 -232.805424 
L 220.614762 -222.888574 
L 217.501146 -243.404623 
L 214.38753 -232.975352 
L 211.273914 -201.941547 
L 208.160298 -218.108723 
L 205.046682 -217.05163 
L 201.933066 -208.089215 
L 198.81945 -207.810474 
L 195.705834 -233.16919 
L 192.592218 -219.022254 
L 189.478602 -225.768146 
L 186.364986 -206.239085 
L 183.25137 -210.107552 
L 180.137753 -185.613915 
L 177.024137 -167.624019 
z
" style="stroke: #1f77b4; stroke-opacity: 0.2"/>
    </defs>
    <g clip-path="url(#p497b2daed1)">
     <use xlink:href="#m448a88734f" x="0" y="614.994094" style="fill: #1f77b4; fill-opacity: 0.2; stroke: #1f77b4; stroke-opacity: 0.2"/>
    </g>
   </g>
   <g id="FillBetweenPolyCollection_2">
    <defs>
     <path id="m3deabb4dac" d="M 177.024137 -193.231703 
L 177.024137 -113.836522 
L 180.137753 -125.684492 
L 183.25137 -124.064626 
L 186.364986 -116.939424 
L 189.478602 -152.308571 
L 192.592218 -103.280032 
L 195.705834 -146.437682 
L 198.81945 -153.814113 
L 201.933066 -151.236378 
L 205.046682 -155.694143 
L 208.160298 -125.378189 
L 211.273914 -133.425189 
L 214.38753 -137.490426 
L 217.501146 -148.71133 
L 220.614762 -134.15186 
L 223.728378 -150.700109 
L 226.841994 -111.985592 
L 229.95561 -143.074343 
L 233.069226 -140.732533 
L 236.182842 -152.863678 
L 239.296458 -152.394317 
L 242.410074 -147.14995 
L 245.52369 -121.264898 
L 248.637306 -141.139003 
L 251.750922 -107.49655 
L 254.864538 -143.867613 
L 257.978154 -116.318938 
L 261.09177 -113.155336 
L 264.205386 -113.477149 
L 267.319002 -147.135843 
L 270.432618 -149.31595 
L 273.546235 -117.343715 
L 276.659851 -125.865995 
L 279.773467 -109.770612 
L 282.887083 -152.442907 
L 286.000699 -122.106087 
L 289.114315 -134.576058 
L 292.227931 -174.370634 
L 295.341547 -149.442413 
L 298.455163 -139.512471 
L 301.568779 -131.273196 
L 304.682395 -174.113123 
L 307.796011 -149.781631 
L 310.909627 -154.893245 
L 314.023243 -118.495483 
L 317.136859 -175.50907 
L 320.250475 -179.156237 
L 323.364091 -188.850227 
L 326.477707 -172.270454 
L 329.591323 -172.506016 
L 332.704939 -159.250451 
L 335.818555 -123.042182 
L 338.932171 -200.532913 
L 342.045787 -191.950566 
L 345.159403 -193.292091 
L 348.273019 -161.433348 
L 351.386635 -222.007352 
L 354.500251 -169.510072 
L 357.613867 -190.27477 
L 360.727483 -159.303499 
L 363.841099 -192.792849 
L 366.954716 -160.875516 
L 370.068332 -212.116859 
L 373.181948 -194.259465 
L 376.295564 -195.630189 
L 379.40918 -209.086597 
L 382.522796 -198.621467 
L 385.636412 -179.192363 
L 388.750028 -214.18524 
L 391.863644 -201.540174 
L 394.97726 -197.573873 
L 398.090876 -142.414936 
L 401.204492 -200.804174 
L 404.318108 -195.909185 
L 407.431724 -183.183384 
L 410.54534 -185.951826 
L 413.658956 -210.989677 
L 416.772572 -194.412882 
L 419.886188 -198.06774 
L 422.999804 -181.37794 
L 426.11342 -209.798141 
L 429.227036 -224.450719 
L 432.340652 -202.724318 
L 435.454268 -162.617899 
L 438.567884 -222.330393 
L 441.6815 -229.475146 
L 444.795116 -218.063942 
L 447.908732 -211.267938 
L 451.022348 -218.859586 
L 454.135964 -204.861183 
L 457.249581 -203.154053 
L 460.363197 -206.690119 
L 463.476813 -212.130713 
L 466.590429 -238.498061 
L 469.704045 -212.934268 
L 472.817661 -225.086614 
L 475.931277 -202.994147 
L 479.044893 -189.120685 
L 482.158509 -230.947965 
L 485.272125 -227.158731 
L 488.385741 -213.709734 
L 491.499357 -224.978993 
L 494.612973 -226.638242 
L 497.726589 -207.912942 
L 500.840205 -199.838577 
L 503.953821 -218.382318 
L 507.067437 -251.437758 
L 510.181053 -222.371987 
L 513.294669 -227.894439 
L 516.408285 -208.722945 
L 519.521901 -251.531357 
L 522.635517 -262.767397 
L 525.749133 -229.118466 
L 528.862749 -248.942983 
L 531.976365 -232.69508 
L 535.089981 -259.483235 
L 538.203597 -246.883408 
L 541.317213 -275.951617 
L 544.430829 -260.547367 
L 547.544446 -241.72825 
L 550.658062 -250.59286 
L 553.771678 -274.997952 
L 556.885294 -234.36642 
L 559.99891 -254.417477 
L 563.112526 -253.152213 
L 566.226142 -262.956069 
L 569.339758 -254.163562 
L 572.453374 -285.331635 
L 575.56699 -250.738891 
L 578.680606 -238.513751 
L 581.794222 -245.439881 
L 584.907838 -278.103867 
L 588.021454 -250.598086 
L 591.13507 -269.263414 
L 594.248686 -252.219635 
L 597.362302 -290.072081 
L 600.475918 -284.654428 
L 603.589534 -304.343437 
L 606.70315 -268.359911 
L 609.816766 -270.127476 
L 612.930382 -263.278355 
L 616.043998 -246.153694 
L 619.157614 -281.70329 
L 622.27123 -255.034703 
L 625.384846 -285.460485 
L 628.498462 -257.015431 
L 631.612078 -316.707962 
L 634.725694 -282.542495 
L 637.839311 -279.267364 
L 640.952927 -296.862579 
L 644.066543 -280.497675 
L 647.180159 -252.771634 
L 650.293775 -291.859366 
L 653.407391 -275.847989 
L 656.521007 -330.82077 
L 659.634623 -298.032412 
L 662.748239 -312.835003 
L 665.861855 -305.405611 
L 668.975471 -306.634815 
L 672.089087 -284.902104 
L 675.202703 -314.167913 
L 678.316319 -307.481866 
L 681.429935 -326.888342 
L 684.543551 -323.862897 
L 687.657167 -277.115067 
L 690.770783 -289.870343 
L 693.884399 -299.72362 
L 696.998015 -292.394934 
L 700.111631 -324.662059 
L 703.225247 -303.920114 
L 706.338863 -282.063991 
L 709.452479 -288.184693 
L 712.566095 -293.09532 
L 715.679711 -272.992221 
L 718.793327 -281.143968 
L 721.906943 -285.892991 
L 725.020559 -266.139896 
L 728.134176 -299.344859 
L 731.247792 -300.446181 
L 734.361408 -273.287387 
L 737.475024 -281.950366 
L 740.58864 -287.043153 
L 743.702256 -300.1493 
L 746.815872 -297.254711 
L 749.929488 -309.856297 
L 753.043104 -289.652914 
L 756.15672 -269.349252 
L 759.270336 -266.241608 
L 762.383952 -309.04218 
L 765.497568 -292.214858 
L 768.611184 -248.245833 
L 771.7248 -277.090517 
L 774.838416 -313.2497 
L 777.952032 -283.726137 
L 781.065648 -273.343785 
L 784.179264 -312.613205 
L 787.29288 -302.694035 
L 790.406496 -277.012128 
L 793.520112 -296.524498 
L 796.633728 -298.637697 
L 799.747344 -284.427973 
L 802.86096 -304.086091 
L 805.974576 -235.847042 
L 809.088192 -259.414425 
L 812.201808 -226.594996 
L 815.315424 -281.2417 
L 818.429041 -256.997545 
L 821.542657 -262.72556 
L 824.656273 -280.987647 
L 827.769889 -286.676777 
L 830.883505 -300.855509 
L 833.997121 -293.330865 
L 837.110737 -260.823261 
L 840.224353 -276.383248 
L 843.337969 -279.577494 
L 846.451585 -272.041839 
L 849.565201 -293.515858 
L 852.678817 -244.323903 
L 855.792433 -240.692603 
L 858.906049 -287.006128 
L 862.019665 -299.413455 
L 865.133281 -268.549597 
L 868.246897 -227.605776 
L 871.360513 -256.40593 
L 874.474129 -237.267007 
L 877.587745 -222.016029 
L 880.701361 -282.257031 
L 883.814977 -254.151801 
L 886.928593 -238.717325 
L 890.042209 -212.626306 
L 893.155825 -286.30121 
L 896.269441 -210.097866 
L 899.383057 -244.363542 
L 902.496673 -239.769494 
L 905.610289 -236.136932 
L 908.723906 -256.677767 
L 911.837522 -263.248263 
L 914.951138 -265.381324 
L 918.064754 -278.379589 
L 921.17837 -210.845693 
L 924.291986 -269.866549 
L 927.405602 -269.413523 
L 930.519218 -292.058368 
L 933.632834 -219.390717 
L 936.74645 -247.444593 
L 939.860066 -282.641871 
L 942.973682 -235.164926 
L 946.087298 -282.561627 
L 949.200914 -197.109442 
L 952.31453 -267.989211 
L 955.428146 -262.679159 
L 955.428146 -359.719457 
L 955.428146 -359.719457 
L 952.31453 -341.050926 
L 949.200914 -302.953639 
L 946.087298 -372.530105 
L 942.973682 -363.680582 
L 939.860066 -359.442922 
L 936.74645 -364.759395 
L 933.632834 -348.167831 
L 930.519218 -392.211091 
L 927.405602 -370.210498 
L 924.291986 -382.412872 
L 921.17837 -347.221309 
L 918.064754 -365.462899 
L 914.951138 -335.221879 
L 911.837522 -351.416499 
L 908.723906 -371.34547 
L 905.610289 -374.660898 
L 902.496673 -333.062139 
L 899.383057 -386.823542 
L 896.269441 -347.969135 
L 893.155825 -386.015925 
L 890.042209 -315.559889 
L 886.928593 -346.066629 
L 883.814977 -357.700648 
L 880.701361 -370.022391 
L 877.587745 -325.153264 
L 874.474129 -346.813868 
L 871.360513 -349.821897 
L 868.246897 -346.632008 
L 865.133281 -371.074424 
L 862.019665 -384.152927 
L 858.906049 -397.966411 
L 855.792433 -356.043675 
L 852.678817 -403.033972 
L 849.565201 -390.753601 
L 846.451585 -374.612962 
L 843.337969 -376.920394 
L 840.224353 -385.739262 
L 837.110737 -346.81072 
L 833.997121 -391.641674 
L 830.883505 -397.827047 
L 827.769889 -367.0088 
L 824.656273 -382.54102 
L 821.542657 -381.468465 
L 818.429041 -346.769511 
L 815.315424 -384.396196 
L 812.201808 -355.025106 
L 809.088192 -377.748824 
L 805.974576 -342.609212 
L 802.86096 -383.347219 
L 799.747344 -372.069916 
L 796.633728 -384.225606 
L 793.520112 -367.707245 
L 790.406496 -386.165 
L 787.29288 -399.152368 
L 784.179264 -380.09319 
L 781.065648 -378.23256 
L 777.952032 -379.802526 
L 774.838416 -388.596704 
L 771.7248 -381.516603 
L 768.611184 -351.654291 
L 765.497568 -396.976146 
L 762.383952 -385.070368 
L 759.270336 -375.491644 
L 756.15672 -367.110918 
L 753.043104 -376.336523 
L 749.929488 -386.013944 
L 746.815872 -396.506298 
L 743.702256 -388.690164 
L 740.58864 -397.226306 
L 737.475024 -372.086752 
L 734.361408 -377.234338 
L 731.247792 -380.307888 
L 728.134176 -409.532322 
L 725.020559 -369.617196 
L 721.906943 -397.321848 
L 718.793327 -388.712398 
L 715.679711 -388.075671 
L 712.566095 -392.580292 
L 709.452479 -382.374749 
L 706.338863 -399.041617 
L 703.225247 -400.387061 
L 700.111631 -423.235939 
L 696.998015 -409.451471 
L 693.884399 -390.522 
L 690.770783 -363.112153 
L 687.657167 -391.686678 
L 684.543551 -400.481996 
L 681.429935 -389.722694 
L 678.316319 -386.982218 
L 675.202703 -377.835401 
L 672.089087 -372.298862 
L 668.975471 -400.83621 
L 665.861855 -417.181586 
L 662.748239 -386.902164 
L 659.634623 -406.97784 
L 656.521007 -411.101066 
L 653.407391 -378.892204 
L 650.293775 -403.659337 
L 647.180159 -357.32312 
L 644.066543 -373.1879 
L 640.952927 -362.096079 
L 637.839311 -380.74591 
L 634.725694 -390.477717 
L 631.612078 -396.036145 
L 628.498462 -344.993927 
L 625.384846 -375.607405 
L 622.27123 -369.824682 
L 619.157614 -363.89689 
L 616.043998 -331.951017 
L 612.930382 -363.690265 
L 609.816766 -361.059608 
L 606.70315 -347.359461 
L 603.589534 -392.229882 
L 600.475918 -368.328067 
L 597.362302 -387.869676 
L 594.248686 -340.298173 
L 591.13507 -353.486735 
L 588.021454 -345.435108 
L 584.907838 -371.714779 
L 581.794222 -324.930975 
L 578.680606 -331.154026 
L 575.56699 -367.792792 
L 572.453374 -363.783932 
L 569.339758 -348.900411 
L 566.226142 -358.387927 
L 563.112526 -346.747909 
L 559.99891 -336.342638 
L 556.885294 -347.956757 
L 553.771678 -361.462214 
L 550.658062 -338.761095 
L 547.544446 -338.134153 
L 544.430829 -328.80659 
L 541.317213 -332.033898 
L 538.203597 -338.955158 
L 535.089981 -364.321532 
L 531.976365 -320.80191 
L 528.862749 -333.028656 
L 525.749133 -303.637728 
L 522.635517 -340.296573 
L 519.521901 -352.938771 
L 516.408285 -330.360949 
L 513.294669 -330.524094 
L 510.181053 -333.937311 
L 507.067437 -323.854642 
L 503.953821 -313.670797 
L 500.840205 -298.818343 
L 497.726589 -306.914767 
L 494.612973 -311.039495 
L 491.499357 -323.596449 
L 488.385741 -298.305664 
L 485.272125 -301.730534 
L 482.158509 -308.135928 
L 479.044893 -285.280052 
L 475.931277 -273.164285 
L 472.817661 -305.560346 
L 469.704045 -299.784209 
L 466.590429 -328.708943 
L 463.476813 -284.768514 
L 460.363197 -298.646039 
L 457.249581 -287.065933 
L 454.135964 -284.304186 
L 451.022348 -321.630462 
L 447.908732 -288.443599 
L 444.795116 -294.654534 
L 441.6815 -282.188714 
L 438.567884 -331.869672 
L 435.454268 -241.826599 
L 432.340652 -310.345696 
L 429.227036 -310.414708 
L 426.11342 -317.68497 
L 422.999804 -283.179708 
L 419.886188 -259.810669 
L 416.772572 -292.643255 
L 413.658956 -291.534171 
L 410.54534 -295.831229 
L 407.431724 -252.196536 
L 404.318108 -314.700059 
L 401.204492 -314.375078 
L 398.090876 -251.483397 
L 394.97726 -283.506104 
L 391.863644 -283.055191 
L 388.750028 -299.939392 
L 385.636412 -277.98297 
L 382.522796 -294.059293 
L 379.40918 -286.758013 
L 376.295564 -310.057509 
L 373.181948 -280.492811 
L 370.068332 -302.359311 
L 366.954716 -246.381293 
L 363.841099 -284.77174 
L 360.727483 -277.834117 
L 357.613867 -279.55596 
L 354.500251 -256.729837 
L 351.386635 -292.468821 
L 348.273019 -268.321952 
L 345.159403 -267.750169 
L 342.045787 -274.013237 
L 338.932171 -280.195525 
L 335.818555 -231.483793 
L 332.704939 -281.402554 
L 329.591323 -254.436971 
L 326.477707 -248.344835 
L 323.364091 -273.949728 
L 320.250475 -272.042934 
L 317.136859 -271.120095 
L 314.023243 -227.242021 
L 310.909627 -265.370503 
L 307.796011 -226.188218 
L 304.682395 -228.925219 
L 301.568779 -214.464308 
L 298.455163 -217.122739 
L 295.341547 -232.503597 
L 292.227931 -253.62697 
L 289.114315 -245.612257 
L 286.000699 -228.552961 
L 282.887083 -230.55772 
L 279.773467 -208.19532 
L 276.659851 -208.622264 
L 273.546235 -221.71455 
L 270.432618 -247.394693 
L 267.319002 -257.308654 
L 264.205386 -199.567237 
L 261.09177 -225.551391 
L 257.978154 -197.780065 
L 254.864538 -250.382256 
L 251.750922 -185.861658 
L 248.637306 -219.363133 
L 245.52369 -213.926437 
L 242.410074 -233.389902 
L 239.296458 -230.606308 
L 236.182842 -240.683114 
L 233.069226 -219.418065 
L 229.95561 -238.520127 
L 226.841994 -192.270322 
L 223.728378 -227.027433 
L 220.614762 -239.357215 
L 217.501146 -238.859301 
L 214.38753 -240.940194 
L 211.273914 -212.663853 
L 208.160298 -238.639337 
L 205.046682 -241.016499 
L 201.933066 -244.771186 
L 198.81945 -249.927307 
L 195.705834 -226.368315 
L 192.592218 -205.897427 
L 189.478602 -219.09127 
L 186.364986 -201.026506 
L 183.25137 -213.235943 
L 180.137753 -192.632976 
L 177.024137 -193.231703 
z
" style="stroke: #ff7f0e; stroke-opacity: 0.2"/>
    </defs>
    <g clip-path="url(#p497b2daed1)">
     <use xlink:href="#m3deabb4dac" x="0" y="614.994094" style="fill: #ff7f0e; fill-opacity: 0.2; stroke: #ff7f0e; stroke-opacity: 0.2"/>
    </g>
   </g>
   <g id="FillBetweenPolyCollection_3">
    <defs>
     <path id="mc3501c4fef" d="M 177.024137 -160.356335 
L 177.024137 -105.2303 
L 180.137753 -137.21598 
L 183.25137 -117.305189 
L 186.364986 -116.793172 
L 189.478602 -139.702296 
L 192.592218 -130.834126 
L 195.705834 -116.107722 
L 198.81945 -132.593079 
L 201.933066 -143.467056 
L 205.046682 -158.375148 
L 208.160298 -105.203077 
L 211.273914 -128.190075 
L 214.38753 -150.207618 
L 217.501146 -142.275493 
L 220.614762 -155.11803 
L 223.728378 -137.818919 
L 226.841994 -159.485314 
L 229.95561 -167.374684 
L 233.069226 -159.210951 
L 236.182842 -175.696924 
L 239.296458 -160.840673 
L 242.410074 -161.147416 
L 245.52369 -175.26026 
L 248.637306 -175.917191 
L 251.750922 -183.154255 
L 254.864538 -198.847012 
L 257.978154 -186.52703 
L 261.09177 -210.88372 
L 264.205386 -201.074212 
L 267.319002 -198.186953 
L 270.432618 -214.462445 
L 273.546235 -227.243773 
L 276.659851 -228.08714 
L 279.773467 -207.754295 
L 282.887083 -228.651124 
L 286.000699 -226.199886 
L 289.114315 -204.388941 
L 292.227931 -239.313351 
L 295.341547 -225.584033 
L 298.455163 -253.187829 
L 301.568779 -232.698127 
L 304.682395 -241.23289 
L 307.796011 -274.601538 
L 310.909627 -253.407322 
L 314.023243 -263.620561 
L 317.136859 -267.74731 
L 320.250475 -266.31229 
L 323.364091 -276.918981 
L 326.477707 -295.575507 
L 329.591323 -295.22218 
L 332.704939 -294.646598 
L 335.818555 -297.976992 
L 338.932171 -313.751215 
L 342.045787 -277.8496 
L 345.159403 -336.843947 
L 348.273019 -314.82648 
L 351.386635 -323.922056 
L 354.500251 -293.285208 
L 357.613867 -320.633321 
L 360.727483 -294.59404 
L 363.841099 -327.784349 
L 366.954716 -311.266406 
L 370.068332 -333.489097 
L 373.181948 -315.33307 
L 376.295564 -330.223092 
L 379.40918 -341.945194 
L 382.522796 -350.953479 
L 385.636412 -319.439408 
L 388.750028 -337.234101 
L 391.863644 -348.936628 
L 394.97726 -379.390654 
L 398.090876 -367.015611 
L 401.204492 -355.813755 
L 404.318108 -387.67122 
L 407.431724 -386.612988 
L 410.54534 -360.3834 
L 413.658956 -311.750171 
L 416.772572 -361.840626 
L 419.886188 -354.417156 
L 422.999804 -335.23973 
L 426.11342 -382.322982 
L 429.227036 -395.198256 
L 432.340652 -361.937591 
L 435.454268 -352.61422 
L 438.567884 -379.509272 
L 441.6815 -357.556929 
L 444.795116 -336.837552 
L 447.908732 -332.232455 
L 451.022348 -343.736316 
L 454.135964 -393.104138 
L 457.249581 -355.7472 
L 460.363197 -400.538656 
L 463.476813 -383.198565 
L 466.590429 -380.182405 
L 469.704045 -409.668964 
L 472.817661 -376.834756 
L 475.931277 -368.638875 
L 479.044893 -375.544143 
L 482.158509 -372.689777 
L 485.272125 -349.068387 
L 488.385741 -388.79601 
L 491.499357 -394.275003 
L 494.612973 -412.862424 
L 497.726589 -381.438517 
L 500.840205 -341.126009 
L 503.953821 -396.623562 
L 507.067437 -393.391262 
L 510.181053 -366.129033 
L 513.294669 -403.696377 
L 516.408285 -401.395188 
L 519.521901 -388.748008 
L 522.635517 -385.018885 
L 525.749133 -376.225466 
L 528.862749 -367.411277 
L 531.976365 -402.288829 
L 535.089981 -369.40472 
L 538.203597 -379.020205 
L 541.317213 -417.886878 
L 544.430829 -380.63287 
L 547.544446 -412.040204 
L 550.658062 -421.925609 
L 553.771678 -399.625467 
L 556.885294 -416.864453 
L 559.99891 -408.551411 
L 563.112526 -391.022329 
L 566.226142 -403.383102 
L 569.339758 -414.367412 
L 572.453374 -385.879251 
L 575.56699 -394.645274 
L 578.680606 -384.10016 
L 581.794222 -391.151734 
L 584.907838 -407.042434 
L 588.021454 -443.981532 
L 591.13507 -394.877189 
L 594.248686 -393.850166 
L 597.362302 -412.559679 
L 600.475918 -387.691834 
L 603.589534 -402.767501 
L 606.70315 -407.078594 
L 609.816766 -404.804227 
L 612.930382 -414.526337 
L 616.043998 -438.965891 
L 619.157614 -392.542815 
L 622.27123 -408.017082 
L 625.384846 -396.090742 
L 628.498462 -399.785153 
L 631.612078 -403.699086 
L 634.725694 -377.66371 
L 637.839311 -407.939477 
L 640.952927 -437.229229 
L 644.066543 -384.157045 
L 647.180159 -410.523934 
L 650.293775 -382.264837 
L 653.407391 -372.561023 
L 656.521007 -400.463764 
L 659.634623 -423.099431 
L 662.748239 -418.289892 
L 665.861855 -388.268176 
L 668.975471 -394.857426 
L 672.089087 -399.876645 
L 675.202703 -374.250062 
L 678.316319 -428.870231 
L 681.429935 -394.767331 
L 684.543551 -357.340044 
L 687.657167 -393.482729 
L 690.770783 -425.309768 
L 693.884399 -398.892279 
L 696.998015 -389.523373 
L 700.111631 -373.989018 
L 703.225247 -413.634185 
L 706.338863 -396.683306 
L 709.452479 -415.903225 
L 712.566095 -379.231744 
L 715.679711 -418.798924 
L 718.793327 -387.014947 
L 721.906943 -382.517069 
L 725.020559 -393.494209 
L 728.134176 -397.030231 
L 731.247792 -378.301262 
L 734.361408 -415.731636 
L 737.475024 -392.845537 
L 740.58864 -413.486612 
L 743.702256 -422.057958 
L 746.815872 -390.094536 
L 749.929488 -398.563301 
L 753.043104 -409.650254 
L 756.15672 -369.863941 
L 759.270336 -382.050471 
L 762.383952 -353.843455 
L 765.497568 -401.703818 
L 768.611184 -373.051242 
L 771.7248 -410.856477 
L 774.838416 -384.3132 
L 777.952032 -354.833306 
L 781.065648 -407.338999 
L 784.179264 -369.350172 
L 787.29288 -415.47241 
L 790.406496 -424.625085 
L 793.520112 -391.271428 
L 796.633728 -435.797292 
L 799.747344 -406.744079 
L 802.86096 -405.480614 
L 805.974576 -418.006291 
L 809.088192 -385.219946 
L 812.201808 -416.332846 
L 815.315424 -401.15676 
L 818.429041 -441.197419 
L 821.542657 -426.078477 
L 824.656273 -377.388111 
L 827.769889 -427.096807 
L 830.883505 -417.785097 
L 833.997121 -427.48324 
L 837.110737 -411.687427 
L 840.224353 -417.39299 
L 843.337969 -375.60103 
L 846.451585 -402.254085 
L 849.565201 -373.034586 
L 852.678817 -421.29075 
L 855.792433 -388.389829 
L 858.906049 -404.903758 
L 862.019665 -416.41161 
L 865.133281 -416.826374 
L 868.246897 -435.576908 
L 871.360513 -427.108664 
L 874.474129 -399.024896 
L 877.587745 -413.737645 
L 880.701361 -404.101635 
L 883.814977 -404.82393 
L 886.928593 -400.956439 
L 890.042209 -414.27809 
L 893.155825 -428.288048 
L 896.269441 -401.419203 
L 899.383057 -401.208874 
L 902.496673 -403.574007 
L 905.610289 -405.521504 
L 908.723906 -386.974545 
L 911.837522 -405.580454 
L 914.951138 -408.012324 
L 918.064754 -398.036462 
L 921.17837 -422.255575 
L 924.291986 -415.80649 
L 927.405602 -436.943722 
L 930.519218 -404.244689 
L 933.632834 -394.126834 
L 936.74645 -424.152053 
L 939.860066 -405.328762 
L 942.973682 -421.279331 
L 946.087298 -391.163719 
L 949.200914 -402.918892 
L 952.31453 -394.042923 
L 955.428146 -379.880116 
L 955.428146 -479.455715 
L 955.428146 -479.455715 
L 952.31453 -504.313724 
L 949.200914 -502.820068 
L 946.087298 -493.131371 
L 942.973682 -500.278882 
L 939.860066 -492.324804 
L 936.74645 -494.242311 
L 933.632834 -496.495956 
L 930.519218 -491.299647 
L 927.405602 -500.082201 
L 924.291986 -492.041707 
L 921.17837 -493.678016 
L 918.064754 -475.712462 
L 914.951138 -497.3751 
L 911.837522 -484.339257 
L 908.723906 -480.798216 
L 905.610289 -496.702071 
L 902.496673 -492.321866 
L 899.383057 -493.632382 
L 896.269441 -510.998997 
L 893.155825 -509.089413 
L 890.042209 -492.867029 
L 886.928593 -515.680228 
L 883.814977 -478.416542 
L 880.701361 -508.316565 
L 877.587745 -477.939762 
L 874.474129 -464.880939 
L 871.360513 -510.971874 
L 868.246897 -494.769777 
L 865.133281 -484.342581 
L 862.019665 -484.054267 
L 858.906049 -494.155964 
L 855.792433 -477.976778 
L 852.678817 -493.588222 
L 849.565201 -466.615065 
L 846.451585 -508.406423 
L 843.337969 -474.946323 
L 840.224353 -491.158285 
L 837.110737 -495.809227 
L 833.997121 -486.341118 
L 830.883505 -491.469254 
L 827.769889 -508.522961 
L 824.656273 -493.196963 
L 821.542657 -504.971287 
L 818.429041 -495.125431 
L 815.315424 -487.356795 
L 812.201808 -499.952282 
L 809.088192 -482.201277 
L 805.974576 -488.435749 
L 802.86096 -472.135234 
L 799.747344 -467.004841 
L 796.633728 -498.416321 
L 793.520112 -498.296744 
L 790.406496 -503.260826 
L 787.29288 -501.164261 
L 784.179264 -492.094889 
L 781.065648 -478.010706 
L 777.952032 -486.574039 
L 774.838416 -478.889557 
L 771.7248 -488.554781 
L 768.611184 -473.277646 
L 765.497568 -467.475101 
L 762.383952 -497.055441 
L 759.270336 -471.660734 
L 756.15672 -481.386491 
L 753.043104 -508.744108 
L 749.929488 -472.373312 
L 746.815872 -466.07744 
L 743.702256 -486.493317 
L 740.58864 -503.853133 
L 737.475024 -502.698797 
L 734.361408 -474.188075 
L 731.247792 -488.768424 
L 728.134176 -491.131789 
L 725.020559 -485.527797 
L 721.906943 -507.051105 
L 718.793327 -484.624742 
L 715.679711 -502.056208 
L 712.566095 -471.315611 
L 709.452479 -482.45342 
L 706.338863 -485.502549 
L 703.225247 -479.800913 
L 700.111631 -478.66757 
L 696.998015 -479.655543 
L 693.884399 -486.808968 
L 690.770783 -505.388455 
L 687.657167 -469.016949 
L 684.543551 -460.865734 
L 681.429935 -477.223894 
L 678.316319 -496.203371 
L 675.202703 -468.914975 
L 672.089087 -497.425382 
L 668.975471 -519.67001 
L 665.861855 -464.388413 
L 662.748239 -479.715214 
L 659.634623 -476.31183 
L 656.521007 -490.510569 
L 653.407391 -473.767868 
L 650.293775 -476.016376 
L 647.180159 -499.081956 
L 644.066543 -487.834185 
L 640.952927 -489.953606 
L 637.839311 -481.277156 
L 634.725694 -484.83597 
L 631.612078 -484.814472 
L 628.498462 -501.735342 
L 625.384846 -495.235126 
L 622.27123 -487.878789 
L 619.157614 -468.550709 
L 616.043998 -496.653877 
L 612.930382 -499.29802 
L 609.816766 -488.279336 
L 606.70315 -500.769603 
L 603.589534 -485.746055 
L 600.475918 -449.848584 
L 597.362302 -491.070049 
L 594.248686 -474.625675 
L 591.13507 -477.817117 
L 588.021454 -509.918261 
L 584.907838 -497.641912 
L 581.794222 -497.010283 
L 578.680606 -446.409481 
L 575.56699 -495.274437 
L 572.453374 -480.135815 
L 569.339758 -480.473842 
L 566.226142 -482.669682 
L 563.112526 -478.508127 
L 559.99891 -483.829074 
L 556.885294 -491.335283 
L 553.771678 -485.372699 
L 550.658062 -486.625664 
L 547.544446 -497.565688 
L 544.430829 -463.938325 
L 541.317213 -511.405193 
L 538.203597 -498.244107 
L 535.089981 -477.275707 
L 531.976365 -508.723216 
L 528.862749 -477.511457 
L 525.749133 -452.878019 
L 522.635517 -476.426179 
L 519.521901 -482.891682 
L 516.408285 -489.2276 
L 513.294669 -482.707945 
L 510.181053 -458.755984 
L 507.067437 -462.429177 
L 503.953821 -475.719205 
L 500.840205 -465.830523 
L 497.726589 -495.825796 
L 494.612973 -490.064225 
L 491.499357 -459.084662 
L 488.385741 -469.836739 
L 485.272125 -484.956642 
L 482.158509 -478.560657 
L 479.044893 -479.924757 
L 475.931277 -477.338473 
L 472.817661 -455.081037 
L 469.704045 -479.196132 
L 466.590429 -476.69265 
L 463.476813 -469.106483 
L 460.363197 -476.022578 
L 457.249581 -484.25399 
L 454.135964 -472.559391 
L 451.022348 -459.001749 
L 447.908732 -482.106396 
L 444.795116 -449.378185 
L 441.6815 -464.164239 
L 438.567884 -473.147316 
L 435.454268 -455.748467 
L 432.340652 -448.885871 
L 429.227036 -454.997563 
L 426.11342 -464.708983 
L 422.999804 -462.225252 
L 419.886188 -466.249392 
L 416.772572 -454.255916 
L 413.658956 -399.236242 
L 410.54534 -431.8085 
L 407.431724 -461.122058 
L 404.318108 -457.954591 
L 401.204492 -438.487377 
L 398.090876 -458.924023 
L 394.97726 -458.149761 
L 391.863644 -420.756781 
L 388.750028 -431.756229 
L 385.636412 -413.693957 
L 382.522796 -421.200702 
L 379.40918 -435.83361 
L 376.295564 -410.292588 
L 373.181948 -403.035661 
L 370.068332 -426.712763 
L 366.954716 -378.979211 
L 363.841099 -426.792888 
L 360.727483 -408.306979 
L 357.613867 -411.796964 
L 354.500251 -394.1481 
L 351.386635 -436.98288 
L 348.273019 -408.112255 
L 345.159403 -415.975594 
L 342.045787 -365.289806 
L 338.932171 -413.054446 
L 335.818555 -402.111716 
L 332.704939 -402.981337 
L 329.591323 -379.204186 
L 326.477707 -396.076265 
L 323.364091 -406.6474 
L 320.250475 -374.014806 
L 317.136859 -385.235186 
L 314.023243 -383.385773 
L 310.909627 -355.632811 
L 307.796011 -359.397855 
L 304.682395 -359.721847 
L 301.568779 -330.290412 
L 298.455163 -331.24458 
L 295.341547 -334.592192 
L 292.227931 -344.064442 
L 289.114315 -315.008774 
L 286.000699 -323.781711 
L 282.887083 -305.862763 
L 279.773467 -311.994958 
L 276.659851 -317.324451 
L 273.546235 -323.440901 
L 270.432618 -295.795258 
L 267.319002 -298.712272 
L 264.205386 -290.55193 
L 261.09177 -291.640126 
L 257.978154 -268.539066 
L 254.864538 -290.669896 
L 251.750922 -268.396451 
L 248.637306 -241.182705 
L 245.52369 -272.42352 
L 242.410074 -248.921701 
L 239.296458 -255.907684 
L 236.182842 -239.645276 
L 233.069226 -237.49969 
L 229.95561 -234.609041 
L 226.841994 -243.904564 
L 223.728378 -228.659378 
L 220.614762 -231.74952 
L 217.501146 -195.025074 
L 214.38753 -222.949916 
L 211.273914 -228.445131 
L 208.160298 -194.131291 
L 205.046682 -233.062408 
L 201.933066 -212.465072 
L 198.81945 -214.902115 
L 195.705834 -205.725134 
L 192.592218 -204.708747 
L 189.478602 -211.308288 
L 186.364986 -194.845056 
L 183.25137 -186.950723 
L 180.137753 -193.756888 
L 177.024137 -160.356335 
z
" style="stroke: #2ca02c; stroke-opacity: 0.2"/>
    </defs>
    <g clip-path="url(#p497b2daed1)">
     <use xlink:href="#mc3501c4fef" x="0" y="614.994094" style="fill: #2ca02c; fill-opacity: 0.2; stroke: #2ca02c; stroke-opacity: 0.2"/>
    </g>
   </g>
   <g id="matplotlib.axis_1">
    <g id="xtick_1">
     <g id="line2d_1">
      <path d="M 177.024137 547.344744 
L 177.024137 73.799291 
" clip-path="url(#p497b2daed1)" style="fill: none; stroke: #b0b0b0; stroke-opacity: 0.2; stroke-width: 0.8; stroke-linecap: square"/>
     </g>
     <g id="line2d_2">
      <defs>
       <path id="m4e045b010d" d="M 0 0 
L 0 0.1 
" style="stroke: #000000; stroke-width: 0.1"/>
      </defs>
      <g>
       <use xlink:href="#m4e045b010d" x="177.024137" y="557.344744" style="stroke: #000000; stroke-width: 0.1"/>
      </g>
     </g>
     <g id="text_1">
      <!-- 0 -->
      <g transform="translate(171.526937 574.074844) scale(0.1728 -0.1728)">
       <defs>
        <path id="DejaVuSans-30" d="M 2034 4250 
Q 1547 4250 1301 3770 
Q 1056 3291 1056 2328 
Q 1056 1369 1301 889 
Q 1547 409 2034 409 
Q 2525 409 2770 889 
Q 3016 1369 3016 2328 
Q 3016 3291 2770 3770 
Q 2525 4250 2034 4250 
z
M 2034 4750 
Q 2819 4750 3233 4129 
Q 3647 3509 3647 2328 
Q 3647 1150 3233 529 
Q 2819 -91 2034 -91 
Q 1250 -91 836 529 
Q 422 1150 422 2328 
Q 422 3509 836 4129 
Q 1250 4750 2034 4750 
z
" transform="scale(0.015625)"/>
       </defs>
       <use xlink:href="#DejaVuSans-30"/>
      </g>
     </g>
    </g>
    <g id="xtick_2">
     <g id="line2d_3">
      <path d="M 299.126727 547.344744 
L 299.126727 73.799291 
" clip-path="url(#p497b2daed1)" style="fill: none; stroke: #b0b0b0; stroke-opacity: 0.2; stroke-width: 0.8; stroke-linecap: square"/>
     </g>
     <g id="line2d_4">
      <g>
       <use xlink:href="#m4e045b010d" x="299.126727" y="557.344744" style="stroke: #000000; stroke-width: 0.1"/>
      </g>
     </g>
     <g id="text_2">
      <!-- 50000 -->
      <g transform="translate(271.640727 574.074844) scale(0.1728 -0.1728)">
       <defs>
        <path id="DejaVuSans-35" d="M 691 4666 
L 3169 4666 
L 3169 4134 
L 1269 4134 
L 1269 2991 
Q 1406 3038 1543 3061 
Q 1681 3084 1819 3084 
Q 2600 3084 3056 2656 
Q 3513 2228 3513 1497 
Q 3513 744 3044 326 
Q 2575 -91 1722 -91 
Q 1428 -91 1123 -41 
Q 819 9 494 109 
L 494 744 
Q 775 591 1075 516 
Q 1375 441 1709 441 
Q 2250 441 2565 725 
Q 2881 1009 2881 1497 
Q 2881 1984 2565 2268 
Q 2250 2553 1709 2553 
Q 1456 2553 1204 2497 
Q 953 2441 691 2322 
L 691 4666 
z
" transform="scale(0.015625)"/>
       </defs>
       <use xlink:href="#DejaVuSans-35"/>
       <use xlink:href="#DejaVuSans-30" transform="translate(63.623047 0)"/>
       <use xlink:href="#DejaVuSans-30" transform="translate(127.246094 0)"/>
       <use xlink:href="#DejaVuSans-30" transform="translate(190.869141 0)"/>
       <use xlink:href="#DejaVuSans-30" transform="translate(254.492188 0)"/>
      </g>
     </g>
    </g>
    <g id="xtick_3">
     <g id="line2d_5">
      <path d="M 421.229317 547.344744 
L 421.229317 73.799291 
" clip-path="url(#p497b2daed1)" style="fill: none; stroke: #b0b0b0; stroke-opacity: 0.2; stroke-width: 0.8; stroke-linecap: square"/>
     </g>
     <g id="line2d_6">
      <g>
       <use xlink:href="#m4e045b010d" x="421.229317" y="557.344744" style="stroke: #000000; stroke-width: 0.1"/>
      </g>
     </g>
     <g id="text_3">
      <!-- 100000 -->
      <g transform="translate(388.246117 574.074844) scale(0.1728 -0.1728)">
       <defs>
        <path id="DejaVuSans-31" d="M 794 531 
L 1825 531 
L 1825 4091 
L 703 3866 
L 703 4441 
L 1819 4666 
L 2450 4666 
L 2450 531 
L 3481 531 
L 3481 0 
L 794 0 
L 794 531 
z
" transform="scale(0.015625)"/>
       </defs>
       <use xlink:href="#DejaVuSans-31"/>
       <use xlink:href="#DejaVuSans-30" transform="translate(63.623047 0)"/>
       <use xlink:href="#DejaVuSans-30" transform="translate(127.246094 0)"/>
       <use xlink:href="#DejaVuSans-30" transform="translate(190.869141 0)"/>
       <use xlink:href="#DejaVuSans-30" transform="translate(254.492188 0)"/>
       <use xlink:href="#DejaVuSans-30" transform="translate(318.115234 0)"/>
      </g>
     </g>
    </g>
    <g id="xtick_4">
     <g id="line2d_7">
      <path d="M 543.331906 547.344744 
L 543.331906 73.799291 
" clip-path="url(#p497b2daed1)" style="fill: none; stroke: #b0b0b0; stroke-opacity: 0.2; stroke-width: 0.8; stroke-linecap: square"/>
     </g>
     <g id="line2d_8">
      <g>
       <use xlink:href="#m4e045b010d" x="543.331906" y="557.344744" style="stroke: #000000; stroke-width: 0.1"/>
      </g>
     </g>
     <g id="text_4">
      <!-- 150000 -->
      <g transform="translate(510.348706 574.074844) scale(0.1728 -0.1728)">
       <use xlink:href="#DejaVuSans-31"/>
       <use xlink:href="#DejaVuSans-35" transform="translate(63.623047 0)"/>
       <use xlink:href="#DejaVuSans-30" transform="translate(127.246094 0)"/>
       <use xlink:href="#DejaVuSans-30" transform="translate(190.869141 0)"/>
       <use xlink:href="#DejaVuSans-30" transform="translate(254.492188 0)"/>
       <use xlink:href="#DejaVuSans-30" transform="translate(318.115234 0)"/>
      </g>
     </g>
    </g>
    <g id="xtick_5">
     <g id="line2d_9">
      <path d="M 665.434496 547.344744 
L 665.434496 73.799291 
" clip-path="url(#p497b2daed1)" style="fill: none; stroke: #b0b0b0; stroke-opacity: 0.2; stroke-width: 0.8; stroke-linecap: square"/>
     </g>
     <g id="line2d_10">
      <g>
       <use xlink:href="#m4e045b010d" x="665.434496" y="557.344744" style="stroke: #000000; stroke-width: 0.1"/>
      </g>
     </g>
     <g id="text_5">
      <!-- 200000 -->
      <g transform="translate(632.451296 574.074844) scale(0.1728 -0.1728)">
       <defs>
        <path id="DejaVuSans-32" d="M 1228 531 
L 3431 531 
L 3431 0 
L 469 0 
L 469 531 
Q 828 903 1448 1529 
Q 2069 2156 2228 2338 
Q 2531 2678 2651 2914 
Q 2772 3150 2772 3378 
Q 2772 3750 2511 3984 
Q 2250 4219 1831 4219 
Q 1534 4219 1204 4116 
Q 875 4013 500 3803 
L 500 4441 
Q 881 4594 1212 4672 
Q 1544 4750 1819 4750 
Q 2544 4750 2975 4387 
Q 3406 4025 3406 3419 
Q 3406 3131 3298 2873 
Q 3191 2616 2906 2266 
Q 2828 2175 2409 1742 
Q 1991 1309 1228 531 
z
" transform="scale(0.015625)"/>
       </defs>
       <use xlink:href="#DejaVuSans-32"/>
       <use xlink:href="#DejaVuSans-30" transform="translate(63.623047 0)"/>
       <use xlink:href="#DejaVuSans-30" transform="translate(127.246094 0)"/>
       <use xlink:href="#DejaVuSans-30" transform="translate(190.869141 0)"/>
       <use xlink:href="#DejaVuSans-30" transform="translate(254.492188 0)"/>
       <use xlink:href="#DejaVuSans-30" transform="translate(318.115234 0)"/>
      </g>
     </g>
    </g>
    <g id="xtick_6">
     <g id="line2d_11">
      <path d="M 787.537085 547.344744 
L 787.537085 73.799291 
" clip-path="url(#p497b2daed1)" style="fill: none; stroke: #b0b0b0; stroke-opacity: 0.2; stroke-width: 0.8; stroke-linecap: square"/>
     </g>
     <g id="line2d_12">
      <g>
       <use xlink:href="#m4e045b010d" x="787.537085" y="557.344744" style="stroke: #000000; stroke-width: 0.1"/>
      </g>
     </g>
     <g id="text_6">
      <!-- 250000 -->
      <g transform="translate(754.553885 574.074844) scale(0.1728 -0.1728)">
       <use xlink:href="#DejaVuSans-32"/>
       <use xlink:href="#DejaVuSans-35" transform="translate(63.623047 0)"/>
       <use xlink:href="#DejaVuSans-30" transform="translate(127.246094 0)"/>
       <use xlink:href="#DejaVuSans-30" transform="translate(190.869141 0)"/>
       <use xlink:href="#DejaVuSans-30" transform="translate(254.492188 0)"/>
       <use xlink:href="#DejaVuSans-30" transform="translate(318.115234 0)"/>
      </g>
     </g>
    </g>
    <g id="xtick_7">
     <g id="line2d_13">
      <path d="M 909.639675 547.344744 
L 909.639675 73.799291 
" clip-path="url(#p497b2daed1)" style="fill: none; stroke: #b0b0b0; stroke-opacity: 0.2; stroke-width: 0.8; stroke-linecap: square"/>
     </g>
     <g id="line2d_14">
      <g>
       <use xlink:href="#m4e045b010d" x="909.639675" y="557.344744" style="stroke: #000000; stroke-width: 0.1"/>
      </g>
     </g>
     <g id="text_7">
      <!-- 300000 -->
      <g transform="translate(876.656475 574.074844) scale(0.1728 -0.1728)">
       <defs>
        <path id="DejaVuSans-33" d="M 2597 2516 
Q 3050 2419 3304 2112 
Q 3559 1806 3559 1356 
Q 3559 666 3084 287 
Q 2609 -91 1734 -91 
Q 1441 -91 1130 -33 
Q 819 25 488 141 
L 488 750 
Q 750 597 1062 519 
Q 1375 441 1716 441 
Q 2309 441 2620 675 
Q 2931 909 2931 1356 
Q 2931 1769 2642 2001 
Q 2353 2234 1838 2234 
L 1294 2234 
L 1294 2753 
L 1863 2753 
Q 2328 2753 2575 2939 
Q 2822 3125 2822 3475 
Q 2822 3834 2567 4026 
Q 2313 4219 1838 4219 
Q 1578 4219 1281 4162 
Q 984 4106 628 3988 
L 628 4550 
Q 988 4650 1302 4700 
Q 1616 4750 1894 4750 
Q 2613 4750 3031 4423 
Q 3450 4097 3450 3541 
Q 3450 3153 3228 2886 
Q 3006 2619 2597 2516 
z
" transform="scale(0.015625)"/>
       </defs>
       <use xlink:href="#DejaVuSans-33"/>
       <use xlink:href="#DejaVuSans-30" transform="translate(63.623047 0)"/>
       <use xlink:href="#DejaVuSans-30" transform="translate(127.246094 0)"/>
       <use xlink:href="#DejaVuSans-30" transform="translate(190.869141 0)"/>
       <use xlink:href="#DejaVuSans-30" transform="translate(254.492188 0)"/>
       <use xlink:href="#DejaVuSans-30" transform="translate(318.115234 0)"/>
      </g>
     </g>
    </g>
    <g id="text_8">
     <!-- Timesteps -->
     <g transform="translate(521.896192 594.798644) scale(0.1728 -0.1728)">
      <defs>
       <path id="DejaVuSans-54" d="M -19 4666 
L 3928 4666 
L 3928 4134 
L 2272 4134 
L 2272 0 
L 1638 0 
L 1638 4134 
L -19 4134 
L -19 4666 
z
" transform="scale(0.015625)"/>
       <path id="DejaVuSans-69" d="M 603 3500 
L 1178 3500 
L 1178 0 
L 603 0 
L 603 3500 
z
M 603 4863 
L 1178 4863 
L 1178 4134 
L 603 4134 
L 603 4863 
z
" transform="scale(0.015625)"/>
       <path id="DejaVuSans-6d" d="M 3328 2828 
Q 3544 3216 3844 3400 
Q 4144 3584 4550 3584 
Q 5097 3584 5394 3201 
Q 5691 2819 5691 2113 
L 5691 0 
L 5113 0 
L 5113 2094 
Q 5113 2597 4934 2840 
Q 4756 3084 4391 3084 
Q 3944 3084 3684 2787 
Q 3425 2491 3425 1978 
L 3425 0 
L 2847 0 
L 2847 2094 
Q 2847 2600 2669 2842 
Q 2491 3084 2119 3084 
Q 1678 3084 1418 2786 
Q 1159 2488 1159 1978 
L 1159 0 
L 581 0 
L 581 3500 
L 1159 3500 
L 1159 2956 
Q 1356 3278 1631 3431 
Q 1906 3584 2284 3584 
Q 2666 3584 2933 3390 
Q 3200 3197 3328 2828 
z
" transform="scale(0.015625)"/>
       <path id="DejaVuSans-65" d="M 3597 1894 
L 3597 1613 
L 953 1613 
Q 991 1019 1311 708 
Q 1631 397 2203 397 
Q 2534 397 2845 478 
Q 3156 559 3463 722 
L 3463 178 
Q 3153 47 2828 -22 
Q 2503 -91 2169 -91 
Q 1331 -91 842 396 
Q 353 884 353 1716 
Q 353 2575 817 3079 
Q 1281 3584 2069 3584 
Q 2775 3584 3186 3129 
Q 3597 2675 3597 1894 
z
M 3022 2063 
Q 3016 2534 2758 2815 
Q 2500 3097 2075 3097 
Q 1594 3097 1305 2825 
Q 1016 2553 972 2059 
L 3022 2063 
z
" transform="scale(0.015625)"/>
       <path id="DejaVuSans-73" d="M 2834 3397 
L 2834 2853 
Q 2591 2978 2328 3040 
Q 2066 3103 1784 3103 
Q 1356 3103 1142 2972 
Q 928 2841 928 2578 
Q 928 2378 1081 2264 
Q 1234 2150 1697 2047 
L 1894 2003 
Q 2506 1872 2764 1633 
Q 3022 1394 3022 966 
Q 3022 478 2636 193 
Q 2250 -91 1575 -91 
Q 1294 -91 989 -36 
Q 684 19 347 128 
L 347 722 
Q 666 556 975 473 
Q 1284 391 1588 391 
Q 1994 391 2212 530 
Q 2431 669 2431 922 
Q 2431 1156 2273 1281 
Q 2116 1406 1581 1522 
L 1381 1569 
Q 847 1681 609 1914 
Q 372 2147 372 2553 
Q 372 3047 722 3315 
Q 1072 3584 1716 3584 
Q 2034 3584 2315 3537 
Q 2597 3491 2834 3397 
z
" transform="scale(0.015625)"/>
       <path id="DejaVuSans-74" d="M 1172 4494 
L 1172 3500 
L 2356 3500 
L 2356 3053 
L 1172 3053 
L 1172 1153 
Q 1172 725 1289 603 
Q 1406 481 1766 481 
L 2356 481 
L 2356 0 
L 1766 0 
Q 1100 0 847 248 
Q 594 497 594 1153 
L 594 3053 
L 172 3053 
L 172 3500 
L 594 3500 
L 594 4494 
L 1172 4494 
z
" transform="scale(0.015625)"/>
       <path id="DejaVuSans-70" d="M 1159 525 
L 1159 -1331 
L 581 -1331 
L 581 3500 
L 1159 3500 
L 1159 2969 
Q 1341 3281 1617 3432 
Q 1894 3584 2278 3584 
Q 2916 3584 3314 3078 
Q 3713 2572 3713 1747 
Q 3713 922 3314 415 
Q 2916 -91 2278 -91 
Q 1894 -91 1617 61 
Q 1341 213 1159 525 
z
M 3116 1747 
Q 3116 2381 2855 2742 
Q 2594 3103 2138 3103 
Q 1681 3103 1420 2742 
Q 1159 2381 1159 1747 
Q 1159 1113 1420 752 
Q 1681 391 2138 391 
Q 2594 391 2855 752 
Q 3116 1113 3116 1747 
z
" transform="scale(0.015625)"/>
      </defs>
      <use xlink:href="#DejaVuSans-54"/>
      <use xlink:href="#DejaVuSans-69" transform="translate(57.958984 0)"/>
      <use xlink:href="#DejaVuSans-6d" transform="translate(85.742188 0)"/>
      <use xlink:href="#DejaVuSans-65" transform="translate(183.154297 0)"/>
      <use xlink:href="#DejaVuSans-73" transform="translate(244.677734 0)"/>
      <use xlink:href="#DejaVuSans-74" transform="translate(296.777344 0)"/>
      <use xlink:href="#DejaVuSans-65" transform="translate(335.986328 0)"/>
      <use xlink:href="#DejaVuSans-70" transform="translate(397.509766 0)"/>
      <use xlink:href="#DejaVuSans-73" transform="translate(460.986328 0)"/>
     </g>
    </g>
   </g>
   <g id="matplotlib.axis_2">
    <g id="ytick_1">
     <g id="line2d_15">
      <path d="M 138.103937 514.366587 
L 994.348346 514.366587 
" clip-path="url(#p497b2daed1)" style="fill: none; stroke: #b0b0b0; stroke-opacity: 0.2; stroke-width: 0.8; stroke-linecap: square"/>
     </g>
     <g id="line2d_16">
      <defs>
       <path id="mf8a53f59dd" d="M 0 0 
L -0.1 0 
" style="stroke: #000000; stroke-width: 0.1"/>
      </defs>
      <g>
       <use xlink:href="#mf8a53f59dd" x="128.103937" y="514.366587" style="stroke: #000000; stroke-width: 0.1"/>
      </g>
     </g>
     <g id="text_9">
      <!-- 0.4 -->
      <g transform="translate(82.543237 520.931637) scale(0.1728 -0.1728)">
       <defs>
        <path id="DejaVuSans-2212" d="M 678 2272 
L 4684 2272 
L 4684 1741 
L 678 1741 
L 678 2272 
z
" transform="scale(0.015625)"/>
        <path id="DejaVuSans-2e" d="M 684 794 
L 1344 794 
L 1344 0 
L 684 0 
L 684 794 
z
" transform="scale(0.015625)"/>
        <path id="DejaVuSans-34" d="M 2419 4116 
L 825 1625 
L 2419 1625 
L 2419 4116 
z
M 2253 4666 
L 3047 4666 
L 3047 1625 
L 3713 1625 
L 3713 1100 
L 3047 1100 
L 3047 0 
L 2419 0 
L 2419 1100 
L 313 1100 
L 313 1709 
L 2253 4666 
z
" transform="scale(0.015625)"/>
       </defs>
       <use xlink:href="#DejaVuSans-2212"/>
       <use xlink:href="#DejaVuSans-30" transform="translate(83.789062 0)"/>
       <use xlink:href="#DejaVuSans-2e" transform="translate(147.412109 0)"/>
       <use xlink:href="#DejaVuSans-34" transform="translate(179.199219 0)"/>
      </g>
     </g>
    </g>
    <g id="ytick_2">
     <g id="line2d_17">
      <path d="M 138.103937 444.058809 
L 994.348346 444.058809 
" clip-path="url(#p497b2daed1)" style="fill: none; stroke: #b0b0b0; stroke-opacity: 0.2; stroke-width: 0.8; stroke-linecap: square"/>
     </g>
     <g id="line2d_18">
      <g>
       <use xlink:href="#mf8a53f59dd" x="128.103937" y="444.058809" style="stroke: #000000; stroke-width: 0.1"/>
      </g>
     </g>
     <g id="text_10">
      <!-- 0.2 -->
      <g transform="translate(82.543237 450.623859) scale(0.1728 -0.1728)">
       <use xlink:href="#DejaVuSans-2212"/>
       <use xlink:href="#DejaVuSans-30" transform="translate(83.789062 0)"/>
       <use xlink:href="#DejaVuSans-2e" transform="translate(147.412109 0)"/>
       <use xlink:href="#DejaVuSans-32" transform="translate(179.199219 0)"/>
      </g>
     </g>
    </g>
    <g id="ytick_3">
     <g id="line2d_19">
      <path d="M 138.103937 373.751032 
L 994.348346 373.751032 
" clip-path="url(#p497b2daed1)" style="fill: none; stroke: #b0b0b0; stroke-opacity: 0.2; stroke-width: 0.8; stroke-linecap: square"/>
     </g>
     <g id="line2d_20">
      <g>
       <use xlink:href="#mf8a53f59dd" x="128.103937" y="373.751032" style="stroke: #000000; stroke-width: 0.1"/>
      </g>
     </g>
     <g id="text_11">
      <!-- 0.0 -->
      <g transform="translate(97.023337 380.316082) scale(0.1728 -0.1728)">
       <use xlink:href="#DejaVuSans-30"/>
       <use xlink:href="#DejaVuSans-2e" transform="translate(63.623047 0)"/>
       <use xlink:href="#DejaVuSans-30" transform="translate(95.410156 0)"/>
      </g>
     </g>
    </g>
    <g id="ytick_4">
     <g id="line2d_21">
      <path d="M 138.103937 303.443255 
L 994.348346 303.443255 
" clip-path="url(#p497b2daed1)" style="fill: none; stroke: #b0b0b0; stroke-opacity: 0.2; stroke-width: 0.8; stroke-linecap: square"/>
     </g>
     <g id="line2d_22">
      <g>
       <use xlink:href="#mf8a53f59dd" x="128.103937" y="303.443255" style="stroke: #000000; stroke-width: 0.1"/>
      </g>
     </g>
     <g id="text_12">
      <!-- 0.2 -->
      <g transform="translate(97.023337 310.008305) scale(0.1728 -0.1728)">
       <use xlink:href="#DejaVuSans-30"/>
       <use xlink:href="#DejaVuSans-2e" transform="translate(63.623047 0)"/>
       <use xlink:href="#DejaVuSans-32" transform="translate(95.410156 0)"/>
      </g>
     </g>
    </g>
    <g id="ytick_5">
     <g id="line2d_23">
      <path d="M 138.103937 233.135477 
L 994.348346 233.135477 
" clip-path="url(#p497b2daed1)" style="fill: none; stroke: #b0b0b0; stroke-opacity: 0.2; stroke-width: 0.8; stroke-linecap: square"/>
     </g>
     <g id="line2d_24">
      <g>
       <use xlink:href="#mf8a53f59dd" x="128.103937" y="233.135477" style="stroke: #000000; stroke-width: 0.1"/>
      </g>
     </g>
     <g id="text_13">
      <!-- 0.4 -->
      <g transform="translate(97.023337 239.700527) scale(0.1728 -0.1728)">
       <use xlink:href="#DejaVuSans-30"/>
       <use xlink:href="#DejaVuSans-2e" transform="translate(63.623047 0)"/>
       <use xlink:href="#DejaVuSans-34" transform="translate(95.410156 0)"/>
      </g>
     </g>
    </g>
    <g id="ytick_6">
     <g id="line2d_25">
      <path d="M 138.103937 162.8277 
L 994.348346 162.8277 
" clip-path="url(#p497b2daed1)" style="fill: none; stroke: #b0b0b0; stroke-opacity: 0.2; stroke-width: 0.8; stroke-linecap: square"/>
     </g>
     <g id="line2d_26">
      <g>
       <use xlink:href="#mf8a53f59dd" x="128.103937" y="162.8277" style="stroke: #000000; stroke-width: 0.1"/>
      </g>
     </g>
     <g id="text_14">
      <!-- 0.6 -->
      <g transform="translate(97.023337 169.39275) scale(0.1728 -0.1728)">
       <defs>
        <path id="DejaVuSans-36" d="M 2113 2584 
Q 1688 2584 1439 2293 
Q 1191 2003 1191 1497 
Q 1191 994 1439 701 
Q 1688 409 2113 409 
Q 2538 409 2786 701 
Q 3034 994 3034 1497 
Q 3034 2003 2786 2293 
Q 2538 2584 2113 2584 
z
M 3366 4563 
L 3366 3988 
Q 3128 4100 2886 4159 
Q 2644 4219 2406 4219 
Q 1781 4219 1451 3797 
Q 1122 3375 1075 2522 
Q 1259 2794 1537 2939 
Q 1816 3084 2150 3084 
Q 2853 3084 3261 2657 
Q 3669 2231 3669 1497 
Q 3669 778 3244 343 
Q 2819 -91 2113 -91 
Q 1303 -91 875 529 
Q 447 1150 447 2328 
Q 447 3434 972 4092 
Q 1497 4750 2381 4750 
Q 2619 4750 2861 4703 
Q 3103 4656 3366 4563 
z
" transform="scale(0.015625)"/>
       </defs>
       <use xlink:href="#DejaVuSans-30"/>
       <use xlink:href="#DejaVuSans-2e" transform="translate(63.623047 0)"/>
       <use xlink:href="#DejaVuSans-36" transform="translate(95.410156 0)"/>
      </g>
     </g>
    </g>
    <g id="ytick_7">
     <g id="line2d_27">
      <path d="M 138.103937 92.519923 
L 994.348346 92.519923 
" clip-path="url(#p497b2daed1)" style="fill: none; stroke: #b0b0b0; stroke-opacity: 0.2; stroke-width: 0.8; stroke-linecap: square"/>
     </g>
     <g id="line2d_28">
      <g>
       <use xlink:href="#mf8a53f59dd" x="128.103937" y="92.519923" style="stroke: #000000; stroke-width: 0.1"/>
      </g>
     </g>
     <g id="text_15">
      <!-- 0.8 -->
      <g transform="translate(97.023337 99.084973) scale(0.1728 -0.1728)">
       <defs>
        <path id="DejaVuSans-38" d="M 2034 2216 
Q 1584 2216 1326 1975 
Q 1069 1734 1069 1313 
Q 1069 891 1326 650 
Q 1584 409 2034 409 
Q 2484 409 2743 651 
Q 3003 894 3003 1313 
Q 3003 1734 2745 1975 
Q 2488 2216 2034 2216 
z
M 1403 2484 
Q 997 2584 770 2862 
Q 544 3141 544 3541 
Q 544 4100 942 4425 
Q 1341 4750 2034 4750 
Q 2731 4750 3128 4425 
Q 3525 4100 3525 3541 
Q 3525 3141 3298 2862 
Q 3072 2584 2669 2484 
Q 3125 2378 3379 2068 
Q 3634 1759 3634 1313 
Q 3634 634 3220 271 
Q 2806 -91 2034 -91 
Q 1263 -91 848 271 
Q 434 634 434 1313 
Q 434 1759 690 2068 
Q 947 2378 1403 2484 
z
M 1172 3481 
Q 1172 3119 1398 2916 
Q 1625 2713 2034 2713 
Q 2441 2713 2670 2916 
Q 2900 3119 2900 3481 
Q 2900 3844 2670 4047 
Q 2441 4250 2034 4250 
Q 1625 4250 1398 4047 
Q 1172 3844 1172 3481 
z
" transform="scale(0.015625)"/>
       </defs>
       <use xlink:href="#DejaVuSans-30"/>
       <use xlink:href="#DejaVuSans-2e" transform="translate(63.623047 0)"/>
       <use xlink:href="#DejaVuSans-38" transform="translate(95.410156 0)"/>
      </g>
     </g>
    </g>
    <g id="text_16">
     <!-- Hopper return -->
     <g transform="translate(74.949537 371.353068) rotate(-90) scale(0.1728 -0.1728)">
      <defs>
       <path id="DejaVuSans-48" d="M 628 4666 
L 1259 4666 
L 1259 2753 
L 3553 2753 
L 3553 4666 
L 4184 4666 
L 4184 0 
L 3553 0 
L 3553 2222 
L 1259 2222 
L 1259 0 
L 628 0 
L 628 4666 
z
" transform="scale(0.015625)"/>
       <path id="DejaVuSans-6f" d="M 1959 3097 
Q 1497 3097 1228 2736 
Q 959 2375 959 1747 
Q 959 1119 1226 758 
Q 1494 397 1959 397 
Q 2419 397 2687 759 
Q 2956 1122 2956 1747 
Q 2956 2369 2687 2733 
Q 2419 3097 1959 3097 
z
M 1959 3584 
Q 2709 3584 3137 3096 
Q 3566 2609 3566 1747 
Q 3566 888 3137 398 
Q 2709 -91 1959 -91 
Q 1206 -91 779 398 
Q 353 888 353 1747 
Q 353 2609 779 3096 
Q 1206 3584 1959 3584 
z
" transform="scale(0.015625)"/>
       <path id="DejaVuSans-72" d="M 2631 2963 
Q 2534 3019 2420 3045 
Q 2306 3072 2169 3072 
Q 1681 3072 1420 2755 
Q 1159 2438 1159 1844 
L 1159 0 
L 581 0 
L 581 3500 
L 1159 3500 
L 1159 2956 
Q 1341 3275 1631 3429 
Q 1922 3584 2338 3584 
Q 2397 3584 2469 3576 
Q 2541 3569 2628 3553 
L 2631 2963 
z
" transform="scale(0.015625)"/>
       <path id="DejaVuSans-20" transform="scale(0.015625)"/>
       <path id="DejaVuSans-75" d="M 544 1381 
L 544 3500 
L 1119 3500 
L 1119 1403 
Q 1119 906 1312 657 
Q 1506 409 1894 409 
Q 2359 409 2629 706 
Q 2900 1003 2900 1516 
L 2900 3500 
L 3475 3500 
L 3475 0 
L 2900 0 
L 2900 538 
Q 2691 219 2414 64 
Q 2138 -91 1772 -91 
Q 1169 -91 856 284 
Q 544 659 544 1381 
z
M 1991 3584 
L 1991 3584 
z
" transform="scale(0.015625)"/>
       <path id="DejaVuSans-6e" d="M 3513 2113 
L 3513 0 
L 2938 0 
L 2938 2094 
Q 2938 2591 2744 2837 
Q 2550 3084 2163 3084 
Q 1697 3084 1428 2787 
Q 1159 2491 1159 1978 
L 1159 0 
L 581 0 
L 581 3500 
L 1159 3500 
L 1159 2956 
Q 1366 3272 1645 3428 
Q 1925 3584 2291 3584 
Q 2894 3584 3203 3211 
Q 3513 2838 3513 2113 
z
" transform="scale(0.015625)"/>
      </defs>
      <use xlink:href="#DejaVuSans-48"/>
      <use xlink:href="#DejaVuSans-6f" transform="translate(75.195312 0)"/>
      <use xlink:href="#DejaVuSans-70" transform="translate(136.376953 0)"/>
      <use xlink:href="#DejaVuSans-70" transform="translate(199.853516 0)"/>
      <use xlink:href="#DejaVuSans-65" transform="translate(263.330078 0)"/>
      <use xlink:href="#DejaVuSans-72" transform="translate(324.853516 0)"/>
      <use xlink:href="#DejaVuSans-20" transform="translate(365.966797 0)"/>
      <use xlink:href="#DejaVuSans-72" transform="translate(397.753906 0)"/>
      <use xlink:href="#DejaVuSans-65" transform="translate(436.617188 0)"/>
      <use xlink:href="#DejaVuSans-74" transform="translate(498.140625 0)"/>
      <use xlink:href="#DejaVuSans-75" transform="translate(537.349609 0)"/>
      <use xlink:href="#DejaVuSans-72" transform="translate(600.728516 0)"/>
      <use xlink:href="#DejaVuSans-6e" transform="translate(640.091797 0)"/>
     </g>
    </g>
   </g>
   <g id="line2d_29">
    <path d="M 177.024137 486.595013 
L 180.137753 454.956513 
L 183.25137 434.03995 
L 186.364986 441.598036 
L 189.478602 421.736089 
L 192.592218 440.894958 
L 195.705834 414.705311 
L 198.81945 445.992272 
L 201.933066 440.719189 
L 205.046682 431.403408 
L 208.160298 432.633794 
L 211.273914 450.913816 
L 214.38753 433.86418 
L 217.501146 406.092608 
L 220.614762 423.493783 
L 223.728378 424.021092 
L 226.841994 454.780744 
L 229.95561 436.676491 
L 233.069226 397.128367 
L 236.182842 416.111467 
L 239.296458 409.959535 
L 242.410074 372.520645 
L 245.52369 417.166083 
L 248.637306 379.727192 
L 251.750922 419.099547 
L 254.864538 388.515663 
L 257.978154 369.884102 
L 261.09177 379.375652 
L 264.205386 395.546441 
L 267.319002 387.461047 
L 270.432618 379.024113 
L 273.546235 357.58024 
L 276.659851 384.648735 
L 279.773467 373.223721 
L 282.887083 366.017174 
L 286.000699 358.107549 
L 289.114315 334.554443 
L 292.227931 332.620979 
L 295.341547 336.136368 
L 298.455163 322.953659 
L 301.568779 327.699434 
L 304.682395 306.958639 
L 307.796011 326.469048 
L 310.909627 315.747112 
L 314.023243 269.695517 
L 320.250475 312.407493 
L 323.364091 285.690537 
L 326.477707 307.134409 
L 329.591323 260.555506 
L 332.704939 267.234744 
L 335.818555 266.180129 
L 338.932171 270.398594 
L 342.045787 264.070893 
L 345.159403 271.62898 
L 348.273019 234.893166 
L 351.386635 234.190088 
L 354.500251 251.591262 
L 357.613867 251.239724 
L 360.727483 242.97856 
L 363.841099 227.510848 
L 366.954716 259.852427 
L 370.068332 240.342019 
L 373.181948 229.79585 
L 376.295564 239.111632 
L 379.40918 212.218907 
L 382.522796 233.48701 
L 385.636412 239.2874 
L 388.750028 218.370838 
L 391.863644 229.620083 
L 394.97726 228.038156 
L 398.090876 193.587346 
L 401.204492 196.926964 
L 404.318108 223.116611 
L 407.431724 202.903126 
L 410.54534 207.82467 
L 413.658956 203.957743 
L 416.772572 212.570445 
L 419.886188 206.418515 
L 422.999804 205.715437 
L 426.11342 189.01734 
L 429.227036 209.055056 
L 432.340652 193.938883 
L 435.454268 230.850467 
L 438.567884 211.34006 
L 441.6815 209.933903 
L 444.795116 222.061996 
L 447.908732 178.822712 
L 451.022348 211.164288 
L 454.135964 198.33312 
L 457.249581 231.377777 
L 460.363197 219.952762 
L 463.476813 203.957743 
L 466.590429 197.278503 
L 469.704045 220.655841 
L 472.817661 219.249684 
L 475.931277 214.32814 
L 479.044893 194.114653 
L 482.158509 202.375816 
L 485.272125 185.326181 
L 488.385741 189.017338 
L 491.499357 192.884267 
L 494.612973 174.604244 
L 497.726589 193.411575 
L 500.840205 196.575425 
L 503.953821 173.198089 
L 507.067437 198.684659 
L 510.181053 180.931946 
L 513.294669 171.088854 
L 516.408285 182.338101 
L 519.521901 189.544647 
L 522.635517 173.725397 
L 525.749133 187.786955 
L 528.862749 178.646942 
L 531.976365 186.205029 
L 535.089981 170.385778 
L 538.203597 157.378841 
L 541.317213 175.65886 
L 544.430829 185.50195 
L 547.544446 172.143472 
L 550.658062 161.597306 
L 553.771678 177.768093 
L 556.885294 197.454273 
L 559.99891 169.858469 
L 563.112526 193.235806 
L 566.226142 175.834631 
L 569.339758 191.302342 
L 572.453374 157.906148 
L 575.56699 193.938884 
L 578.680606 165.640002 
L 581.794222 166.167312 
L 584.907838 157.203068 
L 588.021454 169.15539 
L 591.13507 163.706539 
L 594.248686 162.124613 
L 597.362302 172.846551 
L 600.475918 185.50195 
L 603.589534 179.877327 
L 606.70315 188.84157 
L 609.816766 164.761154 
L 612.930382 170.385777 
L 616.043998 171.967702 
L 619.157614 199.739274 
L 622.27123 149.644983 
L 625.384846 167.925004 
L 628.498462 152.984602 
L 631.612078 165.815772 
L 634.725694 159.488071 
L 637.839311 163.003462 
L 640.952927 178.646941 
L 644.066543 178.646942 
L 647.180159 163.355 
L 650.293775 160.894228 
L 653.407391 172.67078 
L 656.521007 167.397696 
L 659.634623 142.086896 
L 662.748239 165.640003 
L 665.861855 146.656902 
L 668.975471 147.53575 
L 672.089087 167.221928 
L 675.202703 144.3719 
L 678.316319 153.511912 
L 681.429935 161.421536 
L 684.543551 147.535749 
L 687.657167 174.780012 
L 690.770783 159.312302 
L 693.884399 155.972683 
L 696.998015 164.058078 
L 700.111631 156.324222 
L 703.225247 168.803852 
L 706.338863 148.590366 
L 709.452479 160.542689 
L 712.566095 163.179229 
L 715.679711 160.01538 
L 718.793327 177.240787 
L 721.906943 166.870389 
L 725.020559 162.476151 
L 728.134176 154.566528 
L 731.247792 174.428475 
L 734.361408 166.518851 
L 737.475024 148.941905 
L 740.58864 160.542687 
L 743.702256 164.233847 
L 746.815872 169.858468 
L 749.929488 160.542689 
L 753.043104 170.210007 
L 756.15672 198.684657 
L 759.270336 154.039219 
L 762.383952 164.233847 
L 765.497568 161.948844 
L 768.611184 161.773074 
L 771.7248 156.85153 
L 774.838416 174.428474 
L 777.952032 170.210008 
L 781.065648 170.913087 
L 784.179264 169.33116 
L 787.29288 141.735358 
L 790.406496 183.744255 
L 793.520112 167.925007 
L 796.633728 169.33116 
L 799.747344 150.523831 
L 802.86096 145.250747 
L 805.974576 144.196131 
L 809.088192 174.780013 
L 812.201808 177.416555 
L 815.315424 156.49999 
L 818.429041 168.628083 
L 821.542657 167.221927 
L 824.656273 159.136533 
L 827.769889 156.851531 
L 830.883505 151.226909 
L 833.997121 157.906148 
L 837.110737 161.069997 
L 840.224353 182.162331 
L 843.337969 167.046157 
L 846.451585 155.269605 
L 849.565201 159.136535 
L 852.678817 165.815772 
L 855.792433 164.233846 
L 858.906049 151.402677 
L 862.019665 185.326181 
L 865.133281 163.00346 
L 868.246897 136.638043 
L 871.360513 165.288463 
L 874.474129 153.86345 
L 877.587745 170.913086 
L 880.701361 157.203069 
L 883.814977 155.972683 
L 886.928593 145.250748 
L 890.042209 160.191149 
L 893.155825 170.210007 
L 896.269441 157.906147 
L 899.383057 158.257685 
L 902.496673 180.228867 
L 905.610289 143.844591 
L 908.723906 172.84655 
L 911.837522 178.822711 
L 914.951138 160.542689 
L 918.064754 155.621144 
L 921.17837 152.281522 
L 924.291986 182.513869 
L 927.405602 157.730377 
L 930.519218 142.965745 
L 933.632834 174.955783 
L 936.74645 198.508888 
L 939.860066 159.488073 
L 942.973682 152.281524 
L 946.087298 185.85349 
L 949.200914 152.984601 
L 952.31453 156.148452 
L 955.428146 145.426517 
L 955.428146 145.426517 
" clip-path="url(#p497b2daed1)" style="fill: none; stroke: #1f77b4; stroke-width: 2; stroke-linecap: square"/>
   </g>
   <g id="line2d_30">
    <path d="M 177.024137 461.459982 
L 180.137753 455.83536 
L 183.25137 446.34381 
L 186.364986 456.011129 
L 189.478602 429.294174 
L 192.592218 460.405365 
L 195.705834 428.591096 
L 198.81945 413.123385 
L 201.933066 416.990312 
L 205.046682 416.638774 
L 208.160298 432.985331 
L 211.273914 441.949574 
L 214.38753 425.778785 
L 217.501146 421.208779 
L 220.614762 428.239557 
L 223.728378 426.130324 
L 226.841994 462.866137 
L 229.95561 424.19686 
L 233.069226 434.918796 
L 236.182842 418.220699 
L 239.296458 423.493782 
L 242.410074 424.724168 
L 245.52369 447.398427 
L 248.637306 434.743027 
L 251.750922 468.31499 
L 254.864538 417.86916 
L 257.978154 457.944593 
L 261.09177 445.640731 
L 264.205386 458.471901 
L 267.319002 412.771846 
L 270.432618 416.638773 
L 273.546235 445.464962 
L 276.659851 447.749965 
L 279.773467 456.011128 
L 282.887083 423.493781 
L 286.000699 439.664571 
L 289.114315 424.899937 
L 292.227931 400.995293 
L 295.341547 424.021089 
L 298.455163 436.67649 
L 301.568779 442.125342 
L 304.682395 413.474923 
L 307.796011 427.00917 
L 310.909627 404.86222 
L 314.023243 442.125342 
L 317.136859 391.679512 
L 320.250475 389.394509 
L 323.364091 383.594117 
L 326.477707 404.68645 
L 329.591323 401.522601 
L 332.704939 394.667592 
L 335.818555 437.731107 
L 338.932171 374.629876 
L 342.045787 382.012193 
L 345.159403 384.472964 
L 348.273019 400.116445 
L 351.386635 357.756008 
L 354.500251 401.87414 
L 357.613867 380.078729 
L 360.727483 396.425286 
L 363.841099 376.2118 
L 366.954716 411.36569 
L 370.068332 357.756009 
L 373.181948 377.617957 
L 376.295564 362.150245 
L 379.40918 367.07179 
L 382.522796 368.653715 
L 385.636412 386.406428 
L 388.750028 357.931778 
L 391.863644 372.696412 
L 394.97726 374.454106 
L 398.090876 418.044928 
L 401.204492 357.404469 
L 404.318108 359.689473 
L 407.431724 397.304134 
L 410.54534 374.102567 
L 413.658956 363.73217 
L 416.772572 371.466026 
L 419.886188 386.05489 
L 422.999804 382.71527 
L 426.11342 351.252539 
L 429.227036 347.561381 
L 432.340652 358.459087 
L 435.454268 412.771846 
L 438.567884 337.894062 
L 441.6815 359.162165 
L 444.795116 358.634856 
L 447.908732 365.138326 
L 451.022348 344.74907 
L 454.135964 370.41141 
L 457.249581 369.884101 
L 460.363197 362.326016 
L 463.476813 366.544481 
L 466.590429 331.390593 
L 469.704045 358.634856 
L 472.817661 349.670615 
L 475.931277 376.914878 
L 479.044893 377.793726 
L 482.158509 345.452148 
L 485.272125 350.549462 
L 488.385741 358.986396 
L 491.499357 340.706373 
L 494.612973 346.155226 
L 497.726589 357.58024 
L 500.840205 365.665635 
L 503.953821 348.967537 
L 507.067437 327.347895 
L 510.181053 336.839445 
L 513.294669 335.784828 
L 516.408285 345.452147 
L 519.521901 312.75903 
L 522.635517 313.462109 
L 525.749133 348.615998 
L 528.862749 324.008275 
L 531.976365 338.2456 
L 535.089981 303.091711 
L 538.203597 322.074812 
L 541.317213 311.001337 
L 544.430829 320.317116 
L 547.544446 325.062893 
L 550.658062 320.317117 
L 553.771678 296.764011 
L 556.885294 323.832506 
L 559.99891 319.614037 
L 563.112526 315.044033 
L 566.226142 304.322097 
L 569.339758 313.462108 
L 572.453374 290.436311 
L 575.56699 305.728253 
L 578.680606 330.160206 
L 581.794222 329.808667 
L 584.907838 290.084771 
L 588.021454 316.977497 
L 591.13507 303.61902 
L 594.248686 318.735191 
L 597.362302 276.023216 
L 600.475918 288.502847 
L 603.589534 266.707435 
L 606.70315 307.134408 
L 609.816766 299.400552 
L 612.930382 301.509784 
L 616.043998 325.941739 
L 619.157614 292.194005 
L 622.27123 302.564402 
L 625.384846 284.460149 
L 628.498462 313.989416 
L 631.612078 258.622041 
L 634.725694 278.483989 
L 637.839311 284.987458 
L 640.952927 285.514766 
L 644.066543 288.151307 
L 647.180159 309.946718 
L 650.293775 267.234743 
L 653.407391 287.623998 
L 656.521007 244.033176 
L 659.634623 262.488969 
L 662.748239 265.125511 
L 665.861855 253.700496 
L 668.975471 261.258582 
L 672.089087 286.393612 
L 675.202703 268.992437 
L 678.316319 267.762052 
L 681.429935 256.688576 
L 684.543551 252.821648 
L 687.657167 280.593222 
L 690.770783 288.502847 
L 693.884399 269.871285 
L 696.998015 264.070892 
L 700.111631 241.045096 
L 703.225247 262.840507 
L 706.338863 274.44129 
L 709.452479 279.714374 
L 712.566095 272.156288 
L 715.679711 284.460149 
L 718.793327 280.065912 
L 721.906943 273.386675 
L 725.020559 297.115549 
L 728.134176 260.555504 
L 731.247792 274.61706 
L 734.361408 289.733232 
L 737.475024 287.975536 
L 740.58864 272.859365 
L 743.702256 270.574363 
L 746.815872 268.11359 
L 749.929488 267.058974 
L 756.15672 296.764009 
L 759.270336 294.127469 
L 762.383952 267.937821 
L 765.497568 270.398593 
L 768.611184 315.044033 
L 771.7248 285.690535 
L 774.838416 264.070892 
L 777.952032 283.229763 
L 781.065648 289.205922 
L 784.179264 268.640897 
L 787.29288 264.070893 
L 790.406496 283.40553 
L 793.520112 282.878223 
L 796.633728 273.562443 
L 799.747344 286.74515 
L 802.86096 271.277439 
L 805.974576 325.765967 
L 809.088192 296.41247 
L 812.201808 324.184044 
L 815.315424 282.175147 
L 818.429041 313.110567 
L 821.542657 292.897082 
L 824.656273 283.229761 
L 827.769889 288.151306 
L 830.883505 265.652817 
L 833.997121 272.507825 
L 837.110737 311.177104 
L 840.224353 283.932839 
L 843.337969 286.745151 
L 846.451585 291.666694 
L 849.565201 272.859365 
L 852.678817 291.315157 
L 855.792433 316.625956 
L 858.906049 272.507825 
L 862.019665 273.210903 
L 865.133281 295.182084 
L 868.246897 327.875202 
L 871.360513 311.880181 
L 874.474129 322.953657 
L 877.587745 341.409448 
L 880.701361 288.854384 
L 883.814977 309.06787 
L 886.928593 322.602117 
L 890.042209 350.900997 
L 893.155825 278.835527 
L 896.269441 335.960594 
L 899.383057 299.400552 
L 902.496673 328.578278 
L 905.610289 309.595179 
L 908.723906 300.982476 
L 911.837522 307.661713 
L 914.951138 314.692493 
L 918.064754 293.072851 
L 921.17837 335.960594 
L 924.291986 288.854384 
L 927.405602 295.182084 
L 930.519218 272.859365 
L 933.632834 331.214821 
L 936.74645 308.8921 
L 939.860066 293.951698 
L 942.973682 315.571341 
L 946.087298 287.448228 
L 949.200914 364.962554 
L 952.31453 310.474026 
L 955.428146 303.794786 
L 955.428146 303.794786 
" clip-path="url(#p497b2daed1)" style="fill: none; stroke: #ff7f0e; stroke-width: 2; stroke-linecap: square"/>
   </g>
   <g id="line2d_31">
    <path d="M 177.024137 482.200777 
L 180.137753 449.50766 
L 183.25137 462.866138 
L 186.364986 459.17498 
L 189.478602 439.488802 
L 192.592218 447.222658 
L 195.705834 454.077666 
L 198.81945 441.246497 
L 201.933066 437.02803 
L 205.046682 419.275316 
L 208.160298 465.326911 
L 211.273914 436.676492 
L 214.38753 428.415327 
L 217.501146 446.343811 
L 220.614762 421.560319 
L 223.728378 431.754946 
L 226.841994 413.299155 
L 229.95561 414.002232 
L 233.069226 416.638774 
L 236.182842 407.322994 
L 239.296458 406.619916 
L 242.410074 409.959536 
L 245.52369 391.152205 
L 248.637306 406.444146 
L 251.750922 389.218741 
L 254.864538 370.235641 
L 257.978154 387.461046 
L 261.09177 363.732172 
L 264.205386 369.181024 
L 267.319002 366.544482 
L 270.432618 359.865243 
L 273.546235 339.651757 
L 276.659851 342.288299 
L 279.773467 355.119468 
L 282.887083 347.737151 
L 286.000699 340.003296 
L 289.114315 355.295237 
L 292.227931 323.305198 
L 295.341547 334.905982 
L 298.455163 322.77789 
L 301.568779 333.499825 
L 304.682395 314.516726 
L 307.796011 297.994398 
L 310.909627 310.474028 
L 314.023243 291.490928 
L 317.136859 288.502847 
L 320.250475 294.830547 
L 323.364091 273.210904 
L 326.477707 269.168208 
L 329.591323 277.780911 
L 332.704939 266.180127 
L 335.818555 264.949741 
L 338.932171 251.591264 
L 342.045787 293.424391 
L 345.159403 238.584324 
L 348.273019 253.524727 
L 351.386635 234.541627 
L 354.500251 271.277441 
L 357.613867 248.778952 
L 360.727483 263.543585 
L 363.841099 237.705476 
L 366.954716 269.871286 
L 370.068332 234.893165 
L 373.181948 255.809729 
L 376.295564 244.736255 
L 379.40918 226.104693 
L 382.522796 228.917004 
L 385.636412 248.427412 
L 388.750028 230.49893 
L 391.863644 230.14739 
L 394.97726 196.223887 
L 398.090876 202.024277 
L 401.204492 217.843529 
L 404.318108 192.181189 
L 407.431724 191.126572 
L 410.54534 218.898144 
L 413.658956 259.500888 
L 416.772572 206.945824 
L 419.886188 204.66082 
L 422.999804 216.261604 
L 426.11342 191.478112 
L 429.227036 189.896185 
L 432.340652 209.582364 
L 435.454268 210.812751 
L 438.567884 188.665801 
L 441.6815 204.133511 
L 444.795116 221.886226 
L 447.908732 207.824669 
L 451.022348 213.625062 
L 454.135964 182.16233 
L 457.249581 194.9935 
L 460.363197 176.713478 
L 463.476813 188.84157 
L 466.590429 186.556567 
L 469.704045 170.561546 
L 472.817661 199.036198 
L 475.931277 192.00542 
L 479.044893 187.259645 
L 482.158509 189.368878 
L 485.272125 197.98158 
L 488.385741 185.67772 
L 491.499357 188.314262 
L 494.612973 163.53077 
L 497.726589 176.361938 
L 500.840205 211.515828 
L 503.953821 178.822711 
L 507.067437 187.083875 
L 510.181053 202.551586 
L 513.294669 171.791933 
L 516.408285 169.6827 
L 519.521901 179.17425 
L 522.635517 184.271562 
L 525.749133 200.442352 
L 528.862749 192.532728 
L 531.976365 159.488072 
L 535.089981 191.653881 
L 538.203597 176.361939 
L 541.317213 150.348059 
L 544.430829 192.708497 
L 547.544446 160.191148 
L 550.658062 160.718458 
L 553.771678 172.495012 
L 556.885294 160.894226 
L 559.99891 168.803852 
L 563.112526 180.228866 
L 566.226142 171.967703 
L 569.339758 167.573467 
L 572.453374 181.986562 
L 575.56699 170.034239 
L 578.680606 199.739274 
L 581.794222 170.913086 
L 584.907838 162.651922 
L 588.021454 138.044198 
L 591.13507 178.646942 
L 594.248686 180.756174 
L 597.362302 163.179231 
L 600.475918 196.223886 
L 603.589534 170.737317 
L 606.70315 161.069996 
L 609.816766 168.452313 
L 612.930382 158.081916 
L 616.043998 147.184211 
L 619.157614 184.447333 
L 622.27123 167.046159 
L 625.384846 169.331161 
L 628.498462 164.233847 
L 631.612078 170.737316 
L 634.725694 183.744254 
L 637.839311 170.385778 
L 640.952927 151.402677 
L 644.066543 178.998479 
L 647.180159 160.19115 
L 650.293775 185.853488 
L 653.407391 191.829649 
L 656.521007 169.506928 
L 659.634623 165.288464 
L 662.748239 165.991541 
L 665.861855 188.6658 
L 668.975471 157.730377 
L 672.089087 166.343081 
L 675.202703 193.411576 
L 678.316319 152.457293 
L 684.543551 205.891206 
L 687.657167 183.744255 
L 690.770783 149.644983 
L 693.884399 172.143471 
L 700.111631 188.6658 
L 703.225247 168.276546 
L 706.338863 173.901167 
L 709.452479 165.815772 
L 712.566095 189.720417 
L 715.679711 154.566528 
L 718.793327 179.17425 
L 721.906943 170.210008 
L 725.020559 175.483091 
L 728.134176 170.913084 
L 731.247792 181.459251 
L 734.361408 170.034239 
L 737.475024 167.221927 
L 740.58864 156.324222 
L 743.702256 160.718457 
L 746.815872 186.908107 
L 749.929488 179.525788 
L 753.043104 155.796913 
L 756.15672 189.368878 
L 759.270336 188.138492 
L 762.383952 189.544646 
L 765.497568 180.404635 
L 768.611184 191.829651 
L 771.7248 165.288465 
L 774.838416 183.392716 
L 777.952032 194.290422 
L 781.065648 172.319242 
L 784.179264 184.271564 
L 787.29288 156.675759 
L 790.406496 151.051139 
L 793.520112 170.210008 
L 796.633728 147.887288 
L 799.747344 178.119635 
L 802.86096 176.18617 
L 805.974576 161.773075 
L 809.088192 181.283483 
L 812.201808 156.851531 
L 815.315424 170.737317 
L 818.429041 146.83267 
L 821.542657 149.469213 
L 824.656273 179.701558 
L 827.769889 147.184211 
L 830.883505 160.366919 
L 833.997121 158.081916 
L 837.110737 161.245767 
L 840.224353 160.718457 
L 843.337969 189.720418 
L 846.451585 159.663841 
L 849.565201 195.169269 
L 852.678817 157.554608 
L 855.792433 181.810791 
L 858.906049 165.464233 
L 862.019665 164.761156 
L 865.133281 164.409617 
L 868.246897 149.820752 
L 871.360513 145.953825 
L 874.474129 183.041177 
L 877.587745 169.155391 
L 880.701361 158.784995 
L 883.814977 173.373858 
L 886.928593 156.675761 
L 890.042209 161.421535 
L 893.155825 146.305364 
L 896.269441 158.784994 
L 899.383057 167.573467 
L 902.496673 167.046158 
L 905.610289 163.882307 
L 908.723906 181.107714 
L 911.837522 170.034239 
L 914.951138 162.300382 
L 918.064754 178.119632 
L 921.17837 157.027299 
L 924.291986 161.069996 
L 927.405602 146.481133 
L 930.519218 167.221927 
L 933.632834 169.682699 
L 936.74645 155.796913 
L 939.860066 166.167312 
L 942.973682 154.214988 
L 946.087298 172.84655 
L 949.200914 162.124614 
L 952.31453 165.815771 
L 955.428146 185.326179 
L 955.428146 185.326179 
" clip-path="url(#p497b2daed1)" style="fill: none; stroke: #2ca02c; stroke-width: 2; stroke-linecap: square"/>
   </g>
   <g id="patch_3">
    <path d="M 128.103937 547.344744 
L 128.103937 73.799291 
" style="fill: none; stroke: #000000; stroke-width: 2; stroke-linejoin: miter; stroke-linecap: square"/>
   </g>
   <g id="patch_4">
    <path d="M 138.103937 557.344744 
L 994.348346 557.344744 
" style="fill: none; stroke: #000000; stroke-width: 2; stroke-linejoin: miter; stroke-linecap: square"/>
   </g>
   <g id="legend_1">
    <g id="patch_5">
     <path d="M 148.183937 148.728791 
L 245.239937 148.728791 
Q 248.119937 148.728791 248.119937 145.848791 
L 248.119937 83.879291 
Q 248.119937 80.999291 245.239937 80.999291 
L 148.183937 80.999291 
Q 145.303937 80.999291 145.303937 83.879291 
L 145.303937 145.848791 
Q 145.303937 148.728791 148.183937 148.728791 
z
" style="fill: #ffffff; opacity: 0.8; stroke: #cccccc; stroke-linejoin: miter"/>
    </g>
    <g id="line2d_32">
     <path d="M 151.063937 92.661041 
L 165.463937 92.661041 
L 179.863937 92.661041 
" style="fill: none; stroke: #1f77b4; stroke-width: 2; stroke-linecap: square"/>
    </g>
    <g id="text_17">
     <!-- IPPO -->
     <g transform="translate(191.383937 97.701041) scale(0.144 -0.144)">
      <defs>
       <path id="DejaVuSans-49" d="M 628 4666 
L 1259 4666 
L 1259 0 
L 628 0 
L 628 4666 
z
" transform="scale(0.015625)"/>
       <path id="DejaVuSans-50" d="M 1259 4147 
L 1259 2394 
L 2053 2394 
Q 2494 2394 2734 2622 
Q 2975 2850 2975 3272 
Q 2975 3691 2734 3919 
Q 2494 4147 2053 4147 
L 1259 4147 
z
M 628 4666 
L 2053 4666 
Q 2838 4666 3239 4311 
Q 3641 3956 3641 3272 
Q 3641 2581 3239 2228 
Q 2838 1875 2053 1875 
L 1259 1875 
L 1259 0 
L 628 0 
L 628 4666 
z
" transform="scale(0.015625)"/>
       <path id="DejaVuSans-4f" d="M 2522 4238 
Q 1834 4238 1429 3725 
Q 1025 3213 1025 2328 
Q 1025 1447 1429 934 
Q 1834 422 2522 422 
Q 3209 422 3611 934 
Q 4013 1447 4013 2328 
Q 4013 3213 3611 3725 
Q 3209 4238 2522 4238 
z
M 2522 4750 
Q 3503 4750 4090 4092 
Q 4678 3434 4678 2328 
Q 4678 1225 4090 567 
Q 3503 -91 2522 -91 
Q 1538 -91 948 565 
Q 359 1222 359 2328 
Q 359 3434 948 4092 
Q 1538 4750 2522 4750 
z
" transform="scale(0.015625)"/>
      </defs>
      <use xlink:href="#DejaVuSans-49"/>
      <use xlink:href="#DejaVuSans-50" transform="translate(29.492188 0)"/>
      <use xlink:href="#DejaVuSans-50" transform="translate(89.794922 0)"/>
      <use xlink:href="#DejaVuSans-4f" transform="translate(150.097656 0)"/>
     </g>
    </g>
    <g id="line2d_33">
     <path d="M 151.063937 113.797541 
L 165.463937 113.797541 
L 179.863937 113.797541 
" style="fill: none; stroke: #ff7f0e; stroke-width: 2; stroke-linecap: square"/>
    </g>
    <g id="text_18">
     <!-- IQL -->
     <g transform="translate(191.383937 118.837541) scale(0.144 -0.144)">
      <defs>
       <path id="DejaVuSans-51" d="M 2522 4238 
Q 1834 4238 1429 3725 
Q 1025 3213 1025 2328 
Q 1025 1447 1429 934 
Q 1834 422 2522 422 
Q 3209 422 3611 934 
Q 4013 1447 4013 2328 
Q 4013 3213 3611 3725 
Q 3209 4238 2522 4238 
z
M 3406 84 
L 4238 -825 
L 3475 -825 
L 2784 -78 
Q 2681 -84 2626 -87 
Q 2572 -91 2522 -91 
Q 1538 -91 948 567 
Q 359 1225 359 2328 
Q 359 3434 948 4092 
Q 1538 4750 2522 4750 
Q 3503 4750 4090 4092 
Q 4678 3434 4678 2328 
Q 4678 1516 4351 937 
Q 4025 359 3406 84 
z
" transform="scale(0.015625)"/>
       <path id="DejaVuSans-4c" d="M 628 4666 
L 1259 4666 
L 1259 531 
L 3531 531 
L 3531 0 
L 628 0 
L 628 4666 
z
" transform="scale(0.015625)"/>
      </defs>
      <use xlink:href="#DejaVuSans-49"/>
      <use xlink:href="#DejaVuSans-51" transform="translate(29.492188 0)"/>
      <use xlink:href="#DejaVuSans-4c" transform="translate(108.203125 0)"/>
     </g>
    </g>
    <g id="line2d_34">
     <path d="M 151.063937 134.934041 
L 165.463937 134.934041 
L 179.863937 134.934041 
" style="fill: none; stroke: #2ca02c; stroke-width: 2; stroke-linecap: square"/>
    </g>
    <g id="text_19">
     <!-- MAPPO -->
     <g transform="translate(191.383937 139.974041) scale(0.144 -0.144)">
      <defs>
       <path id="DejaVuSans-4d" d="M 628 4666 
L 1569 4666 
L 2759 1491 
L 3956 4666 
L 4897 4666 
L 4897 0 
L 4281 0 
L 4281 4097 
L 3078 897 
L 2444 897 
L 1241 4097 
L 1241 0 
L 628 0 
L 628 4666 
z
" transform="scale(0.015625)"/>
       <path id="DejaVuSans-41" d="M 2188 4044 
L 1331 1722 
L 3047 1722 
L 2188 4044 
z
M 1831 4666 
L 2547 4666 
L 4325 0 
L 3669 0 
L 3244 1197 
L 1141 1197 
L 716 0 
L 50 0 
L 1831 4666 
z
" transform="scale(0.015625)"/>
      </defs>
      <use xlink:href="#DejaVuSans-4d"/>
      <use xlink:href="#DejaVuSans-41" transform="translate(86.279297 0)"/>
      <use xlink:href="#DejaVuSans-50" transform="translate(154.6875 0)"/>
      <use xlink:href="#DejaVuSans-50" transform="translate(214.990234 0)"/>
      <use xlink:href="#DejaVuSans-4f" transform="translate(275.292969 0)"/>
     </g>
    </g>
   </g>
  </g>
 </g>
 <defs>
  <clipPath id="p497b2daed1">
   <rect x="138.103937" y="73.799291" width="856.244409" height="473.545453"/>
  </clipPath>
 </defs>
</svg>
